<?xml version="1.0" encoding="utf-8"?>
<!-- Generator: Adobe Illustrator 21.0.2, SVG Export Plug-In . SVG Version: 6.00 Build 0)  -->
<svg version="1.1" id="Layer_1" xmlns="http://www.w3.org/2000/svg" xmlns:xlink="http://www.w3.org/1999/xlink" x="0px" y="0px"
	 viewBox="0 0 310.2 310.2" style="enable-background:new 0 0 310.2 310.2;" xml:space="preserve">
<style type="text/css">
	.st0{fill:#FFFFFF;}
</style>
<g id="baseDot">
	<g>
		<path d="M155.2,274.4c-15.6,0-28.3-12.7-28.3-28.3c0-15.6,12.7-28.3,28.3-28.3c15.6,0,28.3,12.7,28.3,28.3
			C183.5,261.7,170.8,274.4,155.2,274.4z"/>
		<path class="st0" d="M155.2,215.8v4c14.5,0,26.3,11.8,26.3,26.3s-11.8,26.3-26.3,26.3s-26.3-11.8-26.3-26.3s11.8-26.3,26.3-26.3
			V215.8 M155.2,215.8c-16.7,0-30.3,13.5-30.3,30.3c0,16.7,13.5,30.3,30.3,30.3c16.7,0,30.3-13.5,30.3-30.3S171.9,215.8,155.2,215.8
			L155.2,215.8z"/>
	</g>
</g>
<g id="baseRing">
	<g>
		<path d="M202.1,204.2c-0.1,0-0.4,0-0.6-0.3c-11.4-12.3-28.3-19.4-46.3-19.4c-18,0-34.9,7.1-46.3,19.4c-0.2,0.2-0.4,0.2-0.6,0.2
			c-0.1,0-0.4,0-0.6-0.2l-18.9-15.9c-0.2-0.2-0.3-0.4-0.3-0.6c0-0.2,0.1-0.3,0.2-0.4l0.1-0.1c16.8-18.9,41.1-29.7,66.4-29.7
			c25.3,0,49.5,10.9,66.4,29.8c0.2,0.2,0.2,0.5,0.2,0.6c0,0.2-0.1,0.5-0.3,0.6L202.7,204C202.5,204.1,202.3,204.2,202.1,204.2z"/>
		<path class="st0" d="M155.2,159.2c24.3,0,47.6,10.3,64.1,28.3l-17.1,14.3c-11.7-12.2-28.8-19.3-47-19.3c-18.2,0-35.2,7-46.9,19.2
			l-17.1-14.4C107.6,169.4,130.8,159.2,155.2,159.2 M155.2,155.2c-26,0-50.6,11-67.9,30.4c-1.1,1.1-1,2.9,0.3,4l18.9,15.9
			c0.6,0.5,1.2,0.7,1.9,0.7c0.8,0,1.5-0.3,2-0.9c11.5-12.5,28.2-18.8,44.8-18.8s33.3,6.3,44.8,18.8c0.5,0.6,1.3,0.9,2.1,0.9
			c0.6,0,1.3-0.2,1.8-0.6l18.9-15.8c1.2-1,1.4-2.9,0.3-4.1C205.8,166.3,181.2,155.2,155.2,155.2L155.2,155.2z"/>
	</g>
</g>
<g id="topRing">
	<g>
		<path d="M288.3,118.8c-0.2,0-0.5-0.1-0.6-0.3c-34.9-36.3-81.9-56.3-132.4-56.3c-49.7,0-98,20.5-132.5,56.3
			c-0.2,0.2-0.4,0.3-0.7,0.3c-0.2,0-0.4-0.1-0.5-0.2l-18-16.8c-0.2-0.2-0.3-0.4-0.3-0.6c0-0.2,0.1-0.5,0.3-0.7
			c39.3-41,94.5-64.6,151.4-64.6l0.4,0c56.9,0,112.2,23.5,151.7,64.6c0.3,0.3,0.2,0.9-0.1,1.2l-18,16.9
			C288.7,118.7,288.5,118.8,288.3,118.8z"/>
		<path class="st0" d="M154.8,37.9l0.4,0c56,0,110.4,23,149.4,63.1l-16.3,15.3c-35.2-36.2-82.4-56.1-133.1-56.1
			c-49.8,0-98.3,20.4-133.2,56.1L5.7,101.1C44.6,60.9,98.9,37.9,154.8,37.9 M154.8,33.9C97.3,33.9,41.7,57.7,2,99.1
			c-1.1,1.2-1.1,3,0.1,4.1l18,16.8c0.5,0.5,1.2,0.8,1.9,0.8c0.8,0,1.5-0.3,2.1-0.9c34.2-35.4,81.8-55.7,131.1-55.7
			c50,0,96.4,19.7,131,55.7c0.6,0.6,1.3,0.9,2.1,0.9c0.7,0,1.4-0.3,1.9-0.8l18-16.9c1.1-1.1,1.2-2.9,0.1-4
			c-39.9-41.5-95.5-65.2-153.1-65.2C155.1,33.9,155,33.9,154.8,33.9L154.8,33.9z"/>
	</g>
</g>
<g id="midRing">
	<g>
		<path d="M65.1,161.5c-0.2,0-0.5-0.1-0.7-0.3l-18.2-16.5c-0.2-0.2-0.3-0.3-0.3-0.5c0-0.2,0.1-0.3,0.2-0.5l0.1-0.1l0.1-0.1
			c28.1-29.9,67.8-47.1,108.9-47.1c41.1,0,80.8,17.1,108.9,47c0.2,0.2,0.2,0.3,0.2,0.5c0,0.2-0.1,0.5-0.3,0.7l-18.3,16.6
			c-0.1,0.1-0.3,0.2-0.5,0.2c-0.3,0-0.5-0.1-0.7-0.3c-23.2-24.3-55.8-38.3-89.4-38.3c-33.7,0-66.4,14-89.5,38.4
			C65.6,161.4,65.4,161.5,65.1,161.5z"/>
		<path class="st0" d="M155.3,98.5c40.1,0,78.9,16.5,106.6,45.4l-16.6,15c-23.6-24.3-56.4-38.2-90.2-38.2
			c-33.9,0-66.7,13.9-90.2,38.3l-16.5-14.9C76.3,115.1,115.1,98.5,155.3,98.5 M155.3,94.5c-41.8,0-81.9,17.4-110.4,47.7
			c-1.3,1.1-1.2,3,0,4l18.3,16.6c0.6,0.5,1.3,0.7,1.9,0.7c0.7,0,1.5-0.3,2.1-0.9c22.8-24.1,54.7-37.8,88-37.8
			c33.2,0,65.1,13.7,88,37.7c0.6,0.6,1.4,0.9,2.1,0.9c0.7,0,1.3-0.2,1.9-0.7l18.3-16.6c1.2-1.1,1.3-2.9,0.2-4
			C237.1,111.8,197.1,94.5,155.3,94.5L155.3,94.5z"/>
	</g>
</g>
</svg>
