<svg xmlns="http://www.w3.org/2000/svg" xmlns:xlink="http://www.w3.org/1999/xlink" viewBox="0 0 607.43 207">
  <defs>
    <style>
      .cls-1, .cls-2, .cls-3, .cls-5 {
        stroke: lime;
      }

      .cls-1, .cls-10, .cls-11, .cls-12, .cls-13, .cls-14, .cls-2, .cls-3, .cls-4, .cls-5, .cls-6, .cls-7, .cls-8, .cls-9 {
        stroke-miterlimit: 10;
      }

      .cls-1, .cls-3 {
        stroke-width: 7px;
      }

      .cls-2 {
        stroke-width: 8px;
      }

      .cls-3, .cls-4, .cls-5 {
        stroke-linecap: round;
      }

      .cls-10, .cls-11, .cls-12, .cls-13, .cls-4, .cls-5, .cls-8, .cls-9 {
        fill: none;
      }

      .cls-4 {
        stroke: red;
      }

      .cls-10, .cls-4, .cls-9 {
        stroke-width: 10px;
      }

      .cls-5 {
        stroke-width: 5px;
      }

      .cls-14, .cls-6, .cls-7, .cls-8 {
        stroke: #fff;
      }

      .cls-7 {
        fill: red;
      }

      .cls-10, .cls-12, .cls-13, .cls-9 {
        stroke: #0068ff;
      }

      .cls-10 {
        stroke-dasharray: 11.96 11.96;
      }

      .cls-11 {
        stroke: aqua;
        stroke-width: 13px;
        stroke-dasharray: 12;
      }

      .cls-12, .cls-13 {
        stroke-width: 6px;
      }

      .cls-13 {
        stroke-dasharray: 3.89 3.89;
      }

      .cls-14 {
        fill: #333;
        stroke-width: 3px;
      }
    </style>
    <symbol id="Router" data-name="Router" viewBox="0 0 126.58 21">
      <polyline class="cls-6" points="125.7 10 125.7 9.45 113.14 0.5 13.68 0.5 0.84 9.51 0.52 20.5 125.7 20.5 125.7 18 125.7 11.46"/>
      <polygon class="cls-7" points="18.12 0.5 0.76 12.29 0.84 9.32 13.68 0.5 18.12 0.5"/>
      <polygon class="cls-7" points="108.69 0.5 126.06 12.29 125.97 9.32 113.14 0.5 108.69 0.5"/>
      <line class="cls-8" x1="56.15" y1="0.5" x2="63.14" y2="20.47"/>
      <line class="cls-8" x1="52.66" y1="0.5" x2="59.65" y2="20.47"/>
      <polygon class="cls-7" points="52.66 20.47 45.67 0.5 49.16 0.5 56.15 20.47 52.66 20.47"/>
      <line class="cls-8" x1="73.75" y1="0.5" x2="66.75" y2="20.47"/>
      <line class="cls-8" x1="77.24" y1="0.5" x2="70.25" y2="20.47"/>
      <polygon class="cls-7" points="77.24 20.47 84.23 0.5 80.74 0.5 73.75 20.47 77.24 20.47"/>
    </symbol>
    <symbol id="DarkComp" data-name="DarkComp" viewBox="0 0 415.48 327.89">
      <rect class="cls-1" x="4.91" y="3.5" width="372.75" height="222.94" rx="5" ry="5"/>
      <polygon class="cls-2" points="191.28 289.7 140.69 226.44 241.87 226.44 191.28 289.7"/>
      <polygon class="cls-3" points="367.73 324.39 20.27 324.39 4.65 270.13 353.79 270.13 367.73 324.39"/>
      <path class="cls-1" d="M406,319.7l-11-.08c-5.13,0-10.74-5.14-12.48-11.2l-6.79-23.65c-1.44-5,1-8.94,5.51-8.89l9.56.11c4.45.05,9.54,4,11.42,9.06l8.85,23.61C413.37,314.71,411.12,319.74,406,319.7Z"/>
      <line class="cls-4" x1="29.76" y1="30.92" x2="241.93" y2="30.92"/>
      <line class="cls-4" x1="29.76" y1="63.02" x2="276.7" y2="63.02"/>
      <line class="cls-4" x1="29.76" y1="95.11" x2="188.89" y2="95.11"/>
      <line class="cls-4" x1="29.76" y1="127.2" x2="236.14" y2="127.2"/>
      <line class="cls-5" x1="35.55" y1="289.9" x2="304.33" y2="289.9"/>
      <line class="cls-5" x1="41.35" y1="305.5" x2="313.25" y2="305.5"/>
    </symbol>
  </defs>
  <title>BusTopology</title>
  <g id="Wires">
    <g>
      <line class="cls-9" x1="480.89" y1="97.33" x2="474.89" y2="97.33"/>
      <line class="cls-10" x1="462.93" y1="97.33" x2="-9.59" y2="97.33"/>
    </g>
    <line class="cls-11" x1="670.5" y1="97.33" x2="585.17" y2="97.33"/>
  </g>
  <g id="TJunc">
    <g>
      <g>
        <line class="cls-12" x1="119.04" y1="60.6" x2="119.04" y2="62.6"/>
        <line class="cls-13" x1="119.04" y1="66.5" x2="119.04" y2="87.92"/>
        <line class="cls-12" x1="119.04" y1="89.87" x2="119.04" y2="91.87"/>
      </g>
      <polygon class="cls-14" points="140.43 104.13 97.49 104.13 97.65 90.33 110.9 90.33 110.85 79.61 127.32 79.61 127.39 90.33 140.59 90.33 140.43 104.13"/>
    </g>
    <g>
      <g>
        <line class="cls-12" x1="297.55" y1="60.6" x2="297.55" y2="62.6"/>
        <line class="cls-13" x1="297.55" y1="66.5" x2="297.55" y2="87.92"/>
        <line class="cls-12" x1="297.55" y1="89.87" x2="297.55" y2="91.87"/>
      </g>
      <polygon class="cls-14" points="318.94 104.13 276 104.13 276.16 90.33 289.42 90.33 289.36 79.61 305.83 79.61 305.9 90.33 319.1 90.33 318.94 104.13"/>
    </g>
    <g>
      <g>
        <line class="cls-12" x1="43.46" y1="134.32" x2="43.46" y2="132.32"/>
        <line class="cls-13" x1="43.46" y1="128.43" x2="43.46" y2="107.01"/>
        <line class="cls-12" x1="43.46" y1="105.06" x2="43.46" y2="103.06"/>
      </g>
      <polygon class="cls-14" points="22.07 90.8 65.01 90.8 64.85 104.59 51.6 104.59 51.65 115.32 35.18 115.32 35.11 104.59 21.91 104.59 22.07 90.8"/>
    </g>
    <g>
      <g>
        <line class="cls-12" x1="208.61" y1="134.32" x2="208.61" y2="132.32"/>
        <line class="cls-13" x1="208.61" y1="128.43" x2="208.61" y2="107.01"/>
        <line class="cls-12" x1="208.61" y1="105.06" x2="208.61" y2="103.06"/>
      </g>
      <polygon class="cls-14" points="187.22 90.8 230.16 90.8 230 104.59 216.75 104.59 216.8 115.32 200.33 115.32 200.26 104.59 187.06 104.59 187.22 90.8"/>
    </g>
    <g>
      <g>
        <line class="cls-12" x1="393.39" y1="134.32" x2="393.39" y2="132.32"/>
        <line class="cls-13" x1="393.39" y1="128.43" x2="393.39" y2="107.01"/>
        <line class="cls-12" x1="393.39" y1="105.06" x2="393.39" y2="103.06"/>
      </g>
      <polygon class="cls-14" points="371.99 90.8 414.94 90.8 414.78 104.59 401.52 104.59 401.57 115.32 385.11 115.32 385.04 104.59 371.83 104.59 371.99 90.8"/>
    </g>
  </g>
  <g id="Layer_1" data-name="Layer 1">
    <use id="Router-3" data-name="Router" width="126.58" height="21" transform="translate(480.23 78.63) scale(0.87 1.19)" xlink:href="#Router"/>
  </g>
  <g id="Layer_3" data-name="Layer 3">
    <use width="415.48" height="327.89" transform="translate(95.64 16.63) scale(0.14)" xlink:href="#DarkComp"/>
    <use width="415.48" height="327.89" transform="translate(182.98 129.93) scale(0.14)" xlink:href="#DarkComp"/>
    <use width="415.48" height="327.89" transform="translate(17.83 129.93) scale(0.14)" xlink:href="#DarkComp"/>
    <use width="415.48" height="327.89" transform="translate(270.31 15.94) scale(0.14)" xlink:href="#DarkComp"/>
    <use width="415.48" height="327.89" transform="translate(368.98 129.93) scale(0.14)" xlink:href="#DarkComp"/>
  </g>
</svg>
