<?xml version="1.0" encoding="UTF-8" standalone="no"?>
<!-- Created with Inkscape (http://www.inkscape.org/) -->
<svg xmlns:dc="http://purl.org/dc/elements/1.1/" xmlns:cc="http://web.resource.org/cc/" xmlns:rdf="http://www.w3.org/1999/02/22-rdf-syntax-ns#" xmlns:svg="http://www.w3.org/2000/svg" xmlns="http://www.w3.org/2000/svg" xmlns:sodipodi="http://sodipodi.sourceforge.net/DTD/sodipodi-0.dtd" xmlns:inkscape="http://www.inkscape.org/namespaces/inkscape" width="300" height="400" id="svg2" sodipodi:version="0.32" inkscape:version="0.45.1" version="1.0" sodipodi:docbase="C:\Documents and Settings\Eric\Desktop" sodipodi:docname="fttx2.svg" inkscape:output_extension="org.inkscape.output.svg.inkscape">
  <defs id="defs4">
    <filter inkscape:collect="always" id="filter14847">
      <feGaussianBlur inkscape:collect="always" stdDeviation="0.83" id="feGaussianBlur14849"/>
    </filter>
    <filter inkscape:collect="always" x="-0.028521739" width="1.0570435" y="-0.15138462" height="1.3027692" id="filter21652">
      <feGaussianBlur inkscape:collect="always" stdDeviation="0.82" id="feGaussianBlur21654"/>
    </filter>
    <filter inkscape:collect="always" id="filter24563">
      <feGaussianBlur inkscape:collect="always" stdDeviation="0.38" id="feGaussianBlur24565"/>
    </filter>
  </defs>
  <sodipodi:namedview id="base" pagecolor="#ffffff" bordercolor="#666666" borderopacity="1.0" gridtolerance="10000" guidetolerance="10" objecttolerance="10" inkscape:pageopacity="0.0" inkscape:pageshadow="2" inkscape:zoom="1" inkscape:cx="150" inkscape:cy="200" inkscape:document-units="px" inkscape:current-layer="layer1" width="300px" height="400px" showgrid="false" gridspacingx="1px" gridspacingy="1px" gridempspacing="5" inkscape:grid-points="true" inkscape:grid-bbox="false" inkscape:window-width="744" inkscape:window-height="744" inkscape:window-x="526" inkscape:window-y="-1" inkscape:object-paths="true" gridoriginx="2.5px" gridoriginy="1.5px" showguides="true" inkscape:guide-bbox="true"/>
  <metadata id="metadata7">
    <rdf:RDF>
      <cc:Work rdf:about="">
        <dc:format>image/svg+xml</dc:format>
        <dc:type rdf:resource="http://purl.org/dc/dcmitype/StillImage"/>
      </cc:Work>
    </rdf:RDF>
  </metadata>
  <g inkscape:label="Layer 1" inkscape:groupmode="layer" id="layer1">
    <path style="opacity:1;fill:#d2d7f3;fill-opacity:0.99607843;stroke:#ff0008;stroke-width:0.9999997;stroke-linejoin:miter;stroke-miterlimit:2;stroke-dasharray:0.9999997, 1.9999994;stroke-dashoffset:0;stroke-opacity:0" d="M 2.5,13.5 L 2.5,378.5 L 219.5,378.5 L 77.5,13.5 L 2.5,13.5 z " id="rect2260" sodipodi:nodetypes="ccccc"/>
    <path style="opacity:1;fill:#faf7be;fill-opacity:0.99561403;stroke:#ff0008;stroke-width:0.9999997;stroke-linejoin:miter;stroke-miterlimit:2;stroke-dasharray:0.9999997, 1.9999994;stroke-dashoffset:0;stroke-opacity:0" d="M 77.5,13.5 L 219.5,378.5 L 297.5,378.5 L 297.5,13.5 L 77.5,13.5 z " id="path2266" sodipodi:nodetypes="ccccc"/>
    <rect style="fill:#b7b7b7;fill-opacity:1;stroke:#000000;stroke-width:1;stroke-linejoin:miter;stroke-miterlimit:2;stroke-dasharray:none;stroke-dashoffset:0;stroke-opacity:1" id="rect3168" width="46.999985" height="61.000004" x="190.5" y="32.499996"/>
    <rect style="fill:#ff0000;fill-opacity:0;stroke:#000000;stroke-width:0.99999976;stroke-linejoin:miter;stroke-miterlimit:2;stroke-dasharray:0.99999976, 1.99999952;stroke-dashoffset:0;stroke-opacity:1" id="rect5108" width="36.999985" height="14" x="195.50002" y="36.499992"/>
    <rect style="fill:#ff0000;fill-opacity:0;stroke:#000000;stroke-width:0.99999982;stroke-linejoin:miter;stroke-miterlimit:2;stroke-dasharray:0.99999982, 1.99999964;stroke-dashoffset:0;stroke-opacity:1" id="rect6093" width="37" height="14.037036" x="195.5" y="53.462967"/>
    <rect style="fill:#ff0000;fill-opacity:0;stroke:#000000;stroke-width:0.99999982;stroke-linejoin:miter;stroke-miterlimit:2;stroke-dasharray:0.99999982, 1.99999964;stroke-dashoffset:0;stroke-opacity:1" id="rect6095" width="37" height="13.999999" x="195.5" y="70.5"/>
    <rect style="fill:#cdcdcd;fill-opacity:0.99561403;stroke:#000000;stroke-width:0.99999988;stroke-linejoin:miter;stroke-miterlimit:1;stroke-dasharray:none;stroke-dashoffset:0;stroke-opacity:1" id="rect6097" width="10.999969" height="13" x="208.5" y="80.5"/>
    <path style="fill:#cdcdcd;fill-opacity:0.99561403;stroke:#000000;stroke-width:0.99999982;stroke-linejoin:miter;stroke-miterlimit:2;stroke-dasharray:none;stroke-dashoffset:0;stroke-opacity:1" d="M 221.50001,81.499966 L 206.50001,81.499966 C 206.50001,78.739966 209.86001,76.499968 214.00001,76.499968 C 218.14001,76.499968 221.50001,78.739966 221.50001,81.499966 z " id="path6101" sodipodi:nodetypes="ccsc"/>
    <path id="rect2164" style="fill:#b7b7b7;fill-opacity:1;stroke:#000000;stroke-width:0.99999964;stroke-linejoin:miter;stroke-miterlimit:4;stroke-dashoffset:0;stroke-opacity:1" d="M 11.462963,76.5 L 60.537045,76.5 L 60.537045,93.5 L 11.462963,93.5 L 11.462963,76.5 z M 9.5,76.5 L 62.500005,76.5"/>
    <rect style="fill:#cdcdcd;fill-opacity:0.99561403;stroke:#000000;stroke-width:1;stroke-linejoin:miter;stroke-miterlimit:2;stroke-dasharray:none;stroke-dashoffset:0;stroke-opacity:1" id="rect3136" width="10.999969" height="13.000001" x="31.500031" y="80.5"/>
    <path id="path19712" style="fill:none;fill-rule:evenodd;stroke:#000000;stroke-width:7;stroke-linecap:butt;stroke-linejoin:miter;stroke-miterlimit:4;stroke-opacity:1" d="M 206.50001,43.5 C 204.50001,43.5 198.50001,43.5 195.50001,43.5 C 192.50001,43.5 190.50001,45.5 190.50001,48.5 C 190.50001,51.5 190.50001,80.5 190.50001,85.5 C 190.50001,90 187.50001,93.5 182.50001,93.5 C 177.50001,93.5 142.50001,93.5 142.50001,93.5 C 118.16668,93.50001 93.83334,93.5 69.50001,93.5 C 64.500005,93.5 61.500005,91.5 60.500005,89.5 C 59.500005,87.5 56.500005,85.5 51.5,85.5 C 49.5,85.5 53.5,85.5 45.5,85.5 M 206.50001,60.5 C 203.50001,60.5 198.50001,60.5 195.50001,60.5 C 192.50001,60.5 190.50001,62.5 190.50001,65.5 M 206.50001,77.5 C 203.50001,77.5 198.50001,77.5 195.50001,77.5 C 192.50001,77.5 190.50001,79.5 190.50001,82.5" sodipodi:nodetypes="cssssccssccsccsc"/>
    <path id="path6066" style="fill:none;fill-rule:evenodd;stroke:#e55918;stroke-width:5;stroke-linecap:butt;stroke-linejoin:miter;stroke-miterlimit:4;stroke-opacity:0.98026315" d="M 206.50001,43.5 C 204.50001,43.5 198.50001,43.5 195.50001,43.5 C 192.50001,43.5 190.50001,45.5 190.50001,48.5 C 190.50001,51.5 190.50001,80.5 190.50001,85.5 C 190.50001,90 187.50001,93.5 182.50001,93.5 C 177.50001,93.5 142.50001,93.5 142.50001,93.5 C 142.50001,93.5 119.49999,93.5 105.49999,93.5 M 206.50001,60.5 C 203.50001,60.5 198.50001,60.5 195.50001,60.5 C 192.50001,60.5 190.50001,62.5 190.50001,65.5 M 206.50001,77.5 C 203.50001,77.5 198.50001,77.5 195.50001,77.5 C 192.50001,77.5 190.50001,79.5 190.50001,82.5" sodipodi:nodetypes="csssscccsccsc"/>
    <path id="path9029" style="fill:none;fill-rule:evenodd;stroke:#f4cc09;stroke-width:2;stroke-linecap:butt;stroke-linejoin:miter;stroke-miterlimit:4;stroke-dasharray:none;stroke-opacity:1;filter:url(#filter14847)" d="M 206.50001,43.5 C 204.50001,43.5 198.50001,43.5 195.50001,43.5 C 192.50001,43.5 190.50001,45.5 190.50001,48.5 C 190.50001,51.5 190.50001,80.5 190.50001,85.5 C 190.50001,90 187.50001,93.5 182.50001,93.5 C 156.83334,93.5 131.16666,93.5 105.49999,93.5 M 206.50001,60.5 C 203.50001,60.5 198.50001,60.5 195.50001,60.5 C 192.50001,60.5 190.50001,62.5 190.50001,65.5 M 206.50001,77.5 C 203.50001,77.5 198.50001,77.5 195.50001,77.5 C 192.50001,77.5 190.50001,79.5 190.50001,82.5" sodipodi:nodetypes="cssscccsccsc"/>
    <rect style="fill:#b7b7b7;fill-opacity:1;stroke:#000000;stroke-width:1;stroke-linejoin:miter;stroke-miterlimit:2;stroke-dasharray:none;stroke-dashoffset:0;stroke-opacity:1" id="rect24608" width="46.999985" height="61.000004" x="190.50002" y="122.49997"/>
    <rect style="fill:#ff0000;fill-opacity:0;stroke:#000000;stroke-width:0.99999982;stroke-linejoin:miter;stroke-miterlimit:2;stroke-dasharray:0.99999982, 1.99999964;stroke-dashoffset:0;stroke-opacity:1" id="rect24610" width="36.999985" height="14" x="195.50002" y="126.49997"/>
    <rect style="fill:#ff0000;fill-opacity:0;stroke:#000000;stroke-width:0.99999982;stroke-linejoin:miter;stroke-miterlimit:2;stroke-dasharray:0.99999982, 1.99999964;stroke-dashoffset:0;stroke-opacity:1" id="rect24612" width="37" height="14.037036" x="195.50002" y="143.46295"/>
    <rect style="fill:#ff0000;fill-opacity:0;stroke:#000000;stroke-width:0.99999982;stroke-linejoin:miter;stroke-miterlimit:2;stroke-dasharray:0.99999982, 1.99999964;stroke-dashoffset:0;stroke-opacity:1" id="rect24614" width="37" height="13.999999" x="195.50002" y="160.5"/>
    <rect style="fill:#cdcdcd;fill-opacity:0.99561403;stroke:#000000;stroke-width:0.99999988;stroke-linejoin:miter;stroke-miterlimit:1;stroke-dasharray:none;stroke-dashoffset:0;stroke-opacity:1" id="rect24616" width="10.999969" height="13" x="208.50002" y="170.49998"/>
    <path style="fill:#cdcdcd;fill-opacity:0.99561403;stroke:#000000;stroke-width:0.99999982;stroke-linejoin:miter;stroke-miterlimit:2;stroke-dasharray:none;stroke-dashoffset:0;stroke-opacity:1" d="M 221.5,171.49995 L 206.5,171.49995 C 206.5,168.73995 209.86001,166.49995 214,166.49995 C 218.14,166.49995 221.5,168.73995 221.5,171.49995 z " id="path24618" sodipodi:nodetypes="ccsc"/>
    <path id="path24620" style="fill:#b7b7b7;fill-opacity:1;stroke:#000000;stroke-width:0.99999964;stroke-linejoin:miter;stroke-miterlimit:4;stroke-dashoffset:0;stroke-opacity:1" d="M 11.462963,166.49999 L 60.537045,166.49999 L 60.537045,183.49999 L 11.462963,183.49999 L 11.462963,166.49999 z M 9.5,166.49999 L 62.500005,166.49999"/>
    <rect style="fill:#cdcdcd;fill-opacity:0.99561403;stroke:#000000;stroke-width:1;stroke-linejoin:miter;stroke-miterlimit:2;stroke-dasharray:none;stroke-dashoffset:0;stroke-opacity:1" id="rect24622" width="10.999969" height="13.000001" x="31.500031" y="170.49998"/>
    <path id="path24624" style="fill:none;fill-rule:evenodd;stroke:#000000;stroke-width:7;stroke-linecap:butt;stroke-linejoin:miter;stroke-miterlimit:4;stroke-opacity:1" d="M 206.5,133.49999 C 204.5,133.49999 198.5,133.49999 195.5,133.49999 C 192.5,133.49999 190.5,135.49999 190.5,138.49999 C 190.5,141.49999 190.5,170.49999 190.5,175.49999 C 190.5,179.99999 187.5,183.49999 182.5,183.49999 C 177.5,183.49999 142.5,183.49999 142.5,183.49999 C 118.16668,183.49999 93.83333,183.49999 69.5,183.49999 C 64.500005,183.49999 61.500005,181.49999 60.500005,179.49999 C 59.500005,177.49999 56.500005,175.49999 51.5,175.49999 C 49.5,175.49999 53.5,175.49999 45.5,175.49999 M 206.5,150.49999 C 203.5,150.49999 198.5,150.49999 195.5,150.49999 C 192.5,150.49999 190.5,152.49999 190.5,155.49999 M 206.5,167.49999 C 203.5,167.49999 198.5,167.49999 195.5,167.49999 C 192.5,167.49999 190.5,169.49999 190.5,172.49999" sodipodi:nodetypes="cssssccssccsccsc"/>
    <path style="fill:none;fill-rule:evenodd;stroke:#6010d0;stroke-width:5;stroke-linecap:butt;stroke-linejoin:miter;stroke-miterlimit:4;stroke-dasharray:none;stroke-opacity:1;filter:url(#filter21652)" d="M 145.5,183.5 C 131.5,183.5 72.5,183.49999 69.5,183.49999 C 64.500005,183.49999 61.500005,181.49999 60.500005,179.49999 C 59.500005,177.49999 56.500005,175.49999 51.5,175.49999 C 49.5,175.49999 53.5,175.49999 45.5,175.49999" id="path24626" sodipodi:nodetypes="csssc"/>
    <path style="fill:none;fill-rule:evenodd;stroke:#ff0008;stroke-width:2;stroke-linecap:butt;stroke-linejoin:miter;stroke-miterlimit:4;stroke-dasharray:none;stroke-opacity:1;filter:url(#filter24563)" d="M 145.5,183.5 C 131.5,183.5 72.5,183.49999 69.5,183.49999 C 64.500005,183.49999 61.500005,181.49999 60.500005,179.49999 C 59.500005,177.49999 56.500005,175.49999 51.5,175.49999 C 49.5,175.49999 53.5,175.49999 45.5,175.49999" id="path24628" sodipodi:nodetypes="csssc"/>
    <path id="path24630" style="fill:none;fill-rule:evenodd;stroke:#e55918;stroke-width:5;stroke-linecap:butt;stroke-linejoin:miter;stroke-miterlimit:4;stroke-opacity:0.98026315" d="M 206.5,133.49999 C 204.5,133.49999 198.5,133.49999 195.5,133.49999 C 192.5,133.49999 190.5,135.49999 190.5,138.49999 C 190.5,141.49999 190.5,170.49999 190.5,175.49999 C 190.5,179.99999 187.5,183.49999 182.5,183.49999 C 156.83333,183.5 171.16667,183.5 145.5,183.5 M 206.5,150.49999 C 203.5,150.49999 198.5,150.49999 195.5,150.49999 C 192.5,150.49999 190.5,152.49999 190.5,155.49999 M 206.5,167.49999 C 203.5,167.49999 198.5,167.49999 195.5,167.49999 C 192.5,167.49999 190.5,169.49999 190.5,172.49999" sodipodi:nodetypes="cssscccsccsc"/>
    <path id="path24632" style="fill:none;fill-rule:evenodd;stroke:#f4cc09;stroke-width:2;stroke-linecap:butt;stroke-linejoin:miter;stroke-miterlimit:4;stroke-dasharray:none;stroke-opacity:1;filter:url(#filter14847)" d="M 206.5,133.49999 C 204.5,133.49999 198.5,133.49999 195.5,133.49999 C 192.5,133.49999 190.5,135.49999 190.5,138.49999 C 190.5,141.49999 190.5,170.49999 190.5,175.49999 C 190.5,179.99999 187.5,183.49999 182.5,183.49999 C 156.83333,183.49999 171.16667,183.5 145.5,183.5 M 206.5,150.49999 C 203.5,150.49999 198.5,150.49999 195.5,150.49999 C 192.5,150.49999 190.5,152.49999 190.5,155.49999 M 206.5,167.49999 C 203.5,167.49999 198.5,167.49999 195.5,167.49999 C 192.5,167.49999 190.5,169.49999 190.5,172.49999" sodipodi:nodetypes="cssscccsccsc"/>
    <rect style="fill:#b7b7b7;fill-opacity:1;stroke:#000000;stroke-width:1;stroke-linejoin:miter;stroke-miterlimit:2;stroke-dasharray:none;stroke-dashoffset:0;stroke-opacity:1" id="rect24634" width="46.999985" height="61.000004" x="190.50002" y="212.5"/>
    <rect style="fill:#ff0000;fill-opacity:0;stroke:#000000;stroke-width:0.99999982;stroke-linejoin:miter;stroke-miterlimit:2;stroke-dasharray:0.99999982, 1.99999964;stroke-dashoffset:0;stroke-opacity:1" id="rect24636" width="36.999985" height="14" x="195.50003" y="216.5"/>
    <rect style="fill:#ff0000;fill-opacity:0;stroke:#000000;stroke-width:0.99999982;stroke-linejoin:miter;stroke-miterlimit:2;stroke-dasharray:0.99999982, 1.99999964;stroke-dashoffset:0;stroke-opacity:1" id="rect24638" width="37" height="14.037036" x="195.50002" y="233.46297"/>
    <rect style="fill:#ff0000;fill-opacity:0;stroke:#000000;stroke-width:0.9999997;stroke-linejoin:miter;stroke-miterlimit:2;stroke-dasharray:0.9999997, 1.9999994;stroke-dashoffset:0;stroke-opacity:1" id="rect24640" width="37" height="13.999999" x="195.50002" y="250.5"/>
    <rect style="fill:#cdcdcd;fill-opacity:0.99561403;stroke:#000000;stroke-width:0.99999988;stroke-linejoin:miter;stroke-miterlimit:1;stroke-dasharray:none;stroke-dashoffset:0;stroke-opacity:1" id="rect24642" width="10.999969" height="13" x="208.50002" y="260.5"/>
    <path style="fill:#cdcdcd;fill-opacity:0.99561403;stroke:#000000;stroke-width:0.99999982;stroke-linejoin:miter;stroke-miterlimit:2;stroke-dasharray:none;stroke-dashoffset:0;stroke-opacity:1" d="M 221.50003,261.49996 L 206.50003,261.49996 C 206.50003,258.73996 209.86003,256.49996 214.00003,256.49996 C 218.14003,256.49996 221.50003,258.73996 221.50003,261.49996 z " id="path24644" sodipodi:nodetypes="ccsc"/>
    <path id="path24646" style="fill:#b7b7b7;fill-opacity:1;stroke:#000000;stroke-width:0.99999964;stroke-linejoin:miter;stroke-miterlimit:4;stroke-dashoffset:0;stroke-opacity:1" d="M 11.462978,256.49999 L 60.53706,256.49999 L 60.53706,273.5 L 11.462978,273.5 L 11.462978,256.49999 z M 9.500015,256.49999 L 62.50002,256.49999"/>
    <rect style="fill:#cdcdcd;fill-opacity:0.99561403;stroke:#000000;stroke-width:1;stroke-linejoin:miter;stroke-miterlimit:2;stroke-dasharray:none;stroke-dashoffset:0;stroke-opacity:1" id="rect24648" width="10.999969" height="13.000001" x="31.500046" y="260.5"/>
    <path id="path24650" style="fill:none;fill-rule:evenodd;stroke:#000000;stroke-width:7;stroke-linecap:butt;stroke-linejoin:miter;stroke-miterlimit:4;stroke-opacity:1" d="M 206.50003,223.49999 C 204.50003,223.49999 198.50003,223.49999 195.50003,223.49999 C 192.50003,223.49999 190.50003,225.49999 190.50003,228.49999 C 190.50003,231.49999 190.50004,260.49999 190.50003,265.49999 C 190.50002,270.5 187.50003,273.49999 182.50003,273.49999 C 177.50003,273.49999 142.50003,273.49999 142.50003,273.49999 C 118.1667,273.5 93.83336,273.5 69.500025,273.5 C 64.50002,273.5 61.50002,271.5 60.50002,269.5 C 59.50002,267.5 56.50002,265.5 51.500015,265.5 C 49.500015,265.5 53.500015,265.5 45.500015,265.5 M 206.50003,240.49999 C 203.50003,240.49999 198.50003,240.49999 195.50003,240.49999 C 192.50003,240.49999 190.50003,242.49999 190.50003,245.49999 M 206.50003,257.49999 C 203.50003,257.49999 198.50003,257.49999 195.50003,257.49999 C 192.50003,257.49999 190.50003,259.49999 190.50003,262.49999" sodipodi:nodetypes="cssssccssccsccsc"/>
    <path id="path24652" style="fill:none;fill-rule:evenodd;stroke:#6010d0;stroke-width:5;stroke-linecap:butt;stroke-linejoin:miter;stroke-miterlimit:4;stroke-opacity:1;filter:url(#filter21652)" d="M 190.50003,265.49999 C 190.50002,270.5 187.50003,273.49999 182.50003,273.49999 C 166.4413,273.5 99.82151,273.5 69.500025,273.5 C 64.50002,273.5 61.50002,271.5 60.50002,269.5 C 59.50002,267.5 56.50002,265.5 51.500015,265.5 C 49.500015,265.5 53.500015,265.5 45.500015,265.5" sodipodi:nodetypes="cccssc"/>
    <path style="fill:none;fill-rule:evenodd;stroke:#e55918;stroke-width:5;stroke-linecap:butt;stroke-linejoin:miter;stroke-miterlimit:4;stroke-opacity:0.98026315" d="M 206.50003,223.49999 C 204.50003,223.49999 198.50003,223.49999 195.50003,223.49999 C 192.50003,223.49999 190.50003,225.49999 190.50003,228.49999 C 190.50003,231.49999 190.50004,260.49999 190.50003,265.49999" id="path24701"/>
    <path style="fill:none;fill-rule:evenodd;stroke:#e55918;stroke-width:5;stroke-linecap:butt;stroke-linejoin:miter;stroke-miterlimit:4;stroke-opacity:0.98026315" d="M 206.50003,240.49999 C 203.50003,240.49999 198.50003,240.49999 195.50003,240.49999 C 192.50003,240.49999 190.50003,242.49999 190.50003,245.49999" id="path24699"/>
    <path style="fill:none;fill-rule:evenodd;stroke:#e55918;stroke-width:5;stroke-linecap:butt;stroke-linejoin:miter;stroke-miterlimit:4;stroke-opacity:0.98026315" d="M 206.50003,257.49999 C 203.50003,257.49999 198.50003,257.49999 195.50003,257.49999 C 192.50003,257.49999 190.50003,259.49999 190.50003,262.49999" id="path24656"/>
    <path id="path24654" style="fill:none;fill-rule:evenodd;stroke:#ff0008;stroke-width:2;stroke-linecap:butt;stroke-linejoin:miter;stroke-miterlimit:4;stroke-opacity:1;filter:url(#filter24563)" d="M 45.500015,265.5 C 53.500015,265.5 49.500015,265.5 51.500015,265.5 C 56.50002,265.5 59.50002,267.5 60.50002,269.5 C 61.50002,271.5 64.50002,273.5 69.500025,273.5 C 31.833362,273.5 220.16668,273.5 182.50002,273.5 C 187.50002,273.5 190.59542,270.46184 190.50003,265.49999" sodipodi:nodetypes="cssccc"/>
    <path style="fill:none;fill-rule:evenodd;stroke:#f4cc09;stroke-width:2;stroke-linecap:butt;stroke-linejoin:miter;stroke-miterlimit:4;stroke-dasharray:none;stroke-opacity:1;filter:url(#filter14847)" d="M 206.50003,223.49999 C 204.50003,223.49999 198.50003,223.49999 195.50003,223.49999 C 192.50003,223.49999 190.50003,225.49999 190.50003,228.49999 C 190.50003,231.49999 190.50003,260.49999 190.50003,265.49999" id="path24690"/>
    <path style="fill:none;fill-rule:evenodd;stroke:#f4cc09;stroke-width:2;stroke-linecap:butt;stroke-linejoin:miter;stroke-miterlimit:4;stroke-dasharray:none;stroke-opacity:1;filter:url(#filter14847)" d="M 206.50003,240.49999 C 203.50003,240.49999 198.50003,240.49999 195.50003,240.49999 C 192.50003,240.49999 190.50003,242.49999 190.50003,245.49999" id="path24688"/>
    <path style="fill:none;fill-rule:evenodd;stroke:#f4cc09;stroke-width:2;stroke-linecap:butt;stroke-linejoin:miter;stroke-miterlimit:4;stroke-dasharray:none;stroke-opacity:1;filter:url(#filter14847)" d="M 206.50003,257.49999 C 203.50003,257.49999 198.50003,257.49999 195.50003,257.49999 C 192.50003,257.49999 190.50003,259.49999 190.50003,262.49999" id="path24658"/>
    <rect style="fill:#b7b7b7;fill-opacity:1;stroke:#000000;stroke-width:1;stroke-linejoin:miter;stroke-miterlimit:2;stroke-dasharray:none;stroke-dashoffset:0;stroke-opacity:1" id="rect24660" width="46.999985" height="61.000004" x="190.50002" y="302.5"/>
    <rect style="fill:#ff0000;fill-opacity:0;stroke:#000000;stroke-width:0.99999982;stroke-linejoin:miter;stroke-miterlimit:2;stroke-dasharray:0.99999982, 1.99999964;stroke-dashoffset:0;stroke-opacity:1" id="rect24662" width="36.999985" height="14" x="195.50003" y="306.5"/>
    <rect style="fill:#ff0000;fill-opacity:0;stroke:#000000;stroke-width:0.99999982;stroke-linejoin:miter;stroke-miterlimit:2;stroke-dasharray:0.99999982, 1.99999964;stroke-dashoffset:0;stroke-opacity:1" id="rect24664" width="37" height="14.037036" x="195.50002" y="323.46295"/>
    <rect style="fill:#ff0000;fill-opacity:0;stroke:#000000;stroke-width:0.99999982;stroke-linejoin:miter;stroke-miterlimit:2;stroke-dasharray:0.99999982, 1.99999964;stroke-dashoffset:0;stroke-opacity:1" id="rect24666" width="37" height="13.999999" x="195.50002" y="340.5"/>
    <rect style="fill:#cdcdcd;fill-opacity:0.99561403;stroke:#000000;stroke-width:0.99999988;stroke-linejoin:miter;stroke-miterlimit:1;stroke-dasharray:none;stroke-dashoffset:0;stroke-opacity:1" id="rect24668" width="10.999969" height="13" x="208.50002" y="350.5"/>
    <path style="fill:#cdcdcd;fill-opacity:0.99561403;stroke:#000000;stroke-width:0.99999982;stroke-linejoin:miter;stroke-miterlimit:2;stroke-dasharray:none;stroke-dashoffset:0;stroke-opacity:1" d="M 221.50003,351.49995 L 206.50003,351.49995 C 206.50003,348.73995 209.86003,346.49995 214.00003,346.49995 C 218.14003,346.49995 221.50003,348.73995 221.50003,351.49995 z " id="path24670" sodipodi:nodetypes="ccsc"/>
    <path id="path24672" style="fill:#b7b7b7;fill-opacity:1;stroke:#000000;stroke-width:0.99999964;stroke-linejoin:miter;stroke-miterlimit:4;stroke-dashoffset:0;stroke-opacity:1" d="M 11.462978,346.49998 L 60.53706,346.49998 L 60.53706,363.49999 L 11.462978,363.49999 L 11.462978,346.49998 z M 9.500015,346.49998 L 62.50002,346.49998"/>
    <rect style="fill:#cdcdcd;fill-opacity:0.99561403;stroke:#000000;stroke-width:1;stroke-linejoin:miter;stroke-miterlimit:2;stroke-dasharray:none;stroke-dashoffset:0;stroke-opacity:1" id="rect24674" width="10.999969" height="13.000001" x="31.500046" y="350.5"/>
    <path id="path24676" style="fill:none;fill-rule:evenodd;stroke:#000000;stroke-width:7;stroke-linecap:butt;stroke-linejoin:miter;stroke-miterlimit:4;stroke-opacity:1" d="M 206.50003,313.49998 C 204.50003,313.49998 198.50003,313.49998 195.50003,313.49998 C 192.50003,313.49998 190.50003,315.49998 190.50003,318.49998 C 190.50003,321.49998 190.50003,350.49998 190.50003,355.49998 C 190.50003,359.99999 187.50003,363.49998 182.50003,363.49998 C 177.50003,363.49998 142.50003,363.49998 142.50003,363.49998 C 118.1667,363.49999 93.83336,363.49999 69.500025,363.49999 C 64.50002,363.49999 61.50002,361.49999 60.50002,359.49999 C 59.50002,357.49999 56.50002,355.49999 51.500015,355.49999 C 49.500015,355.49999 53.500015,355.49999 45.500015,355.49999 M 206.50003,330.49998 C 203.50003,330.49998 198.50003,330.49998 195.50003,330.49998 C 192.50003,330.49998 190.50003,332.49998 190.50003,335.49998 M 206.50003,347.49998 C 203.50003,347.49998 198.50003,347.49998 195.50003,347.49998 C 192.50003,347.49998 190.50003,349.49998 190.50003,352.49998" sodipodi:nodetypes="cssssccssccsccsc"/>
    <path id="path24678" style="fill:none;fill-rule:evenodd;stroke:#6010d0;stroke-width:5;stroke-linecap:butt;stroke-linejoin:miter;stroke-miterlimit:4;stroke-opacity:1;filter:url(#filter21652)" d="M 45.500015,355.49999 C 53.500015,355.49999 49.500015,355.49999 51.500015,355.49999 C 56.50002,355.49999 59.50002,357.49999 60.50002,359.49999 C 61.50002,361.49999 64.50002,363.49999 69.500025,363.49999 C 74.50003,363.49999 177.50003,363.49998 182.50003,363.49998 C 187.50003,363.49998 190.50003,359.99999 190.50003,355.49998 C 190.50003,350.49998 190.50003,321.49998 190.50003,318.49998 C 190.50003,315.49998 192.50003,313.49998 195.50003,313.49998 M 195.50003,330.49998 C 192.50003,330.49998 190.50003,332.49998 190.50003,335.49998 M 195.50003,347.49998 C 192.50003,347.49998 190.50003,349.49998 190.50003,352.49998" sodipodi:nodetypes="cssscssccccc"/>
    <path style="fill:none;fill-rule:evenodd;stroke:#e55918;stroke-width:5;stroke-linecap:butt;stroke-linejoin:miter;stroke-miterlimit:4;stroke-opacity:0.98026315" d="M 206.50003,313.49998 C 204.50003,313.49998 198.50003,313.49998 195.50003,313.49998" id="path24738"/>
    <path style="fill:none;fill-rule:evenodd;stroke:#e55918;stroke-width:5;stroke-linecap:butt;stroke-linejoin:miter;stroke-miterlimit:4;stroke-opacity:0.98026315" d="M 206.50003,330.49998 C 203.50003,330.49998 198.50003,330.49998 195.50003,330.49998" id="path24736"/>
    <path style="fill:none;fill-rule:evenodd;stroke:#e55918;stroke-width:5;stroke-linecap:butt;stroke-linejoin:miter;stroke-miterlimit:4;stroke-opacity:0.98026315" d="M 206.50003,347.49998 C 203.50003,347.49998 198.50003,347.49998 195.50003,347.49998" id="path24682"/>
    <path id="path24680" style="fill:none;fill-rule:evenodd;stroke:#ff0008;stroke-width:2;stroke-linecap:butt;stroke-linejoin:miter;stroke-miterlimit:4;stroke-opacity:1;filter:url(#filter24563)" d="M 195.50003,313.49998 C 192.50003,313.49998 190.50003,315.49998 190.50003,318.49998 C 190.50003,321.49998 190.50003,350.49998 190.50003,355.49998 C 190.50003,359.99999 187.50003,363.49998 182.50003,363.49998 C 144.83336,363.49999 107.1667,363.49999 69.500025,363.49999 C 64.50002,363.49999 61.50002,361.49999 60.50002,359.49999 C 59.50002,357.49999 56.50002,355.49999 51.500015,355.49999 C 49.500015,355.49999 53.500015,355.49999 45.500015,355.49999 M 195.50003,330.49998 C 192.50003,330.49998 190.50003,332.49998 190.50003,335.49998 M 195.50003,347.49998 C 192.50003,347.49998 190.50003,349.49998 190.50003,352.49998" sodipodi:nodetypes="cssccssccccc"/>
    <path style="fill:none;fill-rule:evenodd;stroke:#f4cc09;stroke-width:2;stroke-linecap:butt;stroke-linejoin:miter;stroke-miterlimit:4;stroke-dasharray:none;stroke-opacity:1;filter:url(#filter14847)" d="M 206.50003,313.49998 C 204.50003,313.49998 198.50003,313.49998 195.50003,313.49998" id="path24719"/>
    <path style="fill:none;fill-rule:evenodd;stroke:#f4cc09;stroke-width:2;stroke-linecap:butt;stroke-linejoin:miter;stroke-miterlimit:4;stroke-dasharray:none;stroke-opacity:1;filter:url(#filter14847)" d="M 206.50003,330.49998 C 203.50003,330.49998 198.50003,330.49998 195.50003,330.49998" id="path24717"/>
    <path style="fill:none;fill-rule:evenodd;stroke:#f4cc09;stroke-width:2;stroke-linecap:butt;stroke-linejoin:miter;stroke-miterlimit:4;stroke-dasharray:none;stroke-opacity:1;filter:url(#filter14847)" d="M 206.50003,347.49998 C 203.50003,347.49998 198.50003,347.49998 195.50003,347.49998" id="path24684"/>
    <path style="fill:none;fill-rule:evenodd;stroke:#6010d0;stroke-width:5;stroke-linecap:butt;stroke-linejoin:miter;stroke-miterlimit:4;stroke-dasharray:none;stroke-opacity:1;filter:url(#filter21652)" d="M 105.5,93.5 C 91.5,93.5 72.50001,93.5 69.50001,93.5 C 64.500005,93.5 61.500005,91.5 60.500005,89.5 C 59.500005,87.5 56.500005,85.5 51.5,85.5 C 49.5,85.5 53.5,85.5 45.5,85.5" id="path19710" sodipodi:nodetypes="csssc"/>
    <path style="fill:none;fill-rule:evenodd;stroke:#ff0008;stroke-width:2;stroke-linecap:butt;stroke-linejoin:miter;stroke-miterlimit:4;stroke-dasharray:none;stroke-opacity:1;filter:url(#filter24563)" d="M 105.5,93.5 C 91.5,93.5 72.50001,93.5 69.50001,93.5 C 64.500005,93.5 61.500005,91.5 60.500005,89.5 C 59.500005,87.5 56.500005,85.5 51.5,85.5 C 49.5,85.5 53.5,85.5 45.5,85.5" id="path14246" sodipodi:nodetypes="csssc"/>
    <path style="fill:none;fill-rule:evenodd;stroke:#000000;stroke-width:1px;stroke-linecap:butt;stroke-linejoin:miter;stroke-opacity:1" d="M 105.5,100.5 L 190.5,100.5" id="path24751" sodipodi:nodetypes="cc"/>
    <path style="fill:none;fill-rule:evenodd;stroke:#000000;stroke-width:1px;stroke-linecap:butt;stroke-linejoin:miter;stroke-opacity:1" d="M 105.5,98.5 L 105.5,102.5" id="path25722" sodipodi:nodetypes="cc"/>
    <path style="fill:none;fill-rule:evenodd;stroke:#000000;stroke-width:1px;stroke-linecap:butt;stroke-linejoin:miter;stroke-opacity:1" d="M 190.5,98.5 L 190.5,102.5" id="path25724" sodipodi:nodetypes="cc"/>
    <path style="fill:none;fill-rule:evenodd;stroke:#000000;stroke-width:1px;stroke-linecap:butt;stroke-linejoin:miter;stroke-opacity:1" d="M 145.5,188.5 L 145.5,192.5" id="path25726"/>
    <path style="fill:none;fill-rule:evenodd;stroke:#000000;stroke-width:1px;stroke-linecap:butt;stroke-linejoin:miter;stroke-opacity:1" d="M 190.5,188.5 L 190.5,192.5" id="path25728"/>
    <path style="fill:none;fill-rule:evenodd;stroke:#000000;stroke-width:1px;stroke-linecap:butt;stroke-linejoin:miter;stroke-opacity:1" d="M 145.5,190.5 L 190.5,190.5" id="path25730"/>
    <text xml:space="preserve" style="font-size:9px;font-style:normal;font-variant:normal;font-weight:normal;font-stretch:normal;text-align:start;line-height:100%;writing-mode:lr-tb;text-anchor:start;fill:#000000;fill-opacity:1;stroke:none;stroke-width:1px;stroke-linecap:butt;stroke-linejoin:miter;stroke-opacity:1;font-family:Arial" x="135.5" y="199.5" id="text25732" sodipodi:linespacing="100%"><tspan sodipodi:role="line" id="tspan25734" x="135.5" y="199.5">&lt;1000ft. (300m)</tspan></text>
    <text xml:space="preserve" style="font-size:9px;font-style:normal;font-variant:normal;font-weight:normal;font-stretch:normal;text-align:start;line-height:100%;writing-mode:lr-tb;text-anchor:start;fill:#000000;fill-opacity:1;stroke:none;stroke-width:1px;stroke-linecap:butt;stroke-linejoin:miter;stroke-opacity:1;font-family:Arial" x="115.5" y="109.5" id="text25736" sodipodi:linespacing="100%"><tspan sodipodi:role="line" id="tspan25738" x="115.5" y="109.5">&gt;1000ft. (300m)</tspan></text>
    <g id="g2247" transform="translate(0,23)">
      <text sodipodi:linespacing="125%" id="text25740" y="73.5" x="242.5" style="font-size:19px;font-style:normal;font-variant:normal;font-weight:normal;font-stretch:normal;text-align:start;line-height:125%;writing-mode:lr-tb;text-anchor:start;fill:#000000;fill-opacity:1;stroke:none;stroke-width:1px;stroke-linecap:butt;stroke-linejoin:miter;stroke-opacity:1;font-family:Arial" xml:space="preserve"><tspan y="73.5" x="242.5" id="tspan25742" sodipodi:role="line">FTTN</tspan></text>
      <text sodipodi:linespacing="125%" id="text25744" y="163.5" x="242.5" style="font-size:19px;font-style:normal;font-variant:normal;font-weight:normal;font-stretch:normal;text-align:start;line-height:125%;writing-mode:lr-tb;text-anchor:start;fill:#000000;fill-opacity:1;stroke:none;stroke-width:1px;stroke-linecap:butt;stroke-linejoin:miter;stroke-opacity:1;font-family:Arial" xml:space="preserve"><tspan y="163.5" x="242.5" id="tspan25746" sodipodi:role="line">FTTC</tspan></text>
      <text sodipodi:linespacing="125%" id="text25748" y="253.5" x="242.50003" style="font-size:19px;font-style:normal;font-variant:normal;font-weight:normal;font-stretch:normal;text-align:start;line-height:125%;writing-mode:lr-tb;text-anchor:start;fill:#000000;fill-opacity:1;stroke:none;stroke-width:1px;stroke-linecap:butt;stroke-linejoin:miter;stroke-opacity:1;font-family:Arial" xml:space="preserve"><tspan y="253.5" x="242.50003" id="tspan25750" sodipodi:role="line">FTTB</tspan></text>
      <text sodipodi:linespacing="125%" id="text25752" y="343.5" x="242.50003" style="font-size:19px;font-style:normal;font-variant:normal;font-weight:normal;font-stretch:normal;text-align:start;line-height:125%;writing-mode:lr-tb;text-anchor:start;fill:#000000;fill-opacity:1;stroke:none;stroke-width:1px;stroke-linecap:butt;stroke-linejoin:miter;stroke-opacity:1;font-family:Arial" xml:space="preserve"><tspan y="343.5" x="242.50003" id="tspan25754" sodipodi:role="line">FTTH</tspan></text>
    </g>
    <text xml:space="preserve" style="font-size:9px;font-style:normal;font-variant:normal;font-weight:normal;font-stretch:normal;text-align:start;line-height:100%;writing-mode:lr-tb;text-anchor:start;fill:#000000;fill-opacity:1;stroke:none;stroke-width:1px;stroke-linecap:butt;stroke-linejoin:miter;stroke-opacity:1;font-family:Arial" x="13.5" y="28.5" id="text3243" sodipodi:linespacing="100%"><tspan sodipodi:role="line" id="tspan3245" x="13.5" y="28.5">Optical fibers</tspan></text>
    <text xml:space="preserve" style="font-size:9px;font-style:normal;font-variant:normal;font-weight:normal;font-stretch:normal;text-align:start;line-height:100%;writing-mode:lr-tb;text-anchor:start;fill:#000000;fill-opacity:1;stroke:none;stroke-width:1px;stroke-linecap:butt;stroke-linejoin:miter;stroke-opacity:1;font-family:Arial" x="97.5" y="28.5" id="text3247" sodipodi:linespacing="100%"><tspan sodipodi:role="line" id="tspan3249" x="97.5" y="28.5">Metallic cables</tspan></text>
  </g>
</svg>