<svg id="svg2" xmlns="http://www.w3.org/2000/svg" viewBox="0 0 800 500">
  <defs>
    <style>
      .cls-1 {
        fill: #fff;
      }

      .cls-1, .cls-10, .cls-12, .cls-13, .cls-2, .cls-3, .cls-4, .cls-5, .cls-6, .cls-7, .cls-8, .cls-9 {
        stroke: #fff;
      }

      .cls-1, .cls-10, .cls-4, .cls-5, .cls-6, .cls-7, .cls-8 {
        stroke-linecap: round;
      }

      .cls-1, .cls-10, .cls-4 {
        stroke-linejoin: round;
      }

      .cls-1, .cls-4, .cls-9 {
        stroke-width: 2px;
      }

      .cls-2, .cls-7 {
        fill: #811e84;
      }

      .cls-12, .cls-13, .cls-2, .cls-3 {
        stroke-miterlimit: 10;
      }

      .cls-3, .cls-4, .cls-8 {
        fill: #2c6b15;
      }

      .cls-5 {
        fill: #2e6864;
      }

      .cls-5, .cls-7 {
        stroke-width: 2px;
      }

      .cls-13, .cls-6 {
        fill: #212166;
      }

      .cls-6 {
        stroke-width: 2.01px;
      }

      .cls-8 {
        stroke-width: 2px;
      }

      .cls-10, .cls-9 {
        fill: none;
      }

      .cls-10 {
        stroke-width: 2.02px;
      }

      .cls-11 {
        isolation: isolate;
      }

      .cls-12 {
        fill: #f5f7f7;
      }
    </style>
  </defs>
  <title>IPModel</title>
  <g id="layer1">
    <rect id="rect2837" class="cls-1" x="120" y="380" width="290" height="100"/>
    <rect id="rect8030" class="cls-2" x="220.57" y="260.58" width="100" height="99.55"/>
    <polygon id="rect4148" class="cls-3" points="320.26 260.58 409.13 260.58 409.31 360.38 320.44 360.38 320.26 260.58"/>
    <rect id="rect2833" class="cls-4" x="320" y="140" width="90" height="100"/>
    <rect id="rect1872" class="cls-5" x="20" y="380" width="100" height="100"/>
    <rect id="rect2761" class="cls-6" x="119.99" y="259.99" width="99.72" height="101.13"/>
    <rect id="rect2763" class="cls-7" x="220" y="140" width="100" height="100"/>
    <rect id="rect2765" class="cls-8" x="320" y="21" width="90" height="100"/>
    <path id="path2767" class="cls-9" d="M120,480H410"/>
    <rect id="rect2769" class="cls-5" x="410" y="380" width="100" height="100"/>
    <path id="path2771" class="cls-9" d="M120,380H410"/>
    <path id="path2773" class="cls-9" d="M120,360v20"/>
    <path id="path2777" class="cls-9" d="M410,360v20"/>
    <path id="path2779" class="cls-9" d="M220,240v20"/>
    <path id="path2783" class="cls-9" d="M410,260V360"/>
    <rect id="rect2835" class="cls-10" x="219.7" y="259.76" width="190.67" height="101.3"/>
    <path id="path2785" class="cls-9" d="M410,260V240"/>
    <path id="path2787" class="cls-9" d="M410,240H320"/>
    <path id="path2789" class="cls-9" d="M320,120v20"/>
    <path id="path2791" class="cls-9" d="M320,140h90"/>
    <path id="path2793" class="cls-9" d="M410,140V120"/>
    <path id="path2795" class="cls-9" d="M410,140V240"/>
    <g id="text1888" class="cls-11">
      <g class="cls-11">
        <path class="cls-12" d="M334,79.36V61.58A1.63,1.63,0,0,1,335.63,60h9a4.76,4.76,0,0,1,4.76,4.76V76.22A4.77,4.77,0,0,1,344.62,81h-9A1.62,1.62,0,0,1,334,79.36Zm10.61-.78a2.13,2.13,0,0,0,2.13-2.13v-12a2.13,2.13,0,0,0-2.13-2.13h-7.45a.51.51,0,0,0-.53.53V78a.53.53,0,0,0,.53.53Z"/>
        <path class="cls-12" d="M363.72,70.9v9.18a.88.88,0,0,1-.9.9h-6.55a4.07,4.07,0,0,1-4.09-4.09V76a4.07,4.07,0,0,1,4.09-4.09H361a.31.31,0,0,0,.31-.31v-.7a1.58,1.58,0,0,0-1.68-1.65h-5.57a.31.31,0,0,1-.31-.31V67h5.88A3.78,3.78,0,0,1,363.72,70.9Zm-7.45,7.7H361a.29.29,0,0,0,.28-.31V73.84a.9.9,0,0,1-.73.42h-4.31a1.64,1.64,0,0,0-1.65,1.65v1A1.64,1.64,0,0,0,356.27,78.6Z"/>
        <path class="cls-12" d="M374,79v2h-2.83a4.09,4.09,0,0,1-4.09-4.09V60.21h2.13a.31.31,0,0,1,.31.31v7a.87.87,0,0,1,.81-.5h3v2a.29.29,0,0,1-.31.28h-3.47V77a1.64,1.64,0,0,0,1.65,1.65h2.52A.31.31,0,0,1,374,79Z"/>
        <path class="cls-12" d="M387.52,70.9v9.18a.88.88,0,0,1-.9.9h-6.55A4.07,4.07,0,0,1,376,76.89V76a4.07,4.07,0,0,1,4.09-4.09h4.73a.31.31,0,0,0,.31-.31v-.7a1.58,1.58,0,0,0-1.68-1.65h-5.57a.31.31,0,0,1-.31-.31V67h5.88A3.78,3.78,0,0,1,387.52,70.9Zm-7.45,7.7h4.76a.29.29,0,0,0,.28-.31V73.84a.9.9,0,0,1-.73.42h-4.31a1.64,1.64,0,0,0-1.65,1.65v1A1.64,1.64,0,0,0,380.07,78.6Z"/>
      </g>
    </g>
    <g id="text1892" class="cls-11">
      <g class="cls-11">
        <path class="cls-12" d="M333.84,178.61V162.23h2.27a.37.37,0,0,1,.36.36v16.24A2.13,2.13,0,0,0,338.6,181h6.33a2.13,2.13,0,0,0,2.13-2.13V162.6a.37.37,0,0,1,.36-.36h2.27v16.38a4.77,4.77,0,0,1-4.76,4.76H338.6A4.76,4.76,0,0,1,333.84,178.61Z"/>
        <path class="cls-12" d="M353.16,181.64V163.86a1.63,1.63,0,0,1,1.62-1.62h9a4.76,4.76,0,0,1,4.76,4.76V178.5a4.77,4.77,0,0,1-4.76,4.76h-9A1.62,1.62,0,0,1,353.16,181.64Zm10.61-.78a2.13,2.13,0,0,0,2.13-2.13v-12a2.13,2.13,0,0,0-2.13-2.13h-7.45a.51.51,0,0,0-.53.53v15.15a.53.53,0,0,0,.53.53Z"/>
        <path class="cls-12" d="M387,167v2.77a4.77,4.77,0,0,1-4.76,4.76h-6.13a1.51,1.51,0,0,1-1.62-1.12v9.49a.37.37,0,0,1-.36.36h-2.27v-19.4a1.63,1.63,0,0,1,1.62-1.62h8.76A4.77,4.77,0,0,1,387,167Zm-2.63-.22a2.13,2.13,0,0,0-2.13-2.13H375a.53.53,0,0,0-.53.53v6.41a.55.55,0,0,0,.53.53h7.22a2.13,2.13,0,0,0,2.13-2.13Z"/>
      </g>
      <g class="cls-11">
        <path class="cls-12" d="M340.2,204.26h3.25a2.37,2.37,0,0,1,1.93.9v-7.59a.31.31,0,0,1,.31-.31h2.13v20.1a.88.88,0,0,1-.9.9h-6.66a4.07,4.07,0,0,1-4.09-4.09v-5.82A4,4,0,0,1,340.2,204.26Zm-1.6,10a1.64,1.64,0,0,0,1.65,1.65h4.82a.29.29,0,0,0,.31-.28V208a1.55,1.55,0,0,0-1.34-1.43h-3.78a1.64,1.64,0,0,0-1.65,1.65Z"/>
        <path class="cls-12" d="M362.21,208.18v9.18a.88.88,0,0,1-.9.9h-6.55a4.07,4.07,0,0,1-4.09-4.09v-.87a4.07,4.07,0,0,1,4.09-4.09h4.73a.31.31,0,0,0,.31-.31v-.7a1.58,1.58,0,0,0-1.68-1.65h-5.57a.31.31,0,0,1-.31-.31v-2h5.88A3.78,3.78,0,0,1,362.21,208.18Zm-7.45,7.7h4.76a.29.29,0,0,0,.28-.31v-4.45a.9.9,0,0,1-.73.42h-4.31a1.64,1.64,0,0,0-1.65,1.65v1A1.64,1.64,0,0,0,354.76,215.88Z"/>
        <path class="cls-12" d="M372.48,216.25v2h-2.83a4.09,4.09,0,0,1-4.09-4.09V197.49h2.13a.31.31,0,0,1,.31.31v7a.87.87,0,0,1,.81-.5h3v2a.29.29,0,0,1-.31.28H368v7.7a1.64,1.64,0,0,0,1.65,1.65h2.52A.31.31,0,0,1,372.48,216.25Z"/>
        <path class="cls-12" d="M386,208.18v9.18a.88.88,0,0,1-.9.9h-6.55a4.07,4.07,0,0,1-4.09-4.09v-.87a4.07,4.07,0,0,1,4.09-4.09h4.73a.31.31,0,0,0,.31-.31v-.7a1.58,1.58,0,0,0-1.68-1.65h-5.57a.31.31,0,0,1-.31-.31v-2h5.88A3.78,3.78,0,0,1,386,208.18Zm-7.45,7.7h4.76a.29.29,0,0,0,.28-.31v-4.45a.9.9,0,0,1-.73.42h-4.31a1.64,1.64,0,0,0-1.65,1.65v1A1.64,1.64,0,0,0,378.56,215.88Z"/>
      </g>
    </g>
    <g id="text1898" class="cls-11">
      <g class="cls-11">
        <path class="cls-12" d="M239,179.39V163h2.27a.37.37,0,0,1,.36.36v16.24a2.13,2.13,0,0,0,2.13,2.13h6.33a2.13,2.13,0,0,0,2.13-2.13V163.37a.37.37,0,0,1,.36-.36h2.27v16.38a4.77,4.77,0,0,1-4.76,4.76h-6.33A4.76,4.76,0,0,1,239,179.39Z"/>
        <path class="cls-12" d="M258.29,182.41V164.63a1.63,1.63,0,0,1,1.62-1.62h9a4.76,4.76,0,0,1,4.76,4.76v11.51A4.77,4.77,0,0,1,268.9,184h-9A1.62,1.62,0,0,1,258.29,182.41Zm10.61-.78A2.13,2.13,0,0,0,271,179.5v-12a2.13,2.13,0,0,0-2.13-2.13h-7.45a.51.51,0,0,0-.53.53V181.1a.53.53,0,0,0,.53.53Z"/>
        <path class="cls-12" d="M292.14,167.77v2.77a4.77,4.77,0,0,1-4.76,4.76h-6.13a1.51,1.51,0,0,1-1.62-1.12v9.49a.37.37,0,0,1-.36.36H277v-19.4a1.63,1.63,0,0,1,1.62-1.62h8.76A4.77,4.77,0,0,1,292.14,167.77Zm-2.63-.22a2.13,2.13,0,0,0-2.13-2.13h-7.22a.53.53,0,0,0-.53.53v6.41a.55.55,0,0,0,.53.53h7.22a2.13,2.13,0,0,0,2.13-2.13Z"/>
      </g>
      <g class="cls-11">
        <path class="cls-12" d="M226,198h2.13a.31.31,0,0,1,.31.31v7.59a2.35,2.35,0,0,1,1.9-.9h3.56A3.6,3.6,0,0,1,237.8,209V219h-2.13a.31.31,0,0,1-.31-.31V209a1.64,1.64,0,0,0-1.65-1.65H229.8a1.53,1.53,0,0,0-1.34,1.43V219h-2.13a.31.31,0,0,1-.31-.31Z"/>
        <path class="cls-12" d="M241.08,214.95V209a3.79,3.79,0,0,1,4.09-4h3.75a3.79,3.79,0,0,1,4.09,4v3.22c0,.48-.06.87-.73.87h-7.67a1.34,1.34,0,0,1-1.09-.53v2.49a1.64,1.64,0,0,0,1.65,1.65h6.94a.31.31,0,0,1,.31.31v2h-7.25A4.07,4.07,0,0,1,241.08,214.95Zm4.09-7.62a1.53,1.53,0,0,0-1.65,1.65v1.51a.3.3,0,0,0,.28.31h6.52a.31.31,0,0,0,.31-.31V209a1.44,1.44,0,0,0-1.62-1.65Z"/>
        <path class="cls-12" d="M267.43,209v9.18a.88.88,0,0,1-.9.9H260a4.07,4.07,0,0,1-4.09-4.09v-.87A4.07,4.07,0,0,1,260,210h4.73a.31.31,0,0,0,.31-.31V209a1.58,1.58,0,0,0-1.68-1.65h-5.57a.31.31,0,0,1-.31-.31v-2h5.88A3.78,3.78,0,0,1,267.43,209Zm-7.45,7.7h4.76a.29.29,0,0,0,.28-.31V211.9a.9.9,0,0,1-.73.42H260a1.64,1.64,0,0,0-1.65,1.65v1A1.64,1.64,0,0,0,260,216.66Z"/>
        <path class="cls-12" d="M274.57,205h3.25a2.37,2.37,0,0,1,1.93.9v-7.59a.31.31,0,0,1,.31-.31h2.13v20.1a.88.88,0,0,1-.9.9h-6.66a4.07,4.07,0,0,1-4.09-4.09v-5.82A4,4,0,0,1,274.57,205Zm-1.6,10a1.64,1.64,0,0,0,1.65,1.65h4.82a.29.29,0,0,0,.31-.28v-7.64a1.55,1.55,0,0,0-1.34-1.43h-3.78A1.64,1.64,0,0,0,273,209Z"/>
        <path class="cls-12" d="M285.57,214.95V209a3.79,3.79,0,0,1,4.09-4h3.75a3.79,3.79,0,0,1,4.09,4v3.22c0,.48-.06.87-.73.87H289.1a1.34,1.34,0,0,1-1.09-.53v2.49a1.64,1.64,0,0,0,1.65,1.65h6.94a.31.31,0,0,1,.31.31v2h-7.25A4.07,4.07,0,0,1,285.57,214.95Zm4.09-7.62A1.53,1.53,0,0,0,288,209v1.51a.3.3,0,0,0,.28.31h6.52a.31.31,0,0,0,.31-.31V209a1.44,1.44,0,0,0-1.62-1.65Z"/>
        <path class="cls-12" d="M308.5,205v2a.31.31,0,0,1-.31.31h-3.5a1.35,1.35,0,0,0-1.34,1.26V219h-2.13a.31.31,0,0,1-.31-.31V205H303a.29.29,0,0,1,.31.28v.62a2.35,2.35,0,0,1,1.9-.9Z"/>
      </g>
    </g>
    <g id="text1904" class="cls-11">
      <g class="cls-11">
        <path class="cls-12" d="M156.13,301.07V280.4h2.27a.37.37,0,0,1,.36.36v20.66h-2.27A.37.37,0,0,1,156.13,301.07Z"/>
        <path class="cls-12" d="M177.72,285.16v2.77A4.77,4.77,0,0,1,173,292.7h-6.13a1.51,1.51,0,0,1-1.62-1.12v9.49a.37.37,0,0,1-.36.36h-2.27V282a1.63,1.63,0,0,1,1.62-1.62H173A4.77,4.77,0,0,1,177.72,285.16Zm-2.63-.22a2.13,2.13,0,0,0-2.13-2.13h-7.22a.53.53,0,0,0-.53.53v6.41a.55.55,0,0,0,.53.53H173a2.13,2.13,0,0,0,2.13-2.13Z"/>
      </g>
      <g class="cls-11">
        <path class="cls-12" d="M126,315.43h2.13a.31.31,0,0,1,.31.31v7.59a2.35,2.35,0,0,1,1.9-.9h3.56a3.6,3.6,0,0,1,3.89,3.92v10.08h-2.13a.31.31,0,0,1-.31-.31v-9.72a1.64,1.64,0,0,0-1.65-1.65H129.8a1.53,1.53,0,0,0-1.34,1.43v10.25h-2.13a.31.31,0,0,1-.31-.31Z"/>
        <path class="cls-12" d="M141.08,332.34v-5.94a3.79,3.79,0,0,1,4.09-4h3.75a3.79,3.79,0,0,1,4.09,4v3.22c0,.48-.06.87-.73.87h-7.67a1.34,1.34,0,0,1-1.09-.53v2.49a1.64,1.64,0,0,0,1.65,1.65h6.94a.31.31,0,0,1,.31.31v2h-7.25A4.07,4.07,0,0,1,141.08,332.34Zm4.09-7.62a1.53,1.53,0,0,0-1.65,1.65v1.51a.3.3,0,0,0,.28.31h6.52a.31.31,0,0,0,.31-.31v-1.51a1.44,1.44,0,0,0-1.62-1.65Z"/>
        <path class="cls-12" d="M167.43,326.35v9.18a.88.88,0,0,1-.9.9H160a4.07,4.07,0,0,1-4.09-4.09v-.87a4.07,4.07,0,0,1,4.09-4.09h4.73a.31.31,0,0,0,.31-.31v-.7a1.58,1.58,0,0,0-1.68-1.65h-5.57a.31.31,0,0,1-.31-.31v-2h5.88A3.78,3.78,0,0,1,167.43,326.35Zm-7.45,7.7h4.76a.29.29,0,0,0,.28-.31v-4.45a.9.9,0,0,1-.73.42H160a1.64,1.64,0,0,0-1.65,1.65v1A1.64,1.64,0,0,0,160,334.05Z"/>
        <path class="cls-12" d="M174.57,322.43h3.25a2.37,2.37,0,0,1,1.93.9v-7.59a.31.31,0,0,1,.31-.31h2.13v20.1a.88.88,0,0,1-.9.9h-6.66a4.07,4.07,0,0,1-4.09-4.09v-5.82A4,4,0,0,1,174.57,322.43Zm-1.6,10a1.64,1.64,0,0,0,1.65,1.65h4.82a.29.29,0,0,0,.31-.28v-7.64a1.55,1.55,0,0,0-1.34-1.43h-3.78a1.64,1.64,0,0,0-1.65,1.65Z"/>
        <path class="cls-12" d="M185.57,332.34v-5.94a3.79,3.79,0,0,1,4.09-4h3.75a3.79,3.79,0,0,1,4.09,4v3.22c0,.48-.06.87-.73.87H189.1A1.34,1.34,0,0,1,188,330v2.49a1.64,1.64,0,0,0,1.65,1.65h6.94a.31.31,0,0,1,.31.31v2h-7.25A4.07,4.07,0,0,1,185.57,332.34Zm4.09-7.62a1.53,1.53,0,0,0-1.65,1.65v1.51a.3.3,0,0,0,.28.31h6.52a.31.31,0,0,0,.31-.31v-1.51a1.44,1.44,0,0,0-1.62-1.65Z"/>
        <path class="cls-12" d="M208.5,322.43v2a.31.31,0,0,1-.31.31h-3.5a1.35,1.35,0,0,0-1.34,1.26v10.42h-2.13a.31.31,0,0,1-.31-.31V322.43H203a.29.29,0,0,1,.31.28v.62a2.35,2.35,0,0,1,1.9-.9Z"/>
      </g>
    </g>
    <g id="text1910" class="cls-11">
      <g class="cls-11">
        <path class="cls-12" d="M42,402.38v2a.37.37,0,0,1-.36.36H32.58a2.13,2.13,0,0,0-2.13,2.13v5.38a1.79,1.79,0,0,1,1.4-.62h9.52v2a.37.37,0,0,1-.36.36H30.45v9a.37.37,0,0,1-.36.36H27.82V407.14a4.76,4.76,0,0,1,4.76-4.76Z"/>
        <path class="cls-12" d="M52,409.41v2a.31.31,0,0,1-.31.31h-3.5A1.35,1.35,0,0,0,46.8,413v10.42H44.68a.31.31,0,0,1-.31-.31V409.41H46.5a.29.29,0,0,1,.31.28v.62a2.35,2.35,0,0,1,1.9-.9Z"/>
        <path class="cls-12" d="M64.84,413.33v9.18a.88.88,0,0,1-.9.9H57.39a4.07,4.07,0,0,1-4.09-4.09v-.87a4.07,4.07,0,0,1,4.09-4.09h4.73a.31.31,0,0,0,.31-.31v-.7a1.58,1.58,0,0,0-1.68-1.65H55.18a.31.31,0,0,1-.31-.31v-2h5.88A3.78,3.78,0,0,1,64.84,413.33ZM57.39,421h4.76a.29.29,0,0,0,.28-.31v-4.45a.9.9,0,0,1-.73.42H57.39a1.64,1.64,0,0,0-1.65,1.65v1A1.64,1.64,0,0,0,57.39,421Z"/>
        <path class="cls-12" d="M85.14,413.49v9.91H83a.31.31,0,0,1-.31-.31v-9.74A1.65,1.65,0,0,0,81,411.7H77.41a1,1,0,0,1,.5.78v10.92H75.78a.31.31,0,0,1-.31-.31V412a.31.31,0,0,0-.31-.31H70.94a.3.3,0,0,0-.28.25V423.1a.31.31,0,0,1-.31.31H68.22V411.23A1.82,1.82,0,0,1,70,409.41H81A4.07,4.07,0,0,1,85.14,413.49Z"/>
        <path class="cls-12" d="M88.47,419.32v-5.94a3.79,3.79,0,0,1,4.09-4h3.75a3.79,3.79,0,0,1,4.09,4v3.22c0,.48-.06.87-.73.87H92a1.34,1.34,0,0,1-1.09-.53v2.49a1.64,1.64,0,0,0,1.65,1.65H99.5a.31.31,0,0,1,.31.31v2H92.56A4.07,4.07,0,0,1,88.47,419.32Zm4.09-7.62a1.53,1.53,0,0,0-1.65,1.65v1.51a.3.3,0,0,0,.28.31h6.52a.31.31,0,0,0,.31-.31v-1.51a1.44,1.44,0,0,0-1.62-1.65Z"/>
      </g>
      <g class="cls-11">
        <path class="cls-12" d="M26,437.41h2.13a.31.31,0,0,1,.31.31v7.59a2.35,2.35,0,0,1,1.9-.9h3.56a3.6,3.6,0,0,1,3.89,3.92v10.08H35.68a.31.31,0,0,1-.31-.31v-9.72a1.64,1.64,0,0,0-1.65-1.65H29.8a1.53,1.53,0,0,0-1.34,1.43v10.25H26.32a.31.31,0,0,1-.31-.31Z"/>
        <path class="cls-12" d="M41.08,454.32v-5.94a3.79,3.79,0,0,1,4.09-4h3.75a3.79,3.79,0,0,1,4.09,4v3.22c0,.48-.06.87-.73.87H44.61a1.34,1.34,0,0,1-1.09-.53v2.49a1.64,1.64,0,0,0,1.65,1.65h6.94a.31.31,0,0,1,.31.31v2H45.17A4.07,4.07,0,0,1,41.08,454.32Zm4.09-7.62a1.53,1.53,0,0,0-1.65,1.65v1.51a.3.3,0,0,0,.28.31h6.52a.31.31,0,0,0,.31-.31v-1.51A1.44,1.44,0,0,0,49,446.7Z"/>
        <path class="cls-12" d="M67.43,448.33v9.18a.88.88,0,0,1-.9.9H60a4.07,4.07,0,0,1-4.09-4.09v-.87A4.07,4.07,0,0,1,60,449.36h4.73a.31.31,0,0,0,.31-.31v-.7a1.58,1.58,0,0,0-1.68-1.65H57.77a.31.31,0,0,1-.31-.31v-2h5.88A3.78,3.78,0,0,1,67.43,448.33ZM60,456h4.76a.29.29,0,0,0,.28-.31v-4.45a.9.9,0,0,1-.73.42H60a1.64,1.64,0,0,0-1.65,1.65v1A1.64,1.64,0,0,0,60,456Z"/>
        <path class="cls-12" d="M74.57,444.41h3.25a2.37,2.37,0,0,1,1.93.9v-7.59a.31.31,0,0,1,.31-.31h2.13v20.1a.88.88,0,0,1-.9.9H74.62a4.07,4.07,0,0,1-4.09-4.09v-5.82A4,4,0,0,1,74.57,444.41Zm-1.6,10a1.64,1.64,0,0,0,1.65,1.65h4.82a.29.29,0,0,0,.31-.28v-7.64a1.55,1.55,0,0,0-1.34-1.43H74.62A1.64,1.64,0,0,0,73,448.38Z"/>
        <path class="cls-12" d="M85.57,454.32v-5.94a3.79,3.79,0,0,1,4.09-4h3.75a3.79,3.79,0,0,1,4.09,4v3.22c0,.48-.06.87-.73.87H89.1a1.34,1.34,0,0,1-1.09-.53v2.49a1.64,1.64,0,0,0,1.65,1.65H96.6a.31.31,0,0,1,.31.31v2H89.66A4.07,4.07,0,0,1,85.57,454.32Zm4.09-7.62A1.53,1.53,0,0,0,88,448.35v1.51a.3.3,0,0,0,.28.31h6.52a.31.31,0,0,0,.31-.31v-1.51a1.44,1.44,0,0,0-1.62-1.65Z"/>
        <path class="cls-12" d="M108.5,444.41v2a.31.31,0,0,1-.31.31h-3.5a1.35,1.35,0,0,0-1.34,1.26v10.42h-2.13a.31.31,0,0,1-.31-.31V444.41H103a.29.29,0,0,1,.31.28v.62a2.35,2.35,0,0,1,1.9-.9Z"/>
      </g>
    </g>
    <g id="text1916" class="cls-11">
      <g class="cls-11">
        <path class="cls-12" d="M431.76,401.58v2a.37.37,0,0,1-.36.36h-9.07a2.13,2.13,0,0,0-2.13,2.13v5.38a1.79,1.79,0,0,1,1.4-.62h9.52v2a.37.37,0,0,1-.36.36H420.2v9a.37.37,0,0,1-.36.36h-2.27V406.34a4.76,4.76,0,0,1,4.76-4.76Z"/>
        <path class="cls-12" d="M441.7,408.61v2a.31.31,0,0,1-.31.31h-3.5a1.35,1.35,0,0,0-1.34,1.26v10.42h-2.13a.31.31,0,0,1-.31-.31V408.61h2.13a.29.29,0,0,1,.31.28v.62a2.35,2.35,0,0,1,1.9-.9Z"/>
        <path class="cls-12" d="M454.58,412.53v9.18a.88.88,0,0,1-.9.9h-6.55a4.07,4.07,0,0,1-4.09-4.09v-.87a4.07,4.07,0,0,1,4.09-4.09h4.73a.31.31,0,0,0,.31-.31v-.7a1.58,1.58,0,0,0-1.68-1.65h-5.57a.31.31,0,0,1-.31-.31v-2h5.88A3.78,3.78,0,0,1,454.58,412.53Zm-7.45,7.7h4.76a.29.29,0,0,0,.28-.31v-4.45a.9.9,0,0,1-.73.42h-4.31a1.64,1.64,0,0,0-1.65,1.65v1A1.64,1.64,0,0,0,447.13,420.23Z"/>
        <path class="cls-12" d="M474.88,412.69v9.91h-2.13a.31.31,0,0,1-.31-.31v-9.74a1.65,1.65,0,0,0-1.65-1.65h-3.64a1,1,0,0,1,.5.78v10.92h-2.13a.31.31,0,0,1-.31-.31V411.21a.31.31,0,0,0-.31-.31h-4.23a.3.3,0,0,0-.28.25V422.3a.31.31,0,0,1-.31.31H458V410.43a1.82,1.82,0,0,1,1.82-1.82h11A4.08,4.08,0,0,1,474.88,412.69Z"/>
        <path class="cls-12" d="M478.21,418.52v-5.94a3.79,3.79,0,0,1,4.09-4h3.75a3.79,3.79,0,0,1,4.09,4v3.22c0,.48-.06.87-.73.87h-7.67a1.34,1.34,0,0,1-1.09-.53v2.49a1.64,1.64,0,0,0,1.65,1.65h6.94a.31.31,0,0,1,.31.31v2H482.3A4.07,4.07,0,0,1,478.21,418.52Zm4.09-7.62a1.53,1.53,0,0,0-1.65,1.65v1.51a.3.3,0,0,0,.28.31h6.52a.31.31,0,0,0,.31-.31v-1.51a1.44,1.44,0,0,0-1.62-1.65Z"/>
      </g>
      <g class="cls-11">
        <path class="cls-12" d="M429.92,436.52v2a.31.31,0,0,1-.31.31h-2.52a1.64,1.64,0,0,0-1.65,1.65v3.61a.85.85,0,0,1,.76-.42h2.74v2a.29.29,0,0,1-.31.28h-3.19V457.3a.31.31,0,0,1-.31.31H423v-17a4.07,4.07,0,0,1,4.09-4.09Z"/>
        <path class="cls-12" d="M435.35,457.8a4.07,4.07,0,0,1-4.09-4.09V447.5a4.09,4.09,0,0,1,4.09-4.09H439a4.12,4.12,0,0,1,4.12,4.09v6.22A4.1,4.1,0,0,1,439,457.8Zm-1.65-10.42v6.44a1.66,1.66,0,0,0,1.65,1.68H439a1.69,1.69,0,0,0,1.68-1.68v-6.44a1.68,1.68,0,0,0-1.68-1.65h-3.7A1.66,1.66,0,0,0,433.7,447.39Z"/>
        <path class="cls-12" d="M450.58,457.8a4.08,4.08,0,0,1-4.09-4.09V447.5a4.09,4.09,0,0,1,4.09-4.09h3.7a4.12,4.12,0,0,1,4.12,4.09v6.22a4.1,4.1,0,0,1-4.12,4.09Zm-1.65-10.42v6.44a1.66,1.66,0,0,0,1.65,1.68h3.7a1.69,1.69,0,0,0,1.68-1.68v-6.44a1.68,1.68,0,0,0-1.68-1.65h-3.7A1.65,1.65,0,0,0,448.93,447.39Z"/>
        <path class="cls-12" d="M468.72,455.59v2H465.9a4.09,4.09,0,0,1-4.09-4.09V436.83h2.13a.31.31,0,0,1,.31.31v7a.87.87,0,0,1,.81-.5h3v2a.29.29,0,0,1-.31.28h-3.47v7.7a1.64,1.64,0,0,0,1.65,1.65h2.52A.31.31,0,0,1,468.72,455.59Z"/>
        <path class="cls-12" d="M471.24,453.52v-5.94a3.79,3.79,0,0,1,4.09-4h3.75a3.79,3.79,0,0,1,4.09,4v3.22c0,.48-.06.87-.73.87h-7.67a1.34,1.34,0,0,1-1.09-.53v2.49a1.64,1.64,0,0,0,1.65,1.65h6.94a.31.31,0,0,1,.31.31v2h-7.25A4.07,4.07,0,0,1,471.24,453.52Zm4.09-7.62a1.53,1.53,0,0,0-1.65,1.65v1.51a.3.3,0,0,0,.28.31h6.52a.31.31,0,0,0,.31-.31v-1.51a1.44,1.44,0,0,0-1.62-1.65Z"/>
        <path class="cls-12" d="M494.18,443.61v2a.31.31,0,0,1-.31.31h-3.5a1.35,1.35,0,0,0-1.34,1.26v10.42H486.9a.31.31,0,0,1-.31-.31V443.61h2.13a.29.29,0,0,1,.31.28v.62a2.35,2.35,0,0,1,1.9-.9Z"/>
      </g>
    </g>
    <g id="text1930" class="cls-11">
      <g class="cls-11">
        <path class="cls-12" d="M571.5,435.14V419.32a.37.37,0,0,1,.36-.36h2.27v16.44a2.18,2.18,0,0,0,2.16,2.18H585a.37.37,0,0,1,.36.36v2h-9.1A4.83,4.83,0,0,1,571.5,435.14Z"/>
        <path class="cls-12" d="M590.15,420v2.3H588a.31.31,0,0,1-.31-.31v-2.3h2.13A.31.31,0,0,1,590.15,420Zm0,6.24V440H588a.31.31,0,0,1-.31-.31V426h2.13A.29.29,0,0,1,590.15,426.26Z"/>
        <path class="cls-12" d="M605.58,430.07V440h-2.13a.31.31,0,0,1-.31-.31v-9.74a1.66,1.66,0,0,0-1.65-1.65h-5.07a.31.31,0,0,0-.31.31v11.09a.31.31,0,0,1-.31.31h-2.13V427.8A1.82,1.82,0,0,1,595.5,426h6A4.08,4.08,0,0,1,605.58,430.07Z"/>
        <path class="cls-12" d="M620.75,440h-2.41a.5.5,0,0,1-.45-.28l-2.74-5.52h-3.39a.31.31,0,0,0-.31.31v5.18a.31.31,0,0,1-.31.31H609V419.21h2.13a.31.31,0,0,1,.31.31v12.85a.84.84,0,0,1,.76-.48h3.44a1.66,1.66,0,0,0,1.65-1.68v-3.92a.31.31,0,0,1,.31-.31h2.13v4.12a4.06,4.06,0,0,1-2.13,3.58Z"/>
      </g>
    </g>
    <g id="text1934" class="cls-11">
      <g class="cls-11">
        <path class="cls-12" d="M550.37,318.43V297.76h2.27a.37.37,0,0,1,.36.36v20.66h-2.27A.37.37,0,0,1,550.37,318.43Z"/>
        <path class="cls-12" d="M568.71,308.88v9.91h-2.13a.31.31,0,0,1-.31-.31v-9.74a1.66,1.66,0,0,0-1.65-1.65h-5.07a.31.31,0,0,0-.31.31v11.09a.31.31,0,0,1-.31.31h-2.13V306.61a1.82,1.82,0,0,1,1.82-1.82h6A4.08,4.08,0,0,1,568.71,308.88Z"/>
        <path class="cls-12" d="M579.1,316.78v2h-2.83a4.09,4.09,0,0,1-4.09-4.09V298h2.13a.31.31,0,0,1,.31.31v7a.87.87,0,0,1,.81-.5h3v2a.29.29,0,0,1-.31.28h-3.47v7.7a1.64,1.64,0,0,0,1.65,1.65h2.52A.31.31,0,0,1,579.1,316.78Z"/>
        <path class="cls-12" d="M581.62,314.7v-5.94a3.79,3.79,0,0,1,4.09-4h3.75a3.79,3.79,0,0,1,4.09,4V312c0,.48-.06.87-.73.87h-7.67a1.34,1.34,0,0,1-1.09-.53v2.49a1.64,1.64,0,0,0,1.65,1.65h6.94a.31.31,0,0,1,.31.31v2h-7.25A4.07,4.07,0,0,1,581.62,314.7Zm4.09-7.62a1.53,1.53,0,0,0-1.65,1.65v1.51a.3.3,0,0,0,.28.31h6.52a.31.31,0,0,0,.31-.31v-1.51a1.44,1.44,0,0,0-1.62-1.65Z"/>
        <path class="cls-12" d="M604.55,304.79v2a.31.31,0,0,1-.31.31h-3.5a1.35,1.35,0,0,0-1.34,1.26v10.42h-2.13a.31.31,0,0,1-.31-.31V304.79h2.13a.29.29,0,0,1,.31.28v.62a2.35,2.35,0,0,1,1.9-.9Z"/>
        <path class="cls-12" d="M619,308.88v9.91h-2.13a.31.31,0,0,1-.31-.31v-9.74a1.66,1.66,0,0,0-1.65-1.65h-5.07a.31.31,0,0,0-.31.31v11.09a.31.31,0,0,1-.31.31H607.1V306.61a1.82,1.82,0,0,1,1.82-1.82h6A4.08,4.08,0,0,1,619,308.88Z"/>
        <path class="cls-12" d="M622.44,314.7v-5.94a3.79,3.79,0,0,1,4.09-4h3.75a3.79,3.79,0,0,1,4.09,4V312c0,.48-.06.87-.73.87H626a1.34,1.34,0,0,1-1.09-.53v2.49a1.64,1.64,0,0,0,1.65,1.65h6.94a.31.31,0,0,1,.31.31v2h-7.25A4.07,4.07,0,0,1,622.44,314.7Zm4.09-7.62a1.53,1.53,0,0,0-1.65,1.65v1.51a.3.3,0,0,0,.28.31h6.52a.31.31,0,0,0,.31-.31v-1.51a1.44,1.44,0,0,0-1.62-1.65Z"/>
        <path class="cls-12" d="M644.73,316.78v2H641.9a4.09,4.09,0,0,1-4.09-4.09V298h2.13a.31.31,0,0,1,.31.31v7a.87.87,0,0,1,.81-.5h3v2a.29.29,0,0,1-.31.28h-3.47v7.7a1.64,1.64,0,0,0,1.65,1.65h2.52A.31.31,0,0,1,644.73,316.78Z"/>
      </g>
    </g>
    <g id="text1938" class="cls-11">
      <g class="cls-11">
        <path class="cls-12" d="M553.87,175.9v2a.37.37,0,0,1-.36.36h-6v18.26a.35.35,0,0,1-.36.36h-2.27V178.31h-6.27v-2a.37.37,0,0,1,.36-.36Z"/>
        <path class="cls-12" d="M561.87,182.93v2a.31.31,0,0,1-.31.31h-3.5a1.35,1.35,0,0,0-1.34,1.26v10.42h-2.13a.31.31,0,0,1-.31-.31V182.93h2.13a.29.29,0,0,1,.31.28v.62a2.35,2.35,0,0,1,1.9-.9Z"/>
        <path class="cls-12" d="M574.75,186.85V196a.88.88,0,0,1-.9.9h-6.55a4.07,4.07,0,0,1-4.09-4.09V192a4.07,4.07,0,0,1,4.09-4.09H572a.31.31,0,0,0,.31-.31v-.7a1.58,1.58,0,0,0-1.68-1.65h-5.57a.31.31,0,0,1-.31-.31v-2h5.88A3.78,3.78,0,0,1,574.75,186.85Zm-7.45,7.7h4.76a.29.29,0,0,0,.28-.31v-4.45a.9.9,0,0,1-.73.42h-4.31a1.64,1.64,0,0,0-1.65,1.65v1A1.64,1.64,0,0,0,567.31,194.55Z"/>
        <path class="cls-12" d="M590,187v9.91h-2.13a.31.31,0,0,1-.31-.31v-9.74a1.65,1.65,0,0,0-1.65-1.65h-5.07a.31.31,0,0,0-.31.31v11.09a.31.31,0,0,1-.31.31h-2.13V184.75a1.82,1.82,0,0,1,1.82-1.82h6A4.08,4.08,0,0,1,590,187Z"/>
        <path class="cls-12" d="M593,188.5v-1.88a3.55,3.55,0,0,1,3.84-3.7h7.67v2a.31.31,0,0,1-.31.31h-7.36a1.23,1.23,0,0,0-1.4,1.37v.81a.36.36,0,0,0,.25.31l8.65,2a.93.93,0,0,1,.76.92v2.49c0,2.44-1.74,3.75-4,3.75h-7.92v-2a.31.31,0,0,1,.31-.31h7.62a1.56,1.56,0,0,0,1.74-1.46v-1.32a.3.3,0,0,0-.25-.28l-8.79-2.16A1,1,0,0,1,593,188.5Z"/>
        <path class="cls-12" d="M616.19,196.93H613a2.43,2.43,0,0,1-1.9-.9v7.42a.31.31,0,0,1-.31.31h-2.13v-20a.88.88,0,0,1,.9-.87h6.66c2.24,0,4.09,1.18,4.09,3.95V193A3.92,3.92,0,0,1,616.19,196.93Zm1.65-10.05a1.46,1.46,0,0,0-1.65-1.65h-4.82a.31.31,0,0,0-.31.31v7.64a1.55,1.55,0,0,0,1.34,1.43h3.78a1.65,1.65,0,0,0,1.65-1.65Z"/>
        <path class="cls-12" d="M627.67,197.13a4.08,4.08,0,0,1-4.09-4.09v-6.22a4.09,4.09,0,0,1,4.09-4.09h3.7a4.12,4.12,0,0,1,4.12,4.09V193a4.1,4.1,0,0,1-4.12,4.09ZM626,186.71v6.44a1.66,1.66,0,0,0,1.65,1.68h3.7a1.69,1.69,0,0,0,1.68-1.68v-6.44a1.68,1.68,0,0,0-1.68-1.65h-3.7A1.65,1.65,0,0,0,626,186.71Z"/>
        <path class="cls-12" d="M646.46,182.93v2a.31.31,0,0,1-.31.31h-3.5a1.35,1.35,0,0,0-1.34,1.26v10.42h-2.13a.31.31,0,0,1-.31-.31V182.93H641a.29.29,0,0,1,.31.28v.62a2.35,2.35,0,0,1,1.9-.9Z"/>
        <path class="cls-12" d="M656,194.91v2h-2.83a4.09,4.09,0,0,1-4.09-4.09V176.15h2.13a.31.31,0,0,1,.31.31v7a.87.87,0,0,1,.81-.5h3v2a.29.29,0,0,1-.31.28h-3.47V193a1.64,1.64,0,0,0,1.65,1.65h2.52A.31.31,0,0,1,656,194.91Z"/>
      </g>
    </g>
    <g id="text1942" class="cls-11">
      <g class="cls-11">
        <path class="cls-12" d="M553.27,77.64H551a.52.52,0,0,1-.5-.36l-1.88-5.4H537.9L536,77.27a.55.55,0,0,1-.5.36h-2.3l6.83-19.46a2.36,2.36,0,0,1,2.21-1.57h3.33a.39.39,0,0,1,.34.2Zm-5.52-8.18L544.11,59h-1.37a.54.54,0,0,0-.5.36l-3.5,10.08Z"/>
        <path class="cls-12" d="M563.1,77.64h-3.22a2.43,2.43,0,0,1-1.9-.9v7.42a.31.31,0,0,1-.31.31h-2.13v-20a.88.88,0,0,1,.9-.87h6.66c2.24,0,4.09,1.18,4.09,3.95v6.1A3.92,3.92,0,0,1,563.1,77.64Zm1.65-10.05a1.46,1.46,0,0,0-1.65-1.65h-4.82a.31.31,0,0,0-.31.31v7.64a1.55,1.55,0,0,0,1.34,1.43h3.78a1.65,1.65,0,0,0,1.65-1.65Z"/>
        <path class="cls-12" d="M578.19,77.64H575a2.43,2.43,0,0,1-1.9-.9v7.42a.31.31,0,0,1-.31.31h-2.13v-20a.88.88,0,0,1,.9-.87h6.66c2.24,0,4.09,1.18,4.09,3.95v6.1A3.92,3.92,0,0,1,578.19,77.64Zm1.65-10.05a1.46,1.46,0,0,0-1.65-1.65h-4.82a.31.31,0,0,0-.31.31v7.64a1.55,1.55,0,0,0,1.34,1.43h3.78a1.66,1.66,0,0,0,1.65-1.65Z"/>
        <path class="cls-12" d="M588.07,56.94V77.64h-2.13a.31.31,0,0,1-.31-.31V56.64h2.13A.31.31,0,0,1,588.07,56.94Z"/>
        <path class="cls-12" d="M594.09,57.67V60H592a.31.31,0,0,1-.31-.31v-2.3h2.13A.31.31,0,0,1,594.09,57.67Zm0,6.24V77.64H592a.31.31,0,0,1-.31-.31V63.64h2.13A.29.29,0,0,1,594.09,63.92Z"/>
        <path class="cls-12" d="M599.83,67.64v6a1.64,1.64,0,0,0,1.65,1.65h5a.31.31,0,0,1,.31.31v2h-5.26a4.09,4.09,0,0,1-4.09-4.09v-5.8a4.09,4.09,0,0,1,4.09-4.09h5.26v2a.29.29,0,0,1-.31.28h-5A1.66,1.66,0,0,0,599.83,67.64Z"/>
        <path class="cls-12" d="M620.92,67.56v9.18a.88.88,0,0,1-.9.9h-6.55a4.07,4.07,0,0,1-4.09-4.09v-.87a4.07,4.07,0,0,1,4.09-4.09h4.73a.31.31,0,0,0,.31-.31v-.7a1.58,1.58,0,0,0-1.68-1.65h-5.57a.31.31,0,0,1-.31-.31v-2h5.88A3.78,3.78,0,0,1,620.92,67.56Zm-7.45,7.7h4.76a.29.29,0,0,0,.28-.31V70.5a.9.9,0,0,1-.73.42h-4.31a1.64,1.64,0,0,0-1.65,1.65v1A1.64,1.64,0,0,0,613.47,75.26Z"/>
        <path class="cls-12" d="M631.19,75.62v2h-2.83a4.09,4.09,0,0,1-4.09-4.09V56.86h2.13a.31.31,0,0,1,.31.31v7a.87.87,0,0,1,.81-.5h3v2a.29.29,0,0,1-.31.28h-3.47v7.7a1.64,1.64,0,0,0,1.65,1.65h2.52A.31.31,0,0,1,631.19,75.62Z"/>
        <path class="cls-12" d="M636.23,57.67V60H634.1a.31.31,0,0,1-.31-.31v-2.3h2.13A.31.31,0,0,1,636.23,57.67Zm0,6.24V77.64H634.1a.31.31,0,0,1-.31-.31V63.64h2.13A.29.29,0,0,1,636.23,63.92Z"/>
        <path class="cls-12" d="M643.79,77.83a4.07,4.07,0,0,1-4.09-4.09V67.53a4.09,4.09,0,0,1,4.09-4.09h3.7a4.12,4.12,0,0,1,4.12,4.09v6.22a4.1,4.1,0,0,1-4.12,4.09Zm-1.65-10.42v6.44a1.66,1.66,0,0,0,1.65,1.68h3.7a1.69,1.69,0,0,0,1.68-1.68V67.42a1.68,1.68,0,0,0-1.68-1.65h-3.7A1.66,1.66,0,0,0,642.14,67.42Z"/>
        <path class="cls-12" d="M666.89,67.72v9.91h-2.13a.31.31,0,0,1-.31-.31V67.58a1.66,1.66,0,0,0-1.65-1.65h-5.07a.31.31,0,0,0-.31.31V77.33a.31.31,0,0,1-.31.31H655V65.46a1.82,1.82,0,0,1,1.82-1.82h6A4.08,4.08,0,0,1,666.89,67.72Z"/>
      </g>
    </g>
    <rect id="rect5119" class="cls-3" x="318" y="381" width="90" height="97"/>
    <rect id="rect7059" class="cls-13" x="121" y="381" width="100" height="97"/>
    <rect id="rect9001" class="cls-2" x="220" y="381" width="101.13" height="97"/>
    <g id="text11910" class="cls-11">
      <g class="cls-11">
        <path class="cls-12" d="M275.92,317.91V299.46h2a.33.33,0,0,1,.33.33v18.45h-2A.33.33,0,0,1,275.92,317.91Z"/>
        <path class="cls-12" d="M295.19,303.71v2.47a4.26,4.26,0,0,1-4.25,4.25h-5.47a1.34,1.34,0,0,1-1.45-1v8.47a.33.33,0,0,1-.33.33h-2V300.91a1.45,1.45,0,0,1,1.45-1.45h7.82A4.26,4.26,0,0,1,295.19,303.71Zm-2.35-.2a1.9,1.9,0,0,0-1.9-1.9h-6.45a.47.47,0,0,0-.47.47v5.72a.49.49,0,0,0,.47.48h6.45a1.9,1.9,0,0,0,1.9-1.9Z"/>
        <path class="cls-12" d="M310.32,305.74h2.9a2.11,2.11,0,0,1,1.72.8v-6.77a.28.28,0,0,1,.28-.27h1.9v17.95a.79.79,0,0,1-.8.8h-5.95a3.64,3.64,0,0,1-3.65-3.65v-5.2A3.6,3.6,0,0,1,310.32,305.74Zm-1.42,8.95a1.46,1.46,0,0,0,1.47,1.47h4.3a.26.26,0,0,0,.27-.25v-6.82a1.39,1.39,0,0,0-1.2-1.28h-3.37a1.46,1.46,0,0,0-1.47,1.47Z"/>
        <path class="cls-12" d="M330,309.24v8.2a.79.79,0,0,1-.8.8h-5.85a3.64,3.64,0,0,1-3.65-3.65v-.77a3.64,3.64,0,0,1,3.65-3.65h4.22a.28.28,0,0,0,.27-.27v-.62a1.41,1.41,0,0,0-1.5-1.47h-5a.28.28,0,0,1-.27-.28v-1.77h5.25A3.37,3.37,0,0,1,330,309.24Zm-6.65,6.87h4.25a.26.26,0,0,0,.25-.28v-4a.8.8,0,0,1-.65.38h-3.85a1.46,1.46,0,0,0-1.47,1.47v.92A1.46,1.46,0,0,0,323.32,316.11Z"/>
        <path class="cls-12" d="M339.14,316.43v1.8h-2.52a3.65,3.65,0,0,1-3.65-3.65v-14.9h1.9a.28.28,0,0,1,.27.28v6.25a.78.78,0,0,1,.72-.45h2.65v1.8a.26.26,0,0,1-.27.25h-3.1v6.87a1.46,1.46,0,0,0,1.47,1.47h2.25A.28.28,0,0,1,339.14,316.43Z"/>
        <path class="cls-12" d="M351.22,309.24v8.2a.79.79,0,0,1-.8.8h-5.85a3.64,3.64,0,0,1-3.65-3.65v-.77a3.64,3.64,0,0,1,3.65-3.65h4.22a.28.28,0,0,0,.27-.27v-.62a1.41,1.41,0,0,0-1.5-1.47h-5a.28.28,0,0,1-.27-.28v-1.77h5.25A3.37,3.37,0,0,1,351.22,309.24Zm-6.65,6.87h4.25a.26.26,0,0,0,.25-.28v-4a.8.8,0,0,1-.65.38h-3.85a1.46,1.46,0,0,0-1.47,1.47v.92A1.46,1.46,0,0,0,344.57,316.11Z"/>
      </g>
    </g>
    <g id="text11914" class="cls-11">
      <g class="cls-11">
        <path class="cls-12" d="M216.45,420.22V422a.33.33,0,0,1-.32.33H208a1.9,1.9,0,0,0-1.9,1.9v4.8a1.59,1.59,0,0,1,1.25-.55h8.5v1.83a.33.33,0,0,1-.32.32h-9.42v8a.33.33,0,0,1-.32.33h-2V424.47a4.25,4.25,0,0,1,4.25-4.25Z"/>
        <path class="cls-12" d="M225.32,426.5v1.8a.28.28,0,0,1-.27.27h-3.12a1.2,1.2,0,0,0-1.2,1.13V439h-1.9a.28.28,0,0,1-.27-.28V426.5h1.9a.26.26,0,0,1,.27.25v.55a2.1,2.1,0,0,1,1.7-.8Z"/>
        <path class="cls-12" d="M236.82,430v8.2a.79.79,0,0,1-.8.8h-5.85a3.64,3.64,0,0,1-3.65-3.65v-.77a3.64,3.64,0,0,1,3.65-3.65h4.22a.28.28,0,0,0,.27-.27V430a1.41,1.41,0,0,0-1.5-1.47h-5a.28.28,0,0,1-.27-.28V426.5h5.25A3.37,3.37,0,0,1,236.82,430Zm-6.65,6.87h4.25a.26.26,0,0,0,.25-.28v-4a.8.8,0,0,1-.65.38h-3.85a1.46,1.46,0,0,0-1.47,1.47v.92A1.46,1.46,0,0,0,230.17,436.87Z"/>
        <path class="cls-12" d="M254.95,430.15V439H253a.28.28,0,0,1-.27-.28V430a1.48,1.48,0,0,0-1.47-1.47H248a.84.84,0,0,1,.45.7V439h-1.9a.28.28,0,0,1-.27-.28v-9.9a.28.28,0,0,0-.27-.27h-3.77a.27.27,0,0,0-.25.22v9.95a.28.28,0,0,1-.27.28h-1.9V428.12a1.62,1.62,0,0,1,1.62-1.62h9.82A3.64,3.64,0,0,1,254.95,430.15Z"/>
        <path class="cls-12" d="M257.93,435.34V430a3.38,3.38,0,0,1,3.65-3.55h3.35a3.38,3.38,0,0,1,3.65,3.55v2.88c0,.42,0,.77-.65.77h-6.85a1.2,1.2,0,0,1-1-.47v2.22a1.46,1.46,0,0,0,1.47,1.47h6.2a.28.28,0,0,1,.27.27V439h-6.47A3.64,3.64,0,0,1,257.93,435.34Zm3.65-6.8A1.36,1.36,0,0,0,260.1,430v1.35a.27.27,0,0,0,.25.27h5.82a.28.28,0,0,0,.27-.27V430a1.28,1.28,0,0,0-1.45-1.47Z"/>
        <path class="cls-12" d="M284.5,426.5h2.9a2.11,2.11,0,0,1,1.72.8v-6.77a.28.28,0,0,1,.28-.27h1.9v17.95a.79.79,0,0,1-.8.8h-5.95a3.64,3.64,0,0,1-3.65-3.65v-5.2A3.6,3.6,0,0,1,284.5,426.5Zm-1.42,8.95a1.46,1.46,0,0,0,1.47,1.47h4.3a.26.26,0,0,0,.27-.25v-6.82a1.39,1.39,0,0,0-1.2-1.28h-3.37a1.46,1.46,0,0,0-1.47,1.47Z"/>
        <path class="cls-12" d="M304.15,430v8.2a.79.79,0,0,1-.8.8H297.5a3.64,3.64,0,0,1-3.65-3.65v-.77a3.64,3.64,0,0,1,3.65-3.65h4.22a.28.28,0,0,0,.27-.27V430a1.41,1.41,0,0,0-1.5-1.47h-5a.28.28,0,0,1-.27-.28V426.5h5.25A3.37,3.37,0,0,1,304.15,430Zm-6.65,6.87h4.25a.26.26,0,0,0,.25-.28v-4a.8.8,0,0,1-.65.38H297.5a1.46,1.46,0,0,0-1.47,1.47v.92A1.46,1.46,0,0,0,297.5,436.87Z"/>
        <path class="cls-12" d="M313.32,437.19V439H310.8a3.65,3.65,0,0,1-3.65-3.65v-14.9H309a.28.28,0,0,1,.27.28V427a.78.78,0,0,1,.72-.45h2.65v1.8a.26.26,0,0,1-.27.25h-3.1v6.87a1.46,1.46,0,0,0,1.47,1.47H313A.28.28,0,0,1,313.32,437.19Z"/>
        <path class="cls-12" d="M325.4,430v8.2a.79.79,0,0,1-.8.8h-5.85a3.64,3.64,0,0,1-3.65-3.65v-.77a3.64,3.64,0,0,1,3.65-3.65H323a.28.28,0,0,0,.27-.27V430a1.41,1.41,0,0,0-1.5-1.47h-5a.28.28,0,0,1-.27-.28V426.5h5.25A3.37,3.37,0,0,1,325.4,430Zm-6.65,6.87H323a.26.26,0,0,0,.25-.28v-4a.8.8,0,0,1-.65.38h-3.85a1.46,1.46,0,0,0-1.47,1.47v.92A1.46,1.46,0,0,0,318.75,436.87Z"/>
      </g>
    </g>
  </g>
</svg>
