<svg xmlns="http://www.w3.org/2000/svg" xmlns:xlink="http://www.w3.org/1999/xlink" viewBox="0 0 326.67 280.33">
  <defs>
    <style>
      .cls-1, .cls-2, .cls-3, .cls-5 {
        stroke: lime;
      }

      .cls-1, .cls-10, .cls-16, .cls-17, .cls-18, .cls-19, .cls-2, .cls-20, .cls-21, .cls-22, .cls-23, .cls-24, .cls-25, .cls-26, .cls-27, .cls-28, .cls-29, .cls-3, .cls-30, .cls-31, .cls-32, .cls-4, .cls-5, .cls-6, .cls-7, .cls-8 {
        stroke-miterlimit: 10;
      }

      .cls-1, .cls-3 {
        stroke-width: 7px;
      }

      .cls-2 {
        stroke-width: 8px;
      }

      .cls-3, .cls-4, .cls-5 {
        stroke-linecap: round;
      }

      .cls-10, .cls-16, .cls-17, .cls-18, .cls-19, .cls-20, .cls-21, .cls-22, .cls-23, .cls-24, .cls-25, .cls-26, .cls-27, .cls-28, .cls-29, .cls-30, .cls-31, .cls-32, .cls-4, .cls-5, .cls-8 {
        fill: none;
      }

      .cls-10, .cls-4 {
        stroke: red;
      }

      .cls-4 {
        stroke-width: 10px;
      }

      .cls-5 {
        stroke-width: 5px;
      }

      .cls-6, .cls-7, .cls-8 {
        stroke: #fff;
      }

      .cls-13, .cls-7 {
        fill: red;
      }

      .cls-9 {
        fill: #ccc;
      }

      .cls-10 {
        opacity: 0.35;
      }

      .cls-11 {
        fill: lime;
      }

      .cls-12 {
        fill: #4d4d4d;
      }

      .cls-14 {
        fill-opacity: 0.5;
        stroke-linejoin: bevel;
      }

      .cls-14, .cls-30, .cls-31, .cls-32 {
        stroke: #3fa9f5;
      }

      .cls-14, .cls-16, .cls-17, .cls-18, .cls-19, .cls-20, .cls-21, .cls-22, .cls-23, .cls-24, .cls-25, .cls-26, .cls-27, .cls-28, .cls-29, .cls-30, .cls-31, .cls-32 {
        stroke-width: 2px;
      }

      .cls-15 {
        fill: #fff;
      }

      .cls-16, .cls-17, .cls-18, .cls-19, .cls-20, .cls-21, .cls-22, .cls-23, .cls-24, .cls-25, .cls-26, .cls-27, .cls-28, .cls-29 {
        stroke: #0af;
      }

      .cls-17 {
        stroke-dasharray: 4.83 4.83;
      }

      .cls-18 {
        stroke-dasharray: 4.9 4.9;
      }

      .cls-19 {
        stroke-dasharray: 4.94 4.94;
      }

      .cls-20 {
        stroke-dasharray: 3 3;
      }

      .cls-21 {
        stroke-dasharray: 4.47 4.47;
      }

      .cls-22 {
        stroke-dasharray: 5.32 5.32;
      }

      .cls-23 {
        stroke-dasharray: 5.12 5.12;
      }

      .cls-24 {
        stroke-dasharray: 4.4 4.4;
      }

      .cls-25 {
        stroke-dasharray: 5.09 5.09;
      }

      .cls-26 {
        stroke-dasharray: 5 5;
      }

      .cls-27 {
        stroke-dasharray: 4.91 4.91;
      }

      .cls-28 {
        stroke-dasharray: 5.04 5.04;
      }

      .cls-29 {
        stroke-dasharray: 4.67 4.67;
      }

      .cls-31 {
        stroke-dasharray: 10 3;
      }

      .cls-32 {
        stroke-dasharray: 11.09 3.33;
      }
    </style>
    <symbol id="Router" data-name="Router" viewBox="0 0 126.58 21">
      <polyline class="cls-6" points="125.7 10 125.7 9.45 113.14 0.5 13.68 0.5 0.84 9.51 0.52 20.5 125.7 20.5 125.7 18 125.7 11.46"/>
      <polygon class="cls-7" points="18.12 0.5 0.76 12.29 0.84 9.32 13.68 0.5 18.12 0.5"/>
      <polygon class="cls-7" points="108.69 0.5 126.06 12.29 125.97 9.32 113.14 0.5 108.69 0.5"/>
      <line class="cls-8" x1="56.15" y1="0.5" x2="63.14" y2="20.47"/>
      <line class="cls-8" x1="52.66" y1="0.5" x2="59.65" y2="20.47"/>
      <polygon class="cls-7" points="52.66 20.47 45.67 0.5 49.16 0.5 56.15 20.47 52.66 20.47"/>
      <line class="cls-8" x1="73.75" y1="0.5" x2="66.75" y2="20.47"/>
      <line class="cls-8" x1="77.24" y1="0.5" x2="70.25" y2="20.47"/>
      <polygon class="cls-7" points="77.24 20.47 84.23 0.5 80.74 0.5 73.75 20.47 77.24 20.47"/>
    </symbol>
    <symbol id="DarkComp" data-name="DarkComp" viewBox="0 0 415.48 327.89">
      <rect class="cls-1" x="4.91" y="3.5" width="372.75" height="222.94" rx="5" ry="5"/>
      <polygon class="cls-2" points="191.28 289.7 140.69 226.44 241.87 226.44 191.28 289.7"/>
      <polygon class="cls-3" points="367.73 324.39 20.27 324.39 4.65 270.13 353.79 270.13 367.73 324.39"/>
      <path class="cls-1" d="M406,319.7l-11-.08c-5.13,0-10.74-5.14-12.48-11.2l-6.79-23.65c-1.44-5,1-8.94,5.51-8.89l9.56.11c4.45.05,9.54,4,11.42,9.06l8.85,23.61C413.37,314.71,411.12,319.74,406,319.7Z"/>
      <line class="cls-4" x1="29.76" y1="30.92" x2="241.93" y2="30.92"/>
      <line class="cls-4" x1="29.76" y1="63.02" x2="276.7" y2="63.02"/>
      <line class="cls-4" x1="29.76" y1="95.11" x2="188.89" y2="95.11"/>
      <line class="cls-4" x1="29.76" y1="127.2" x2="236.14" y2="127.2"/>
      <line class="cls-5" x1="35.55" y1="289.9" x2="304.33" y2="289.9"/>
      <line class="cls-5" x1="41.35" y1="305.5" x2="313.25" y2="305.5"/>
    </symbol>
    <symbol id="Server" data-name="Server" viewBox="0 0 29.14 24.86">
      <path class="cls-9" d="M28.64,2.5V22.36a2,2,0,0,1-2,2H2.5a2,2,0,0,1-2-2V2.5a2,2,0,0,1,2-2H26.64a2,2,0,0,1,2,2"/>
      <line class="cls-10" x1="3" y1="0.9" x2="3" y2="3.72"/>
      <line class="cls-10" x1="7.55" y1="0.9" x2="7.55" y2="3.72"/>
      <line class="cls-10" x1="12.33" y1="0.9" x2="12.33" y2="3.72"/>
      <line class="cls-10" x1="16.64" y1="0.9" x2="16.64" y2="3.72"/>
      <line class="cls-10" x1="21.19" y1="0.9" x2="21.19" y2="3.72"/>
      <path d="M28.64,2.5h-.5V22.36a1.51,1.51,0,0,1-1.5,1.5H2.5A1.51,1.51,0,0,1,1,22.36V2.5A1.51,1.51,0,0,1,2.5,1H26.64a1.51,1.51,0,0,1,1.5,1.5h1A2.51,2.51,0,0,0,26.64,0H2.5A2.51,2.51,0,0,0,0,2.5V22.36a2.51,2.51,0,0,0,2.5,2.5H26.64a2.51,2.51,0,0,0,2.5-2.5V2.5h-.5"/>
      <polyline class="cls-11" points="8.93 16.75 8.93 8.37 6.93 8.37 6.93 16.75"/>
      <polyline class="cls-11" points="4.62 16.75 4.62 8.37 2.62 8.37 2.62 16.75"/>
      <polyline points="10.92 24.36 10.92 0.5 9.92 0.5 9.92 24.36 10.92 24.36"/>
      <polyline class="cls-12" points="13.36 16.88 13.36 8.51 11.36 8.51 11.36 16.88"/>
      <polyline points="15.35 24.49 15.35 0.63 14.35 0.63 14.35 24.49"/>
      <polyline class="cls-12" points="18.02 16.88 18.02 8.51 16.02 8.51 16.02 16.88"/>
      <polyline points="20.01 24.49 20.01 0.63 19.01 0.63 19.01 24.49 20.01 24.49"/>
      <polyline class="cls-12" points="22.41 16.88 22.41 8.51 20.41 8.51 20.41 16.88"/>
      <polyline class="cls-13" points="26.7 16.88 26.7 8.51 24.7 8.51 24.7 16.88"/>
      <polyline points="24.39 24.49 24.39 0.63 23.39 0.63 23.39 24.49"/>
      <polyline points="6.13 24.36 6.13 0.5 5.13 0.5 5.13 24.36 6.13 24.36"/>
    </symbol>
  </defs>
  <title>NatAddressTransition</title>
  <g id="Layer_1" data-name="Layer 1">
    <use id="Router-3" data-name="Router" width="126.58" height="21" transform="translate(169.3 112.09) scale(0.66 0.9)" xlink:href="#Router"/>
    <g>
      <rect class="cls-14" x="14.83" y="30.33" width="44.92" height="44.92"/>
      <g>
        <path class="cls-15" d="M21.45,35.85h0l-.68.37-.1-.4.85-.46H22v3.9h-.51Z"/>
        <path class="cls-15" d="M23.69,38.89a2.22,2.22,0,0,0,.43,0,1.47,1.47,0,0,0,.82-.38,1.71,1.71,0,0,0,.52-1h0a1.14,1.14,0,0,1-.92.42,1.13,1.13,0,0,1-1.15-1.19,1.34,1.34,0,0,1,1.33-1.39c.8,0,1.29.65,1.29,1.64a2.46,2.46,0,0,1-.67,1.83,2,2,0,0,1-1.13.52,2.45,2.45,0,0,1-.49,0Zm.19-2.24a.75.75,0,0,0,.75.83.87.87,0,0,0,.77-.41.35.35,0,0,0,0-.19c0-.67-.25-1.18-.8-1.18S23.88,36.09,23.88,36.65Z"/>
        <path class="cls-15" d="M26.46,39.26v-.32l.41-.4c1-.95,1.45-1.45,1.45-2a.7.7,0,0,0-.77-.76,1.33,1.33,0,0,0-.83.33l-.17-.37a1.71,1.71,0,0,1,1.1-.4,1.1,1.1,0,0,1,1.19,1.13c0,.72-.52,1.3-1.34,2.09l-.31.29h1.75v.44Z"/>
        <path class="cls-15" d="M29.58,38.95a.35.35,0,0,1,.36-.38.38.38,0,1,1-.36.38Z"/>
        <path class="cls-15" d="M31.92,35.85h0l-.68.37-.1-.4.85-.46h.45v3.9h-.51Z"/>
        <path class="cls-15" d="M36.08,35.73a1.89,1.89,0,0,0-.4,0,1.58,1.58,0,0,0-1.35,1.39h0a1.19,1.19,0,0,1,2.12.81,1.3,1.3,0,0,1-1.3,1.37c-.83,0-1.38-.65-1.38-1.66a2.45,2.45,0,0,1,.66-1.76,2.12,2.12,0,0,1,1.25-.58,2.54,2.54,0,0,1,.38,0ZM35.93,38a.79.79,0,0,0-.8-.89.87.87,0,0,0-.76.48.45.45,0,0,0-.06.23c0,.64.31,1.12.86,1.12S35.93,38.54,35.93,38Z"/>
        <path class="cls-15" d="M36.89,38.27a1.11,1.11,0,0,1,.77-1v0a1,1,0,0,1-.62-.88,1.09,1.09,0,0,1,1.21-1,1,1,0,0,1,1.13,1,1,1,0,0,1-.64.91v0a1.08,1.08,0,0,1,.79,1,1.2,1.2,0,0,1-1.33,1.13C37.38,39.33,36.89,38.84,36.89,38.27Zm2.1,0c0-.47-.33-.7-.86-.85a.85.85,0,0,0-.7.8.72.72,0,0,0,.78.74A.71.71,0,0,0,39,38.25ZM37.54,36.3c0,.39.29.6.74.72a.77.77,0,0,0,.59-.71.61.61,0,0,0-.66-.64A.62.62,0,0,0,37.54,36.3Z"/>
        <path class="cls-15" d="M40.06,38.95a.35.35,0,0,1,.36-.38.38.38,0,1,1-.36.38Z"/>
        <path class="cls-15" d="M42.4,35.85h0l-.68.37-.1-.4.85-.46h.45v3.9H42.4Z"/>
        <path class="cls-15" d="M44.38,38.95a.35.35,0,0,1,.36-.38.38.38,0,1,1-.36.38Z"/>
        <path class="cls-15" d="M46.72,35.85h0l-.68.37-.1-.4.85-.46h.45v3.9h-.51Z"/>
        <path class="cls-15" d="M48.6,38.27a1.11,1.11,0,0,1,.77-1v0a1,1,0,0,1-.62-.88,1.09,1.09,0,0,1,1.21-1,1,1,0,0,1,1.13,1,1,1,0,0,1-.64.91v0a1.08,1.08,0,0,1,.79,1,1.2,1.2,0,0,1-1.33,1.13C49.1,39.33,48.6,38.84,48.6,38.27Zm2.1,0c0-.47-.33-.7-.86-.85a.85.85,0,0,0-.7.8.72.72,0,0,0,.78.74A.71.71,0,0,0,50.7,38.25ZM49.25,36.3c0,.39.29.6.74.72a.77.77,0,0,0,.59-.71.61.61,0,0,0-.66-.64A.62.62,0,0,0,49.25,36.3Z"/>
        <path class="cls-15" d="M51.86,38.65a1.77,1.77,0,0,0,.86.25c.68,0,.89-.43.88-.76,0-.55-.5-.78-1-.78H52.3V37h.29c.38,0,.87-.2.87-.66s-.2-.59-.68-.59A1.43,1.43,0,0,0,52,36l-.14-.38a1.85,1.85,0,0,1,1-.3c.77,0,1.12.46,1.12.93a1,1,0,0,1-.72.92h0a1,1,0,0,1,.87,1c0,.62-.49,1.17-1.42,1.17a2,2,0,0,1-1-.26Z"/>
      </g>
      <use width="415.48" height="327.89" transform="translate(20.27 43) scale(0.08)" xlink:href="#DarkComp"/>
    </g>
    <g>
      <rect class="cls-14" x="14.83" y="85.33" width="44.92" height="44.92"/>
      <g>
        <path class="cls-15" d="M23,90.85h0l-.68.37-.1-.4.85-.46h.45v3.9H23Z"/>
        <path class="cls-15" d="M25.23,93.89a2.22,2.22,0,0,0,.43,0,1.47,1.47,0,0,0,.82-.38,1.71,1.71,0,0,0,.52-1h0a1.14,1.14,0,0,1-.92.42,1.13,1.13,0,0,1-1.15-1.19,1.34,1.34,0,0,1,1.33-1.39c.8,0,1.29.65,1.29,1.64a2.46,2.46,0,0,1-.67,1.83,2,2,0,0,1-1.13.52,2.45,2.45,0,0,1-.49,0Zm.19-2.24a.75.75,0,0,0,.75.83.87.87,0,0,0,.77-.41.35.35,0,0,0,0-.19c0-.67-.25-1.18-.8-1.18S25.42,91.09,25.42,91.65Z"/>
        <path class="cls-15" d="M28,94.26v-.32l.41-.4c1-.95,1.45-1.45,1.45-2a.7.7,0,0,0-.77-.76,1.33,1.33,0,0,0-.83.33l-.17-.37a1.71,1.71,0,0,1,1.1-.4,1.1,1.1,0,0,1,1.19,1.13c0,.72-.52,1.3-1.34,2.09l-.31.29h1.75v.44Z"/>
        <path class="cls-15" d="M31.12,93.95a.35.35,0,0,1,.36-.38.38.38,0,1,1-.36.38Z"/>
        <path class="cls-15" d="M33.46,90.85h0l-.68.37-.1-.4.85-.46H34v3.9h-.51Z"/>
        <path class="cls-15" d="M37.62,90.73a1.89,1.89,0,0,0-.4,0,1.58,1.58,0,0,0-1.35,1.39h0A1.19,1.19,0,0,1,38,93a1.3,1.3,0,0,1-1.3,1.37c-.83,0-1.38-.65-1.38-1.66A2.45,2.45,0,0,1,36,90.91a2.12,2.12,0,0,1,1.25-.58,2.55,2.55,0,0,1,.38,0ZM37.47,93a.79.79,0,0,0-.8-.89.87.87,0,0,0-.76.48.45.45,0,0,0-.06.23c0,.64.31,1.12.86,1.12S37.47,93.54,37.47,93Z"/>
        <path class="cls-15" d="M38.43,93.27a1.11,1.11,0,0,1,.77-1v0a1,1,0,0,1-.62-.88,1.09,1.09,0,0,1,1.21-1,1,1,0,0,1,1.13,1,1,1,0,0,1-.64.91v0a1.08,1.08,0,0,1,.79,1,1.2,1.2,0,0,1-1.33,1.13C38.92,94.33,38.43,93.84,38.43,93.27Zm2.1,0c0-.47-.33-.7-.86-.85a.85.85,0,0,0-.7.8.72.72,0,0,0,.78.74A.71.71,0,0,0,40.52,93.25ZM39.07,91.3c0,.39.29.6.74.72a.77.77,0,0,0,.59-.71.61.61,0,0,0-.66-.64A.62.62,0,0,0,39.07,91.3Z"/>
        <path class="cls-15" d="M41.59,93.95a.35.35,0,0,1,.36-.38.38.38,0,1,1-.36.38Z"/>
        <path class="cls-15" d="M43.94,90.85h0l-.68.37-.1-.4.85-.46h.45v3.9h-.51Z"/>
        <path class="cls-15" d="M45.91,93.95a.35.35,0,0,1,.36-.38.38.38,0,1,1-.36.38Z"/>
        <path class="cls-15" d="M47.11,94.26v-.32l.41-.4c1-.95,1.45-1.45,1.45-2a.7.7,0,0,0-.77-.76,1.33,1.33,0,0,0-.83.33l-.17-.37a1.71,1.71,0,0,1,1.1-.4,1.1,1.1,0,0,1,1.19,1.13c0,.72-.52,1.3-1.34,2.09l-.31.29H49.6v.44Z"/>
        <path class="cls-15" d="M50.19,94.26v-.32l.41-.4c1-.95,1.45-1.45,1.45-2a.7.7,0,0,0-.77-.76,1.33,1.33,0,0,0-.83.33l-.17-.37a1.71,1.71,0,0,1,1.1-.4,1.1,1.1,0,0,1,1.19,1.13c0,.72-.52,1.3-1.34,2.09l-.31.29h1.75v.44Z"/>
      </g>
      <use width="415.48" height="327.89" transform="translate(20.27 98) scale(0.08)" xlink:href="#DarkComp"/>
    </g>
    <g>
      <rect class="cls-14" x="14.83" y="142.33" width="44.92" height="44.92"/>
      <g>
        <path class="cls-15" d="M23,147.85h0l-.68.37-.1-.4.85-.46h.45v3.9H23Z"/>
        <path class="cls-15" d="M25.23,150.89a2.22,2.22,0,0,0,.43,0,1.47,1.47,0,0,0,.82-.38,1.71,1.71,0,0,0,.52-1h0a1.14,1.14,0,0,1-.92.42,1.13,1.13,0,0,1-1.15-1.19,1.34,1.34,0,0,1,1.33-1.39c.8,0,1.29.65,1.29,1.64a2.46,2.46,0,0,1-.67,1.83,2,2,0,0,1-1.13.52,2.45,2.45,0,0,1-.49,0Zm.19-2.24a.75.75,0,0,0,.75.83.87.87,0,0,0,.77-.41.35.35,0,0,0,0-.19c0-.67-.25-1.18-.8-1.18S25.42,148.09,25.42,148.65Z"/>
        <path class="cls-15" d="M28,151.26v-.32l.41-.4c1-.95,1.45-1.45,1.45-2a.7.7,0,0,0-.77-.76,1.33,1.33,0,0,0-.83.33l-.17-.37a1.71,1.71,0,0,1,1.1-.4,1.1,1.1,0,0,1,1.19,1.13c0,.72-.52,1.3-1.34,2.09l-.31.29h1.75v.44Z"/>
        <path class="cls-15" d="M31.12,150.95a.35.35,0,0,1,.36-.38.38.38,0,1,1-.36.38Z"/>
        <path class="cls-15" d="M33.46,147.85h0l-.68.37-.1-.4.85-.46H34v3.9h-.51Z"/>
        <path class="cls-15" d="M37.62,147.73a1.89,1.89,0,0,0-.4,0,1.58,1.58,0,0,0-1.35,1.39h0A1.19,1.19,0,0,1,38,150a1.3,1.3,0,0,1-1.3,1.37c-.83,0-1.38-.65-1.38-1.66a2.45,2.45,0,0,1,.66-1.76,2.12,2.12,0,0,1,1.25-.58,2.55,2.55,0,0,1,.38,0ZM37.47,150a.79.79,0,0,0-.8-.89.87.87,0,0,0-.76.48.45.45,0,0,0-.06.23c0,.64.31,1.12.86,1.12S37.47,150.54,37.47,150Z"/>
        <path class="cls-15" d="M38.43,150.27a1.11,1.11,0,0,1,.77-1v0a1,1,0,0,1-.62-.88,1.09,1.09,0,0,1,1.21-1,1,1,0,0,1,1.13,1,1,1,0,0,1-.64.91v0a1.08,1.08,0,0,1,.79,1,1.2,1.2,0,0,1-1.33,1.13C38.92,151.33,38.43,150.84,38.43,150.27Zm2.1,0c0-.47-.33-.7-.86-.85a.85.85,0,0,0-.7.8.72.72,0,0,0,.78.74A.71.71,0,0,0,40.52,150.25Zm-1.45-1.95c0,.39.29.6.74.72a.77.77,0,0,0,.59-.71.61.61,0,0,0-.66-.64A.62.62,0,0,0,39.07,148.3Z"/>
        <path class="cls-15" d="M41.59,150.95a.35.35,0,0,1,.36-.38.38.38,0,1,1-.36.38Z"/>
        <path class="cls-15" d="M43.94,147.85h0l-.68.37-.1-.4.85-.46h.45v3.9h-.51Z"/>
        <path class="cls-15" d="M45.91,150.95a.35.35,0,0,1,.36-.38.38.38,0,1,1-.36.38Z"/>
        <path class="cls-15" d="M49.34,147.73a1.89,1.89,0,0,0-.4,0,1.58,1.58,0,0,0-1.35,1.39h0a1.19,1.19,0,0,1,2.12.81,1.3,1.3,0,0,1-1.3,1.37c-.83,0-1.38-.65-1.38-1.66a2.45,2.45,0,0,1,.66-1.76,2.12,2.12,0,0,1,1.25-.58,2.55,2.55,0,0,1,.38,0ZM49.19,150a.79.79,0,0,0-.8-.89.87.87,0,0,0-.76.48.45.45,0,0,0-.06.23c0,.64.31,1.12.86,1.12S49.19,150.54,49.19,150Z"/>
        <path class="cls-15" d="M51.82,151.26V150.2H50v-.35l1.74-2.49h.57v2.42h.55v.41h-.55v1.06Zm0-1.48v-1.3q0-.31,0-.61h0c-.12.23-.22.4-.32.58l-1,1.33h1.28Z"/>
      </g>
      <use width="415.48" height="327.89" transform="translate(20.27 155) scale(0.08)" xlink:href="#DarkComp"/>
    </g>
    <g>
      <rect class="cls-14" x="14.83" y="199.33" width="44.92" height="44.92"/>
      <g>
        <path class="cls-15" d="M23,204.85h0l-.68.37-.1-.4.85-.46h.45v3.9H23Z"/>
        <path class="cls-15" d="M25.23,207.89a2.22,2.22,0,0,0,.43,0,1.47,1.47,0,0,0,.82-.38,1.71,1.71,0,0,0,.52-1h0a1.14,1.14,0,0,1-.92.42,1.13,1.13,0,0,1-1.15-1.19,1.34,1.34,0,0,1,1.33-1.39c.8,0,1.29.65,1.29,1.64a2.46,2.46,0,0,1-.67,1.83,2,2,0,0,1-1.13.52,2.45,2.45,0,0,1-.49,0Zm.19-2.24a.75.75,0,0,0,.75.83.87.87,0,0,0,.77-.41.35.35,0,0,0,0-.19c0-.67-.25-1.18-.8-1.18S25.42,205.09,25.42,205.65Z"/>
        <path class="cls-15" d="M28,208.26v-.32l.41-.4c1-.95,1.45-1.45,1.45-2a.7.7,0,0,0-.77-.76,1.33,1.33,0,0,0-.83.33l-.17-.37a1.71,1.71,0,0,1,1.1-.4,1.1,1.1,0,0,1,1.19,1.13c0,.72-.52,1.3-1.34,2.09l-.31.29h1.75v.44Z"/>
        <path class="cls-15" d="M31.12,207.95a.35.35,0,0,1,.36-.38.38.38,0,1,1-.36.38Z"/>
        <path class="cls-15" d="M33.46,204.85h0l-.68.37-.1-.4.85-.46H34v3.9h-.51Z"/>
        <path class="cls-15" d="M37.62,204.73a1.89,1.89,0,0,0-.4,0,1.58,1.58,0,0,0-1.35,1.39h0A1.19,1.19,0,0,1,38,207a1.3,1.3,0,0,1-1.3,1.37c-.83,0-1.38-.65-1.38-1.66a2.45,2.45,0,0,1,.66-1.76,2.12,2.12,0,0,1,1.25-.58,2.55,2.55,0,0,1,.38,0ZM37.47,207a.79.79,0,0,0-.8-.89.87.87,0,0,0-.76.48.45.45,0,0,0-.06.23c0,.64.31,1.12.86,1.12S37.47,207.54,37.47,207Z"/>
        <path class="cls-15" d="M38.43,207.27a1.11,1.11,0,0,1,.77-1v0a1,1,0,0,1-.62-.88,1.09,1.09,0,0,1,1.21-1,1,1,0,0,1,1.13,1,1,1,0,0,1-.64.91v0a1.08,1.08,0,0,1,.79,1,1.2,1.2,0,0,1-1.33,1.13C38.92,208.33,38.43,207.84,38.43,207.27Zm2.1,0c0-.47-.33-.7-.86-.85a.85.85,0,0,0-.7.8.72.72,0,0,0,.78.74A.71.71,0,0,0,40.52,207.25Zm-1.45-1.95c0,.39.29.6.74.72a.77.77,0,0,0,.59-.71.61.61,0,0,0-.66-.64A.62.62,0,0,0,39.07,205.3Z"/>
        <path class="cls-15" d="M41.59,207.95a.35.35,0,0,1,.36-.38.38.38,0,1,1-.36.38Z"/>
        <path class="cls-15" d="M43.94,204.85h0l-.68.37-.1-.4.85-.46h.45v3.9h-.51Z"/>
        <path class="cls-15" d="M48.2,204.81H46.71l-.15,1a2.06,2.06,0,0,1,.32,0,1.65,1.65,0,0,1,.84.21,1.11,1.11,0,0,1,.56,1,1.35,1.35,0,0,1-1.45,1.33,1.91,1.91,0,0,1-1-.24l.13-.4a1.74,1.74,0,0,0,.83.22.86.86,0,0,0,.92-.85c0-.5-.34-.86-1.12-.86a4,4,0,0,0-.54,0l.25-1.87H48.2Z"/>
        <path class="cls-15" d="M49,207.95a.35.35,0,0,1,.36-.38.38.38,0,1,1-.36.38Z"/>
        <path class="cls-15" d="M50.19,208.26v-.32l.41-.4c1-.95,1.45-1.45,1.45-2a.7.7,0,0,0-.77-.76,1.33,1.33,0,0,0-.83.33l-.17-.37a1.71,1.71,0,0,1,1.1-.4,1.1,1.1,0,0,1,1.19,1.13c0,.72-.52,1.3-1.34,2.09l-.31.29h1.75v.44Z"/>
      </g>
      <use width="29.14" height="24.86" transform="translate(49.24 211.59) rotate(90)" xlink:href="#Server"/>
    </g>
    <g>
      <line class="cls-16" x1="59.26" y1="52" x2="61.76" y2="52"/>
      <line class="cls-17" x1="66.59" y1="52" x2="122.09" y2="52"/>
      <polyline class="cls-16" points="124.5 52 127 52 127.01 54.5"/>
      <line class="cls-18" x1="127.03" y1="59.4" x2="127.48" y2="155.05"/>
      <polyline class="cls-16" points="127.49 157.5 127.5 160 130 160"/>
      <line class="cls-19" x1="134.94" y1="160" x2="172.03" y2="160"/>
      <polyline class="cls-16" points="174.5 160 177 160 177 157.5"/>
      <line class="cls-20" x1="177" y1="154.5" x2="177" y2="150"/>
      <line class="cls-16" x1="177" y1="148.5" x2="177" y2="146"/>
    </g>
    <g>
      <line class="cls-16" x1="59.74" y1="109.44" x2="62.24" y2="109.44"/>
      <line class="cls-21" x1="66.71" y1="109.44" x2="91.27" y2="109.44"/>
      <polyline class="cls-16" points="93.5 109.44 96 109.44 96 111.94"/>
      <line class="cls-22" x1="96" y1="117.26" x2="96" y2="167.84"/>
      <polyline class="cls-16" points="96 170.5 96 173 98.5 173"/>
      <line class="cls-23" x1="103.62" y1="173" x2="182.94" y2="173"/>
      <polyline class="cls-16" points="185.5 173 188 173 188 170.5"/>
      <line class="cls-24" x1="188" y1="166.1" x2="188" y2="150.7"/>
      <line class="cls-16" x1="188" y1="148.5" x2="188" y2="146"/>
    </g>
    <g>
      <line class="cls-16" x1="59.74" y1="166" x2="62.24" y2="166"/>
      <line class="cls-25" x1="67.33" y1="166" x2="74.96" y2="166"/>
      <polyline class="cls-16" points="77.5 166 80 166 80 168.5"/>
      <line class="cls-26" x1="80" y1="173.5" x2="80" y2="181"/>
      <polyline class="cls-16" points="80 183.5 80 186 82.5 186"/>
      <line class="cls-27" x1="87.41" y1="186" x2="193.04" y2="186"/>
      <polyline class="cls-16" points="195.5 186 198 186 198 183.5"/>
      <line class="cls-26" x1="198" y1="178.5" x2="198" y2="151"/>
      <line class="cls-16" x1="198" y1="148.5" x2="198" y2="146"/>
    </g>
    <g>
      <line class="cls-16" x1="59.74" y1="221" x2="62.24" y2="221"/>
      <polyline class="cls-28" points="67.29 221 80 221 205.98 221"/>
      <polyline class="cls-16" points="208.5 221 211 221 211 218.5"/>
      <line class="cls-29" x1="211" y1="213.83" x2="211" y2="150.83"/>
      <line class="cls-16" x1="211" y1="148.5" x2="211" y2="146"/>
    </g>
    <g>
      <line class="cls-30" x1="189" y1="102" x2="194" y2="102"/>
      <line class="cls-31" x1="197" y1="102" x2="221.5" y2="102"/>
      <polyline class="cls-30" points="223 102 228 102 228 97"/>
      <line class="cls-32" x1="228" y1="93.67" x2="228" y2="37.66"/>
      <line class="cls-30" x1="228" y1="36" x2="228" y2="31"/>
    </g>
    <g>
      <path class="cls-15" d="M184.53,134.85h0l-.68.37-.1-.4.85-.46H185v3.9h-.51Z"/>
      <path class="cls-15" d="M186.76,137.89a2.22,2.22,0,0,0,.43,0,1.47,1.47,0,0,0,.82-.38,1.71,1.71,0,0,0,.52-1h0a1.14,1.14,0,0,1-.92.42,1.13,1.13,0,0,1-1.15-1.19,1.34,1.34,0,0,1,1.33-1.39c.8,0,1.29.65,1.29,1.64a2.46,2.46,0,0,1-.67,1.83,2,2,0,0,1-1.13.52,2.45,2.45,0,0,1-.49,0Zm.19-2.24a.75.75,0,0,0,.75.83.87.87,0,0,0,.77-.41.35.35,0,0,0,0-.19c0-.67-.25-1.18-.8-1.18S187,135.09,187,135.65Z"/>
      <path class="cls-15" d="M189.54,138.26v-.32l.41-.4c1-.95,1.45-1.45,1.45-2a.7.7,0,0,0-.77-.76,1.33,1.33,0,0,0-.83.33l-.17-.37a1.71,1.71,0,0,1,1.1-.4,1.1,1.1,0,0,1,1.19,1.13c0,.72-.52,1.3-1.34,2.09l-.31.29H192v.44Z"/>
      <path class="cls-15" d="M192.66,137.95a.35.35,0,0,1,.36-.38.38.38,0,1,1-.36.38Z"/>
      <path class="cls-15" d="M195,134.85h0l-.68.37-.1-.4.85-.46h.45v3.9H195Z"/>
      <path class="cls-15" d="M199.16,134.73a1.89,1.89,0,0,0-.4,0,1.58,1.58,0,0,0-1.35,1.39h0a1.19,1.19,0,0,1,2.12.81,1.3,1.3,0,0,1-1.3,1.37c-.83,0-1.38-.65-1.38-1.66a2.45,2.45,0,0,1,.66-1.76,2.12,2.12,0,0,1,1.25-.58,2.55,2.55,0,0,1,.38,0ZM199,137a.79.79,0,0,0-.8-.89.87.87,0,0,0-.76.48.45.45,0,0,0-.06.23c0,.64.31,1.12.86,1.12S199,137.54,199,137Z"/>
      <path class="cls-15" d="M200,137.27a1.11,1.11,0,0,1,.77-1v0a1,1,0,0,1-.62-.88,1.09,1.09,0,0,1,1.21-1,1,1,0,0,1,1.13,1,1,1,0,0,1-.64.91v0a1.08,1.08,0,0,1,.79,1,1.2,1.2,0,0,1-1.33,1.13C200.46,138.33,200,137.84,200,137.27Zm2.1,0c0-.47-.33-.7-.86-.85a.85.85,0,0,0-.7.8.72.72,0,0,0,.78.74A.71.71,0,0,0,202.06,137.25Zm-1.45-1.95c0,.39.29.6.74.72a.77.77,0,0,0,.59-.71.61.61,0,0,0-.66-.64A.62.62,0,0,0,200.61,135.3Z"/>
      <path class="cls-15" d="M203.13,137.95a.35.35,0,0,1,.36-.38.38.38,0,1,1-.36.38Z"/>
      <path class="cls-15" d="M205.48,134.85h0l-.68.37-.1-.4.85-.46H206v3.9h-.51Z"/>
      <path class="cls-15" d="M207.45,137.95a.35.35,0,0,1,.36-.38.38.38,0,1,1-.36.38Z"/>
      <path class="cls-15" d="M209.8,134.85h0l-.68.37-.1-.4.85-.46h.45v3.9h-.51Z"/>
    </g>
    <rect class="cls-8" x="169.5" y="131" width="55.5" height="10"/>
    <g>
      <path class="cls-15" d="M193.28,109.26v-.32l.41-.4c1-1,1.44-1.46,1.45-2a.7.7,0,0,0-.78-.76,1.33,1.33,0,0,0-.83.33l-.17-.37a1.71,1.71,0,0,1,1.1-.4,1.1,1.1,0,0,1,1.2,1.13c0,.72-.52,1.3-1.34,2.1l-.31.29h1.75v.44Z"/>
      <path class="cls-15" d="M198.94,107.25c0,1.33-.49,2.06-1.35,2.06s-1.28-.71-1.3-2,.56-2,1.35-2S198.94,106,198.94,107.25Zm-2.12.07c0,1,.32,1.59.8,1.59s.8-.63.79-1.63-.25-1.59-.8-1.59S196.82,106.26,196.82,107.32Z"/>
      <path class="cls-15" d="M199.43,109.24v-.32l.41-.4c1-1,1.44-1.46,1.45-2a.7.7,0,0,0-.78-.76,1.33,1.33,0,0,0-.83.33l-.17-.37a1.71,1.71,0,0,1,1.1-.4,1.1,1.1,0,0,1,1.2,1.13c0,.72-.52,1.3-1.34,2.1l-.31.29h1.75v.44Z"/>
      <path class="cls-15" d="M202.55,108.92a.35.35,0,0,1,.36-.38.38.38,0,1,1-.36.38Z"/>
      <path class="cls-15" d="M204.89,105.82h0l-.68.37-.1-.4.85-.46h.45v3.9h-.51Z"/>
      <path class="cls-15" d="M206.78,108.23a1.11,1.11,0,0,1,.77-1v0a1,1,0,0,1-.62-.87,1.09,1.09,0,0,1,1.2-1,1,1,0,0,1,1.14,1,1,1,0,0,1-.64.91v0a1.08,1.08,0,0,1,.79,1,1.2,1.2,0,0,1-1.32,1.14C207.27,109.29,206.78,108.8,206.78,108.23Zm2.1,0c0-.47-.33-.7-.86-.85a.85.85,0,0,0-.7.81.72.72,0,0,0,.78.74A.71.71,0,0,0,208.88,108.2Zm-1.46-1.94c0,.39.3.6.75.72a.77.77,0,0,0,.59-.71.61.61,0,0,0-.66-.63A.62.62,0,0,0,207.42,106.26Z"/>
      <path class="cls-15" d="M212.22,105.75h-1.49l-.15,1a2.1,2.1,0,0,1,.32,0,1.64,1.64,0,0,1,.84.21,1.11,1.11,0,0,1,.56,1,1.35,1.35,0,0,1-1.45,1.34,1.91,1.91,0,0,1-1-.24l.13-.4a1.74,1.74,0,0,0,.83.21.86.86,0,0,0,.92-.85c0-.5-.34-.86-1.12-.86a4,4,0,0,0-.54,0l.25-1.87h1.87Z"/>
      <path class="cls-15" d="M213,108.89a.35.35,0,0,1,.36-.38.38.38,0,0,1,0,.76A.35.35,0,0,1,213,108.89Z"/>
      <path class="cls-15" d="M214.23,109.2v-.32l.41-.4c1-1,1.44-1.46,1.45-2a.7.7,0,0,0-.78-.76,1.33,1.33,0,0,0-.83.33l-.17-.37a1.71,1.71,0,0,1,1.1-.4,1.1,1.1,0,0,1,1.2,1.13c0,.72-.52,1.3-1.34,2.1l-.31.29h1.75v.44Z"/>
      <path class="cls-15" d="M218.94,109.18v-1.06h-1.81v-.35l1.73-2.49h.57v2.42H220v.41h-.55v1.06Zm0-1.48v-1.3q0-.31,0-.61h0c-.12.23-.21.4-.32.58l-.95,1.33h1.28Z"/>
      <path class="cls-15" d="M220.43,108.87a.35.35,0,0,1,.36-.38.38.38,0,1,1-.36.38Z"/>
      <path class="cls-15" d="M223.84,105.64a1.93,1.93,0,0,0-.4,0,1.58,1.58,0,0,0-1.35,1.39h0a1.19,1.19,0,0,1,2.12.8,1.3,1.3,0,0,1-1.29,1.38c-.83,0-1.38-.64-1.38-1.66a2.45,2.45,0,0,1,.65-1.76,2.13,2.13,0,0,1,1.25-.58,2.57,2.57,0,0,1,.38,0Zm-.14,2.25a.79.79,0,0,0-.81-.89.87.87,0,0,0-.75.48.45.45,0,0,0-.06.23c0,.64.31,1.11.86,1.11S223.7,108.45,223.7,107.89Z"/>
      <path class="cls-15" d="M224.83,108.56a1.76,1.76,0,0,0,.86.24c.68,0,.89-.43.88-.76,0-.55-.5-.78-1-.78h-.29v-.4h.29c.38,0,.87-.2.87-.66s-.2-.59-.69-.59a1.44,1.44,0,0,0-.78.26l-.14-.38a1.85,1.85,0,0,1,1-.3c.77,0,1.12.45,1.12.93a1,1,0,0,1-.72.92h0a1,1,0,0,1,.87,1c0,.62-.48,1.17-1.42,1.17a2,2,0,0,1-1-.26Z"/>
    </g>
    <rect class="cls-8" x="182.5" y="102" width="55.5" height="10" transform="translate(-0.33 0.64) rotate(-0.18)"/>
  </g>
</svg>
