<svg xmlns="http://www.w3.org/2000/svg" viewBox="0 0 528 751.07">
  <defs>
    <style>
      .cls-1 {
        fill: #c62828;
      }

      .cls-2 {
        fill: #fff;
      }

      .cls-3 {
        fill: #e53935;
      }

      .cls-4 {
        fill: #ef5350;
      }

      .cls-5 {
        fill: #e57373;
      }

      .cls-6 {
        fill: #ef9a9a;
      }

      .cls-7 {
        fill: #ffcdd2;
      }

      .cls-8 {
        fill: #ffebee;
      }

      .cls-9 {
        fill: #c93535;
      }
    </style>
  </defs>
  <title>OsiModel</title>
  <g id="AllOSI">
    <g id="PhysicalLayer">
      <g>
        <rect class="cls-1" x="1" y="644.78" width="262" height="105.3"/>
        <path class="cls-2" d="M262,645.78v103.3H2V645.78H262m2-2H0v107.3H264V643.78Z"/>
      </g>
      <g>
        <path d="M83.54,686.81v4a6.82,6.82,0,0,1-6.8,6.8H68a2.15,2.15,0,0,1-2.32-1.6v13.56a.53.53,0,0,1-.52.52H61.9V682.33A2.32,2.32,0,0,1,64.22,680H76.74A6.82,6.82,0,0,1,83.54,686.81Zm-3.76-.32a3,3,0,0,0-3-3H66.42a.76.76,0,0,0-.76.76v9.16a.79.79,0,0,0,.76.76H76.74a3,3,0,0,0,3-3Z"/>
        <path d="M87.18,680h3a.44.44,0,0,1,.44.44v10.84A3.36,3.36,0,0,1,93.38,690h5.08c3.2,0,5.56,1.84,5.56,5.6V710h-3a.44.44,0,0,1-.44-.44V695.73a2.34,2.34,0,0,0-2.36-2.36h-5.6a2.18,2.18,0,0,0-1.92,2V710h-3a.44.44,0,0,1-.44-.44Z"/>
        <path d="M124.82,690a.41.41,0,0,1,.44.4V714a5.85,5.85,0,0,1-5.84,5.84h-9.84v-2.88a.44.44,0,0,1,.44-.44h9.4a2.39,2.39,0,0,0,2.36-2.36v-5.36A3.56,3.56,0,0,1,119,710H114.5a5.85,5.85,0,0,1-5.84-5.84V690h3a.41.41,0,0,1,.44.4v13.92a2.36,2.36,0,0,0,2.36,2.36h5.32a2.29,2.29,0,0,0,2-2V690Z"/>
        <path d="M129.58,698v-2.68c0-3.24,2.24-5.28,5.48-5.28h11v2.84a.44.44,0,0,1-.44.44H135.06a1.75,1.75,0,0,0-2,2v1.16a.51.51,0,0,0,.36.44l12.36,2.92a1.33,1.33,0,0,1,1.08,1.32v3.56c0,3.48-2.48,5.36-5.72,5.36H129.82V707.2a.44.44,0,0,1,.44-.44h10.88a2.22,2.22,0,0,0,2.48-2.08V702.8a.42.42,0,0,0-.36-.4l-12.56-3.08A1.37,1.37,0,0,1,129.58,698Z"/>
        <path d="M155.34,681.53v3.28h-3a.44.44,0,0,1-.44-.44v-3.28h3A.44.44,0,0,1,155.34,681.53Zm0,8.92V710h-3a.44.44,0,0,1-.44-.44V690h3A.41.41,0,0,1,155.34,690.45Z"/>
        <path d="M163.54,695.77v8.6a2.34,2.34,0,0,0,2.36,2.36H173a.44.44,0,0,1,.44.44V710H165.9a5.85,5.85,0,0,1-5.84-5.84v-8.28a5.85,5.85,0,0,1,5.84-5.84h7.52V693a.41.41,0,0,1-.44.4H165.9A2.37,2.37,0,0,0,163.54,695.77Z"/>
        <path d="M193.66,695.65v13.12a1.26,1.26,0,0,1-1.28,1.28H183a5.82,5.82,0,0,1-5.84-5.84V703a5.82,5.82,0,0,1,5.84-5.84h6.76a.44.44,0,0,0,.44-.44v-1a2.26,2.26,0,0,0-2.4-2.36h-8a.44.44,0,0,1-.44-.44V690h8.4C191.06,690,193.66,692,193.66,695.65Zm-10.64,11h6.8a.41.41,0,0,0,.4-.44v-6.36a1.28,1.28,0,0,1-1,.6H183a2.34,2.34,0,0,0-2.36,2.36v1.48A2.34,2.34,0,0,0,183,706.64Z"/>
        <path d="M201.9,680.49V710h-3a.44.44,0,0,1-.44-.44V680h3A.44.44,0,0,1,201.9,680.49Z"/>
      </g>
    </g>
    <g id="DataLinkLayer">
      <g>
        <rect class="cls-3" x="1" y="537.48" width="262" height="105.3"/>
        <path class="cls-2" d="M262,538.48v103.3H2V538.48H262m2-2H0v107.3H264V536.48Z"/>
      </g>
      <g>
        <path d="M49.58,600.43V575a2.32,2.32,0,0,1,2.32-2.32H64.74a6.79,6.79,0,0,1,6.8,6.8v16.44a6.82,6.82,0,0,1-6.8,6.8H51.9A2.32,2.32,0,0,1,49.58,600.43Zm15.16-1.12a3,3,0,0,0,3-3V579.19a3,3,0,0,0-3-3H54.1a.74.74,0,0,0-.76.76v21.64a.76.76,0,0,0,.76.76Z"/>
        <path d="M92,588.35v13.12a1.26,1.26,0,0,1-1.28,1.28H81.38a5.82,5.82,0,0,1-5.84-5.84v-1.24a5.82,5.82,0,0,1,5.84-5.84h6.76a.44.44,0,0,0,.44-.44v-1a2.26,2.26,0,0,0-2.4-2.36h-8a.44.44,0,0,1-.44-.44v-2.84h8.4C89.42,582.75,92,584.71,92,588.35Zm-10.64,11h6.8a.41.41,0,0,0,.4-.44v-6.36a1.28,1.28,0,0,1-1,.6H81.38A2.34,2.34,0,0,0,79,595.51V597A2.34,2.34,0,0,0,81.38,599.35Z"/>
        <path d="M106.7,599.87v2.88h-4a5.85,5.85,0,0,1-5.84-5.84V573.07h3a.44.44,0,0,1,.44.44v10a1.25,1.25,0,0,1,1.16-.72h4.24v2.88a.41.41,0,0,1-.44.4h-5v11a2.34,2.34,0,0,0,2.36,2.36h3.6A.44.44,0,0,1,106.7,599.87Z"/>
        <path d="M126,588.35v13.12a1.26,1.26,0,0,1-1.28,1.28h-9.36a5.82,5.82,0,0,1-5.84-5.84v-1.24a5.82,5.82,0,0,1,5.84-5.84h6.76a.44.44,0,0,0,.44-.44v-1a2.26,2.26,0,0,0-2.4-2.36h-8a.44.44,0,0,1-.44-.44v-2.84h8.4C123.42,582.75,126,584.71,126,588.35Zm-10.64,11h6.8a.41.41,0,0,0,.4-.44v-6.36a1.28,1.28,0,0,1-1,.6h-6.16a2.34,2.34,0,0,0-2.36,2.36V597A2.34,2.34,0,0,0,115.38,599.35Z"/>
        <path d="M145.94,595.83v-22.6a.53.53,0,0,1,.52-.52h3.24v23.48a3.11,3.11,0,0,0,3.08,3.12h12.48a.53.53,0,0,1,.52.52v2.92h-13A6.9,6.9,0,0,1,145.94,595.83Z"/>
        <path d="M172.58,574.23v3.28h-3a.44.44,0,0,1-.44-.44v-3.28h3A.44.44,0,0,1,172.58,574.23Zm0,8.92v19.6h-3a.44.44,0,0,1-.44-.44V582.75h3A.41.41,0,0,1,172.58,583.15Z"/>
        <path d="M194.62,588.59v14.16h-3a.44.44,0,0,1-.44-.44V588.39a2.36,2.36,0,0,0-2.36-2.36h-7.24a.44.44,0,0,0-.44.44v15.84a.44.44,0,0,1-.44.44h-3v-17.4a2.59,2.59,0,0,1,2.6-2.6h8.56A5.82,5.82,0,0,1,194.62,588.59Z"/>
        <path d="M216.3,602.75h-3.44a.71.71,0,0,1-.64-.4l-3.92-7.88h-4.84a.44.44,0,0,0-.44.44v7.4a.44.44,0,0,1-.44.44h-3V573.07h3a.44.44,0,0,1,.44.44v18.36a1.2,1.2,0,0,1,1.08-.68H209a2.37,2.37,0,0,0,2.36-2.4v-5.6a.44.44,0,0,1,.44-.44h3v5.88a5.79,5.79,0,0,1-3,5.12Z"/>
      </g>
    </g>
    <g id="NetworkLayer">
      <g>
        <rect class="cls-4" x="1" y="430.18" width="262" height="105.3"/>
        <path class="cls-2" d="M262,431.18v103.3H2V431.18H262m2-2H0v107.3H264V429.18Z"/>
      </g>
      <g>
        <path d="M80.36,490c-.4-3.12-.4-5.64-.6-8.48v-15.6a.53.53,0,0,1,.52-.52h3.24v30H80a1,1,0,0,1-.76-.48L65.6,469.5a1.35,1.35,0,0,0-1.08-.64h-.68v26.08a.53.53,0,0,1-.52.52H60.08V465.94a.53.53,0,0,1,.52-.52h4.56a4.25,4.25,0,0,1,3.4,2l8.16,15.4Z"/>
        <path d="M88.36,489.61v-8.48c0-3.72,2.6-5.68,5.84-5.68h5.36c3.24,0,5.84,2,5.84,5.68v4.6c0,.68-.08,1.24-1,1.24h-11a1.91,1.91,0,0,1-1.56-.76v3.56a2.34,2.34,0,0,0,2.36,2.36h9.92a.44.44,0,0,1,.44.44v2.88H94.2A5.82,5.82,0,0,1,88.36,489.61Zm5.84-10.88a2.18,2.18,0,0,0-2.36,2.36v2.16a.44.44,0,0,0,.4.44h9.32a.44.44,0,0,0,.44-.44v-2.16a2.05,2.05,0,0,0-2.32-2.36Z"/>
        <path d="M120.2,492.57v2.88h-4a5.85,5.85,0,0,1-5.84-5.84V465.78h3a.44.44,0,0,1,.44.44v10a1.25,1.25,0,0,1,1.16-.72h4.24v2.88a.41.41,0,0,1-.44.4h-5v11a2.34,2.34,0,0,0,2.36,2.36h3.6A.44.44,0,0,1,120.2,492.57Z"/>
        <path d="M147.92,475.45v17.4a2.59,2.59,0,0,1-2.6,2.6H129.6a5.82,5.82,0,0,1-5.84-5.84V475.45h3a.41.41,0,0,1,.44.4v13.92a2.34,2.34,0,0,0,2.36,2.36h5.2a1.27,1.27,0,0,1-.68-1.12V475.45h3a.41.41,0,0,1,.44.4v15.84a.41.41,0,0,0,.4.44h6a.41.41,0,0,0,.4-.44V475.85a.41.41,0,0,1,.44-.4Z"/>
        <path d="M158.48,495.73a5.82,5.82,0,0,1-5.84-5.84V481a5.85,5.85,0,0,1,5.84-5.84h5.28a5.88,5.88,0,0,1,5.88,5.84v8.88a5.85,5.85,0,0,1-5.88,5.84Zm-2.36-14.88v9.2a2.37,2.37,0,0,0,2.36,2.4h5.28a2.41,2.41,0,0,0,2.4-2.4v-9.2a2.4,2.4,0,0,0-2.4-2.36h-5.28A2.36,2.36,0,0,0,156.12,480.85Z"/>
        <path d="M185.32,475.45v2.88a.44.44,0,0,1-.44.44h-5a1.93,1.93,0,0,0-1.92,1.8v14.88h-3a.44.44,0,0,1-.44-.44V475.45h3a.41.41,0,0,1,.44.4v.88a3.36,3.36,0,0,1,2.72-1.28Z"/>
        <path d="M205.72,495.45h-3.44a.71.71,0,0,1-.64-.4l-3.92-7.88h-4.84a.44.44,0,0,0-.44.44V495a.44.44,0,0,1-.44.44h-3V465.78h3a.44.44,0,0,1,.44.44v18.36a1.2,1.2,0,0,1,1.08-.68h4.92a2.37,2.37,0,0,0,2.36-2.4v-5.6a.44.44,0,0,1,.44-.44h3v5.88a5.79,5.79,0,0,1-3,5.12Z"/>
      </g>
    </g>
    <g id="TransportLayer">
      <g>
        <rect class="cls-5" x="1" y="322.89" width="262" height="105.3"/>
        <path class="cls-2" d="M262,323.89v103.3H2V323.89H262m2-2H0v107.3H264V321.89Z"/>
      </g>
      <g>
        <path d="M69.74,357.82v2.92a.53.53,0,0,1-.52.52H60.66v26.08a.5.5,0,0,1-.52.52H56.9v-26.6h-9v-2.92a.53.53,0,0,1,.52-.52Z"/>
        <path d="M81.18,367.86v2.88a.44.44,0,0,1-.44.44h-5a1.93,1.93,0,0,0-1.92,1.8v14.88h-3a.44.44,0,0,1-.44-.44V367.86h3a.41.41,0,0,1,.44.4v.88a3.36,3.36,0,0,1,2.72-1.28Z"/>
        <path d="M99.58,373.46v13.12a1.26,1.26,0,0,1-1.28,1.28H88.94A5.82,5.82,0,0,1,83.1,382v-1.24a5.82,5.82,0,0,1,5.84-5.84H95.7a.44.44,0,0,0,.44-.44v-1a2.26,2.26,0,0,0-2.4-2.36h-8a.44.44,0,0,1-.44-.44v-2.84h8.4C97,367.86,99.58,369.82,99.58,373.46Zm-10.64,11h6.8a.41.41,0,0,0,.4-.44v-6.36a1.28,1.28,0,0,1-1,.6H88.94a2.34,2.34,0,0,0-2.36,2.36v1.48A2.34,2.34,0,0,0,88.94,384.46Z"/>
        <path d="M121.34,373.7v14.16h-3a.44.44,0,0,1-.44-.44V373.5a2.36,2.36,0,0,0-2.36-2.36h-7.24a.44.44,0,0,0-.44.44v15.84a.44.44,0,0,1-.44.44h-3v-17.4a2.59,2.59,0,0,1,2.6-2.6h8.56A5.82,5.82,0,0,1,121.34,373.7Z"/>
        <path d="M125.7,375.82v-2.68c0-3.24,2.24-5.28,5.48-5.28h11v2.84a.44.44,0,0,1-.44.44H131.18a1.75,1.75,0,0,0-2,2v1.16a.51.51,0,0,0,.36.44l12.36,2.92a1.33,1.33,0,0,1,1.08,1.32v3.56c0,3.48-2.48,5.36-5.72,5.36H125.94V385a.44.44,0,0,1,.44-.44h10.88a2.22,2.22,0,0,0,2.48-2.08v-1.88a.43.43,0,0,0-.36-.4l-12.56-3.08A1.37,1.37,0,0,1,125.7,375.82Z"/>
        <path d="M158.78,387.86h-4.6a3.47,3.47,0,0,1-2.72-1.28v10.6a.44.44,0,0,1-.44.44h-3V369.1a1.25,1.25,0,0,1,1.28-1.24h9.52c3.2,0,5.84,1.68,5.84,5.64v8.72A5.6,5.6,0,0,1,158.78,387.86Zm2.36-14.36a2.09,2.09,0,0,0-2.36-2.36H151.9a.44.44,0,0,0-.44.44V382.5a2.22,2.22,0,0,0,1.92,2h5.4a2.36,2.36,0,0,0,2.36-2.36Z"/>
        <path d="M175.18,388.14a5.82,5.82,0,0,1-5.84-5.84v-8.88a5.85,5.85,0,0,1,5.84-5.84h5.28a5.88,5.88,0,0,1,5.88,5.84v8.88a5.85,5.85,0,0,1-5.88,5.84Zm-2.36-14.88v9.2a2.37,2.37,0,0,0,2.36,2.4h5.28a2.41,2.41,0,0,0,2.4-2.4v-9.2a2.4,2.4,0,0,0-2.4-2.36h-5.28A2.36,2.36,0,0,0,172.82,373.26Z"/>
        <path d="M202,367.86v2.88a.44.44,0,0,1-.44.44h-5a1.93,1.93,0,0,0-1.92,1.8v14.88h-3a.44.44,0,0,1-.44-.44V367.86h3a.41.41,0,0,1,.44.4v.88a3.35,3.35,0,0,1,2.72-1.28Z"/>
        <path d="M215.58,385v2.88h-4A5.85,5.85,0,0,1,205.7,382V358.18h3a.44.44,0,0,1,.44.44v10a1.25,1.25,0,0,1,1.16-.72h4.24v2.88a.41.41,0,0,1-.44.4h-5v11a2.34,2.34,0,0,0,2.36,2.36h3.6A.44.44,0,0,1,215.58,385Z"/>
      </g>
    </g>
    <g id="SessionsLayer">
      <g>
        <rect class="cls-6" x="1" y="215.59" width="262" height="105.3"/>
        <path class="cls-2" d="M262,216.59v103.3H2V216.59H262m2-2H0v107.3H264V214.59Z"/>
      </g>
      <g>
        <path d="M77.56,277.42a3,3,0,0,0,3-3v-3.64a1.08,1.08,0,0,0-.72-1l-15.36-5.12a3.43,3.43,0,0,1-2.2-3v-4.76c0-3.76,3-6,6.8-6H83.28v2.92a.5.5,0,0,1-.52.52H69A2.85,2.85,0,0,0,66,257v3.88a1.08,1.08,0,0,0,.72,1L82,267a3.37,3.37,0,0,1,2.08,3.08v4.28a6.38,6.38,0,0,1-6.56,6.52H62.24v-2.92a.5.5,0,0,1,.52-.52Z"/>
        <path d="M88.4,275v-8.48c0-3.72,2.6-5.68,5.84-5.68H99.6c3.24,0,5.84,2,5.84,5.68v4.6c0,.68-.08,1.24-1,1.24h-11a1.91,1.91,0,0,1-1.56-.76v3.56a2.34,2.34,0,0,0,2.36,2.36h9.92a.44.44,0,0,1,.44.44v2.88H94.24A5.82,5.82,0,0,1,88.4,275Zm5.84-10.88a2.18,2.18,0,0,0-2.36,2.36v2.16a.44.44,0,0,0,.4.44h9.32a.44.44,0,0,0,.44-.44V266.5a2.05,2.05,0,0,0-2.32-2.36Z"/>
        <path d="M109.76,268.82v-2.68c0-3.24,2.24-5.28,5.48-5.28h11v2.84a.44.44,0,0,1-.44.44H115.24a1.75,1.75,0,0,0-2,2v1.16a.51.51,0,0,0,.36.44L126,270.62a1.33,1.33,0,0,1,1.08,1.32v3.56c0,3.48-2.48,5.36-5.72,5.36H110V278a.44.44,0,0,1,.44-.44h10.88a2.22,2.22,0,0,0,2.48-2.08v-1.88a.43.43,0,0,0-.36-.4l-12.56-3.08A1.37,1.37,0,0,1,109.76,268.82Z"/>
        <path d="M131.36,268.82v-2.68c0-3.24,2.24-5.28,5.48-5.28h11v2.84a.44.44,0,0,1-.44.44H136.84a1.75,1.75,0,0,0-2,2v1.16a.51.51,0,0,0,.36.44l12.36,2.92a1.33,1.33,0,0,1,1.08,1.32v3.56c0,3.48-2.48,5.36-5.72,5.36H131.6V278a.44.44,0,0,1,.44-.44h10.88a2.22,2.22,0,0,0,2.48-2.08v-1.88a.43.43,0,0,0-.36-.4l-12.56-3.08A1.37,1.37,0,0,1,131.36,268.82Z"/>
        <path d="M157.12,252.34v3.28h-3a.44.44,0,0,1-.44-.44V251.9h3A.44.44,0,0,1,157.12,252.34Zm0,8.92v19.6h-3a.44.44,0,0,1-.44-.44V260.86h3A.41.41,0,0,1,157.12,261.26Z"/>
        <path d="M167.92,281.14a5.82,5.82,0,0,1-5.84-5.84v-8.88a5.85,5.85,0,0,1,5.84-5.84h5.28a5.88,5.88,0,0,1,5.88,5.84v8.88a5.85,5.85,0,0,1-5.88,5.84Zm-2.36-14.88v9.2a2.37,2.37,0,0,0,2.36,2.4h5.28a2.41,2.41,0,0,0,2.4-2.4v-9.2a2.4,2.4,0,0,0-2.4-2.36h-5.28A2.36,2.36,0,0,0,165.56,266.26Z"/>
        <path d="M200.92,266.7v14.16h-3a.44.44,0,0,1-.44-.44V266.5a2.36,2.36,0,0,0-2.36-2.36h-7.24a.44.44,0,0,0-.44.44v15.84a.44.44,0,0,1-.44.44h-3v-17.4a2.59,2.59,0,0,1,2.6-2.6h8.56A5.82,5.82,0,0,1,200.92,266.7Z"/>
      </g>
    </g>
    <g id="PresentationLayer">
      <g>
        <rect class="cls-7" x="1" y="108.3" width="262" height="105.3"/>
        <path class="cls-2" d="M262,109.3v103.3H2V109.3H262m2-2H0v107.3H264V107.3Z"/>
      </g>
      <g>
        <path d="M53.9,153.23v3.47a6,6,0,0,1-6,6H40.28a1.88,1.88,0,0,1-2-1.4v11.87a.46.46,0,0,1-.46.46H35V149.31a2,2,0,0,1,2-2H48A6,6,0,0,1,53.9,153.23Zm-3.29-.28A2.66,2.66,0,0,0,48,150.29h-9a.66.66,0,0,0-.67.67v8a.69.69,0,0,0,.67.67h9A2.66,2.66,0,0,0,50.61,157Z"/>
        <path d="M66.54,156.06v2.52a.39.39,0,0,1-.39.38H61.77a1.69,1.69,0,0,0-1.68,1.58v13H57.43a.39.39,0,0,1-.39-.39V156.06h2.66a.36.36,0,0,1,.39.35v.77a2.94,2.94,0,0,1,2.38-1.12Z"/>
        <path d="M69.44,168.45V161c0-3.26,2.28-5,5.11-5h4.69c2.83,0,5.11,1.72,5.11,5v4c0,.6-.07,1.08-.91,1.08H73.85a1.68,1.68,0,0,1-1.37-.67v3.12a2,2,0,0,0,2.07,2.07h8.68a.39.39,0,0,1,.39.38v2.52H74.55A5.09,5.09,0,0,1,69.44,168.45Zm5.11-9.52A1.91,1.91,0,0,0,72.48,161v1.89a.38.38,0,0,0,.35.39H81a.39.39,0,0,0,.39-.39V161a1.8,1.8,0,0,0-2-2.06Z"/>
        <path d="M88.13,163v-2.35a4.44,4.44,0,0,1,4.8-4.62h9.59v2.49a.39.39,0,0,1-.38.39H92.92a1.53,1.53,0,0,0-1.75,1.71v1a.45.45,0,0,0,.32.39l10.82,2.56a1.16,1.16,0,0,1,.95,1.16v3.12c0,3-2.17,4.69-5,4.69H88.34v-2.49a.39.39,0,0,1,.38-.38h9.52a2,2,0,0,0,2.17-1.82v-1.65a.37.37,0,0,0-.31-.35l-11-2.7A1.2,1.2,0,0,1,88.13,163Z"/>
        <path d="M107.52,168.45V161c0-3.26,2.28-5,5.11-5h4.69c2.83,0,5.11,1.72,5.11,5v4c0,.6-.07,1.08-.91,1.08h-9.59a1.68,1.68,0,0,1-1.37-.67v3.12a2,2,0,0,0,2.07,2.07h8.68a.39.39,0,0,1,.39.38v2.52h-9.07A5.09,5.09,0,0,1,107.52,168.45Zm5.11-9.52a1.91,1.91,0,0,0-2.07,2.06v1.89a.38.38,0,0,0,.35.39h8.16a.39.39,0,0,0,.39-.39V161a1.8,1.8,0,0,0-2-2.06Z"/>
        <path d="M141.57,161.17v12.39h-2.66a.39.39,0,0,1-.38-.39V161a2.07,2.07,0,0,0-2.07-2.06h-6.34a.39.39,0,0,0-.39.38v13.86a.39.39,0,0,1-.38.39H126.7V158.34a2.27,2.27,0,0,1,2.28-2.28h7.49A5.09,5.09,0,0,1,141.57,161.17Z"/>
        <path d="M154.56,171v2.52H151a5.12,5.12,0,0,1-5.11-5.11V147.59h2.66a.39.39,0,0,1,.39.38v8.75a1.09,1.09,0,0,1,1-.63h3.71v2.52a.36.36,0,0,1-.39.35H149v9.63a2,2,0,0,0,2.06,2.07h3.15A.39.39,0,0,1,154.56,171Z"/>
        <path d="M171.46,161v11.48a1.11,1.11,0,0,1-1.12,1.12h-8.19a5.09,5.09,0,0,1-5.11-5.11v-1.09a5.09,5.09,0,0,1,5.11-5.11h5.92a.39.39,0,0,0,.38-.39V161a2,2,0,0,0-2.1-2.06h-7a.39.39,0,0,1-.38-.39v-2.49h7.35C169.19,156.06,171.46,157.78,171.46,161Zm-9.31,9.63h6a.36.36,0,0,0,.35-.39v-5.57a1.12,1.12,0,0,1-.91.52h-5.39a2,2,0,0,0-2.07,2.07v1.29A2,2,0,0,0,162.15,170.59Z"/>
        <path d="M184.31,171v2.52h-3.54a5.12,5.12,0,0,1-5.11-5.11V147.59h2.66a.39.39,0,0,1,.39.38v8.75a1.09,1.09,0,0,1,1-.63h3.71v2.52a.36.36,0,0,1-.39.35h-4.34v9.63a2,2,0,0,0,2.06,2.07h3.15A.39.39,0,0,1,184.31,171Z"/>
        <path d="M190.61,148.61v2.87h-2.66a.39.39,0,0,1-.39-.38v-2.87h2.66A.39.39,0,0,1,190.61,148.61Zm0,7.81v17.15h-2.66a.39.39,0,0,1-.39-.39V156.06h2.66A.36.36,0,0,1,190.61,156.41Z"/>
        <path d="M200.06,173.81a5.09,5.09,0,0,1-5.11-5.11v-7.77a5.12,5.12,0,0,1,5.11-5.11h4.62a5.15,5.15,0,0,1,5.15,5.11v7.77a5.12,5.12,0,0,1-5.15,5.11Zm-2.07-13v8.05a2.08,2.08,0,0,0,2.07,2.1h4.62a2.11,2.11,0,0,0,2.1-2.1v-8.05a2.1,2.1,0,0,0-2.1-2.07h-4.62A2.07,2.07,0,0,0,198,160.79Z"/>
        <path d="M228.93,161.17v12.39h-2.66a.39.39,0,0,1-.38-.39V161a2.07,2.07,0,0,0-2.07-2.06h-6.34a.39.39,0,0,0-.38.38v13.86a.39.39,0,0,1-.38.39h-2.66V158.34a2.27,2.27,0,0,1,2.27-2.28h7.49A5.09,5.09,0,0,1,228.93,161.17Z"/>
      </g>
    </g>
    <g id="ApplicationLayer">
      <g>
        <rect class="cls-8" x="1" y="1" width="262" height="105.3"/>
        <path class="cls-2" d="M262,2V105.3H2V2H262m2-2H0V107.3H264V0Z"/>
      </g>
      <g>
        <path d="M64.16,66.27H60.88a.74.74,0,0,1-.72-.52L57.48,58H42.2l-2.68,7.72a.78.78,0,0,1-.72.52H35.52l9.76-27.8a3.37,3.37,0,0,1,3.16-2.24H53.2a.55.55,0,0,1,.48.28ZM56.28,54.59l-5.2-14.92h-2a.77.77,0,0,0-.72.52l-5,14.4Z"/>
        <path d="M78.2,66.27H73.6A3.47,3.47,0,0,1,70.88,65v10.6a.44.44,0,0,1-.44.44h-3V47.51a1.26,1.26,0,0,1,1.28-1.24H78.2C81.4,46.27,84,48,84,51.91v8.72A5.6,5.6,0,0,1,78.2,66.27Zm2.36-14.36a2.09,2.09,0,0,0-2.36-2.36H71.32a.44.44,0,0,0-.44.44V60.91a2.22,2.22,0,0,0,1.92,2h5.4a2.36,2.36,0,0,0,2.36-2.36Z"/>
        <path d="M99.76,66.27h-4.6A3.47,3.47,0,0,1,92.44,65v10.6A.44.44,0,0,1,92,76H89V47.51a1.26,1.26,0,0,1,1.28-1.24h9.52c3.2,0,5.84,1.68,5.84,5.64v8.72A5.6,5.6,0,0,1,99.76,66.27Zm2.36-14.36a2.09,2.09,0,0,0-2.36-2.36H92.88a.44.44,0,0,0-.44.44V60.91a2.22,2.22,0,0,0,1.92,2h5.4a2.36,2.36,0,0,0,2.36-2.36Z"/>
        <path d="M113.88,36.71V66.27h-3a.44.44,0,0,1-.44-.44V36.27h3A.44.44,0,0,1,113.88,36.71Z"/>
        <path d="M122.48,37.75V41h-3a.44.44,0,0,1-.44-.44V37.31h3A.44.44,0,0,1,122.48,37.75Zm0,8.92v19.6h-3a.44.44,0,0,1-.44-.44V46.27h3A.41.41,0,0,1,122.48,46.67Z"/>
        <path d="M130.68,52v8.6A2.34,2.34,0,0,0,133,62.95h7.08a.44.44,0,0,1,.44.44v2.88H133a5.85,5.85,0,0,1-5.84-5.84V52.15A5.85,5.85,0,0,1,133,46.31h7.52v2.88a.41.41,0,0,1-.44.4H133A2.37,2.37,0,0,0,130.68,52Z"/>
        <path d="M160.8,51.87V65a1.26,1.26,0,0,1-1.28,1.28h-9.36a5.82,5.82,0,0,1-5.84-5.84V59.19a5.82,5.82,0,0,1,5.84-5.84h6.76a.44.44,0,0,0,.44-.44v-1a2.26,2.26,0,0,0-2.4-2.36h-8a.44.44,0,0,1-.44-.44V46.27H155C158.2,46.27,160.8,48.23,160.8,51.87Zm-10.64,11H157a.41.41,0,0,0,.4-.44V56.07a1.28,1.28,0,0,1-1,.6h-6.16A2.34,2.34,0,0,0,147.8,59v1.48A2.34,2.34,0,0,0,150.16,62.87Z"/>
        <path d="M175.48,63.39v2.88h-4a5.85,5.85,0,0,1-5.84-5.84V36.59h3a.44.44,0,0,1,.44.44V47a1.25,1.25,0,0,1,1.16-.72h4.24v2.88a.41.41,0,0,1-.44.4h-5v11a2.34,2.34,0,0,0,2.36,2.36H175A.44.44,0,0,1,175.48,63.39Z"/>
        <path d="M182.68,37.75V41h-3a.44.44,0,0,1-.44-.44V37.31h3A.44.44,0,0,1,182.68,37.75Zm0,8.92v19.6h-3a.44.44,0,0,1-.44-.44V46.27h3A.41.41,0,0,1,182.68,46.67Z"/>
        <path d="M193.48,66.55a5.82,5.82,0,0,1-5.84-5.84V51.83A5.85,5.85,0,0,1,193.48,46h5.28a5.88,5.88,0,0,1,5.88,5.84v8.88a5.85,5.85,0,0,1-5.88,5.84Zm-2.36-14.88v9.2a2.37,2.37,0,0,0,2.36,2.4h5.28a2.41,2.41,0,0,0,2.4-2.4v-9.2a2.4,2.4,0,0,0-2.4-2.36h-5.28A2.36,2.36,0,0,0,191.12,51.67Z"/>
        <path d="M226.47,52.11V66.27h-3a.44.44,0,0,1-.44-.44V51.91a2.36,2.36,0,0,0-2.36-2.36H213.4A.44.44,0,0,0,213,50V65.83a.44.44,0,0,1-.44.44h-3V48.87a2.59,2.59,0,0,1,2.6-2.6h8.56A5.82,5.82,0,0,1,226.47,52.11Z"/>
      </g>
    </g>
  </g>
  <g id="AllTCP">
    <g id="NetInterface">
      <g>
        <rect class="cls-9" x="265" y="537.48" width="262" height="212.59"/>
        <path class="cls-2" d="M526,538.48V749.07H266V538.48H526m2-2H264V751.07H528V536.48Z"/>
      </g>
      <g>
        <path d="M344.36,626.08c-.4-3.12-.4-5.64-.6-8.48V602a.53.53,0,0,1,.52-.52h3.24v30H344a1,1,0,0,1-.76-.48L329.6,605.56a1.35,1.35,0,0,0-1.08-.64h-.68V631a.53.53,0,0,1-.52.52h-3.24V602a.53.53,0,0,1,.52-.52h4.56a4.25,4.25,0,0,1,3.4,2l8.16,15.4Z"/>
        <path d="M352.36,625.68V617.2c0-3.72,2.6-5.68,5.84-5.68h5.36c3.24,0,5.84,2,5.84,5.68v4.6c0,.68-.08,1.24-1,1.24h-11a1.92,1.92,0,0,1-1.56-.76v3.56a2.34,2.34,0,0,0,2.36,2.36h9.92a.44.44,0,0,1,.44.44v2.88H358.2A5.82,5.82,0,0,1,352.36,625.68Zm5.84-10.88a2.18,2.18,0,0,0-2.36,2.36v2.16a.44.44,0,0,0,.4.44h9.32a.44.44,0,0,0,.44-.44v-2.16a2.05,2.05,0,0,0-2.32-2.36Z"/>
        <path d="M384.2,628.64v2.88h-4a5.85,5.85,0,0,1-5.84-5.84V601.84h3a.44.44,0,0,1,.44.44v10a1.25,1.25,0,0,1,1.16-.72h4.24v2.88a.41.41,0,0,1-.44.4h-5v11a2.34,2.34,0,0,0,2.36,2.36h3.6A.44.44,0,0,1,384.2,628.64Z"/>
        <path d="M411.92,611.52v17.4a2.59,2.59,0,0,1-2.6,2.6H393.6a5.82,5.82,0,0,1-5.84-5.84V611.52h3a.41.41,0,0,1,.44.4v13.92a2.34,2.34,0,0,0,2.36,2.36h5.2a1.27,1.27,0,0,1-.68-1.12V611.52h3a.41.41,0,0,1,.44.4v15.84a.41.41,0,0,0,.4.44h6a.41.41,0,0,0,.4-.44V611.92a.41.41,0,0,1,.44-.4Z"/>
        <path d="M422.48,631.79a5.82,5.82,0,0,1-5.84-5.84v-8.88a5.84,5.84,0,0,1,5.84-5.84h5.28a5.88,5.88,0,0,1,5.88,5.84V626a5.85,5.85,0,0,1-5.88,5.84Zm-2.36-14.88v9.2a2.37,2.37,0,0,0,2.36,2.4h5.28a2.41,2.41,0,0,0,2.4-2.4v-9.2a2.4,2.4,0,0,0-2.4-2.36h-5.28A2.36,2.36,0,0,0,420.12,616.92Z"/>
        <path d="M449.32,611.52v2.88a.44.44,0,0,1-.44.44h-5a1.93,1.93,0,0,0-1.92,1.8v14.88h-3a.44.44,0,0,1-.44-.44V611.52h3a.41.41,0,0,1,.44.4v.88a3.35,3.35,0,0,1,2.72-1.28Z"/>
        <path d="M469.72,631.52h-3.44a.72.72,0,0,1-.64-.4l-3.92-7.88h-4.84a.44.44,0,0,0-.44.44v7.4a.44.44,0,0,1-.44.44h-3V601.84h3a.44.44,0,0,1,.44.44v18.36a1.2,1.2,0,0,1,1.08-.68h4.92a2.37,2.37,0,0,0,2.36-2.4V612a.45.45,0,0,1,.44-.44h3v5.88a5.79,5.79,0,0,1-3,5.12Z"/>
        <path d="M321.92,679V649.48h3.24a.53.53,0,0,1,.52.52v29.52h-3.24A.53.53,0,0,1,321.92,679Z"/>
        <path d="M348.12,665.36v14.16h-3a.44.44,0,0,1-.44-.44V665.16a2.36,2.36,0,0,0-2.36-2.36H335a.44.44,0,0,0-.44.44v15.84a.44.44,0,0,1-.44.44h-3v-17.4a2.59,2.59,0,0,1,2.6-2.6h8.56A5.82,5.82,0,0,1,348.12,665.36Z"/>
        <path d="M363,676.64v2.88h-4a5.85,5.85,0,0,1-5.84-5.84V649.84h3a.44.44,0,0,1,.44.44v10a1.25,1.25,0,0,1,1.16-.72H362v2.88a.41.41,0,0,1-.44.4h-5v11a2.34,2.34,0,0,0,2.36,2.36h3.6A.44.44,0,0,1,363,676.64Z"/>
        <path d="M366.56,673.68V665.2c0-3.72,2.6-5.68,5.84-5.68h5.36c3.24,0,5.84,2,5.84,5.68v4.6c0,.68-.08,1.24-1,1.24h-11a1.92,1.92,0,0,1-1.56-.76v3.56a2.34,2.34,0,0,0,2.36,2.36h9.92a.44.44,0,0,1,.44.44v2.88H372.4A5.82,5.82,0,0,1,366.56,673.68Zm5.84-10.88a2.18,2.18,0,0,0-2.36,2.36v2.16a.44.44,0,0,0,.4.44h9.32a.44.44,0,0,0,.44-.44v-2.16a2.05,2.05,0,0,0-2.32-2.36Z"/>
        <path d="M399.32,659.52v2.88a.44.44,0,0,1-.44.44h-5a1.93,1.93,0,0,0-1.92,1.8v14.88h-3a.44.44,0,0,1-.44-.44V659.52h3a.41.41,0,0,1,.44.4v.88a3.36,3.36,0,0,1,2.72-1.28Z"/>
        <path d="M412.84,649.4v2.88a.44.44,0,0,1-.44.44h-3.6a2.34,2.34,0,0,0-2.36,2.36v5.16a1.21,1.21,0,0,1,1.08-.6h3.92v2.88a.41.41,0,0,1-.44.4h-4.56v16.16a.44.44,0,0,1-.44.44h-3V655.24a5.82,5.82,0,0,1,5.84-5.84Z"/>
        <path d="M431.48,665.12v13.12a1.26,1.26,0,0,1-1.28,1.28h-9.36a5.82,5.82,0,0,1-5.84-5.84v-1.24a5.82,5.82,0,0,1,5.84-5.84h6.76a.44.44,0,0,0,.44-.44v-1a2.26,2.26,0,0,0-2.4-2.36h-8a.44.44,0,0,1-.44-.44v-2.84h8.4C428.88,659.52,431.48,661.48,431.48,665.12Zm-10.64,11h6.8a.41.41,0,0,0,.4-.44v-6.36a1.28,1.28,0,0,1-1,.6h-6.16a2.34,2.34,0,0,0-2.36,2.36v1.48A2.34,2.34,0,0,0,420.84,676.12Z"/>
        <path d="M439.4,665.24v8.6a2.34,2.34,0,0,0,2.36,2.36h7.08a.44.44,0,0,1,.44.44v2.88h-7.52a5.85,5.85,0,0,1-5.84-5.84V665.4a5.85,5.85,0,0,1,5.84-5.84h7.52v2.88a.41.41,0,0,1-.44.4h-7.08A2.37,2.37,0,0,0,439.4,665.24Z"/>
        <path d="M453.8,673.68V665.2c0-3.72,2.6-5.68,5.84-5.68H465c3.24,0,5.84,2,5.84,5.68v4.6c0,.68-.08,1.24-1,1.24h-11a1.92,1.92,0,0,1-1.56-.76v3.56a2.34,2.34,0,0,0,2.36,2.36h9.92a.44.44,0,0,1,.44.44v2.88H459.64A5.82,5.82,0,0,1,453.8,673.68Zm5.84-10.88a2.18,2.18,0,0,0-2.36,2.36v2.16a.44.44,0,0,0,.4.44H467a.45.45,0,0,0,.44-.44v-2.16a2.05,2.05,0,0,0-2.32-2.36Z"/>
      </g>
    </g>
    <g id="Network">
      <g>
        <rect class="cls-4" x="265" y="430.18" width="262" height="105.3"/>
        <path class="cls-2" d="M526,431.18v103.3H266V431.18H526m2-2H264v107.3H528V429.18Z"/>
      </g>
      <g>
        <path d="M344.36,490c-.4-3.12-.4-5.64-.6-8.48v-15.6a.53.53,0,0,1,.52-.52h3.24v30H344a1,1,0,0,1-.76-.48L329.6,469.5a1.35,1.35,0,0,0-1.08-.64h-.68v26.08a.53.53,0,0,1-.52.52h-3.24V465.94a.53.53,0,0,1,.52-.52h4.56a4.25,4.25,0,0,1,3.4,2l8.16,15.4Z"/>
        <path d="M352.36,489.61v-8.48c0-3.72,2.6-5.68,5.84-5.68h5.36c3.24,0,5.84,2,5.84,5.68v4.6c0,.68-.08,1.24-1,1.24h-11a1.91,1.91,0,0,1-1.56-.76v3.56a2.34,2.34,0,0,0,2.36,2.36h9.92a.44.44,0,0,1,.44.44v2.88H358.2A5.82,5.82,0,0,1,352.36,489.61Zm5.84-10.88a2.18,2.18,0,0,0-2.36,2.36v2.16a.44.44,0,0,0,.4.44h9.32a.44.44,0,0,0,.44-.44v-2.16a2.05,2.05,0,0,0-2.32-2.36Z"/>
        <path d="M384.2,492.57v2.88h-4a5.85,5.85,0,0,1-5.84-5.84V465.78h3a.44.44,0,0,1,.44.44v10a1.25,1.25,0,0,1,1.16-.72h4.24v2.88a.41.41,0,0,1-.44.4h-5v11a2.34,2.34,0,0,0,2.36,2.36h3.6A.44.44,0,0,1,384.2,492.57Z"/>
        <path d="M411.92,475.45v17.4a2.59,2.59,0,0,1-2.6,2.6H393.6a5.82,5.82,0,0,1-5.84-5.84V475.45h3a.41.41,0,0,1,.44.4v13.92a2.34,2.34,0,0,0,2.36,2.36h5.2a1.27,1.27,0,0,1-.68-1.12V475.45h3a.41.41,0,0,1,.44.4v15.84a.41.41,0,0,0,.4.44h6a.41.41,0,0,0,.4-.44V475.85a.41.41,0,0,1,.44-.4Z"/>
        <path d="M422.48,495.73a5.82,5.82,0,0,1-5.84-5.84V481a5.85,5.85,0,0,1,5.84-5.84h5.28a5.88,5.88,0,0,1,5.88,5.84v8.88a5.85,5.85,0,0,1-5.88,5.84Zm-2.36-14.88v9.2a2.37,2.37,0,0,0,2.36,2.4h5.28a2.41,2.41,0,0,0,2.4-2.4v-9.2a2.4,2.4,0,0,0-2.4-2.36h-5.28A2.36,2.36,0,0,0,420.12,480.85Z"/>
        <path d="M449.32,475.45v2.88a.44.44,0,0,1-.44.44h-5a1.93,1.93,0,0,0-1.92,1.8v14.88h-3a.44.44,0,0,1-.44-.44V475.45h3a.41.41,0,0,1,.44.4v.88a3.35,3.35,0,0,1,2.72-1.28Z"/>
        <path d="M469.72,495.45h-3.44a.71.71,0,0,1-.64-.4l-3.92-7.88h-4.84a.44.44,0,0,0-.44.44V495a.44.44,0,0,1-.44.44h-3V465.78h3a.44.44,0,0,1,.44.44v18.36a1.2,1.2,0,0,1,1.08-.68h4.92a2.37,2.37,0,0,0,2.36-2.4v-5.6a.44.44,0,0,1,.44-.44h3v5.88a5.79,5.79,0,0,1-3,5.12Z"/>
      </g>
    </g>
    <g id="Transport">
      <g>
        <rect class="cls-5" x="265" y="322.89" width="262" height="105.3"/>
        <path class="cls-2" d="M526,323.89v103.3H266V323.89H526m2-2H264v107.3H528V321.89Z"/>
      </g>
      <g>
        <path d="M333.74,357.82v2.92a.53.53,0,0,1-.52.52h-8.56v26.08a.5.5,0,0,1-.52.52H320.9v-26.6h-9v-2.92a.53.53,0,0,1,.52-.52Z"/>
        <path d="M345.18,367.86v2.88a.44.44,0,0,1-.44.44h-5a1.93,1.93,0,0,0-1.92,1.8v14.88h-3a.44.44,0,0,1-.44-.44V367.86h3a.41.41,0,0,1,.44.4v.88a3.35,3.35,0,0,1,2.72-1.28Z"/>
        <path d="M363.58,373.46v13.12a1.26,1.26,0,0,1-1.28,1.28h-9.36A5.82,5.82,0,0,1,347.1,382v-1.24a5.82,5.82,0,0,1,5.84-5.84h6.76a.44.44,0,0,0,.44-.44v-1a2.26,2.26,0,0,0-2.4-2.36h-8a.44.44,0,0,1-.44-.44v-2.84h8.4C361,367.86,363.58,369.82,363.58,373.46Zm-10.64,11h6.8a.41.41,0,0,0,.4-.44v-6.36a1.28,1.28,0,0,1-1,.6h-6.16a2.34,2.34,0,0,0-2.36,2.36v1.48A2.34,2.34,0,0,0,352.94,384.46Z"/>
        <path d="M385.34,373.7v14.16h-3a.44.44,0,0,1-.44-.44V373.5a2.36,2.36,0,0,0-2.36-2.36h-7.24a.44.44,0,0,0-.44.44v15.84a.44.44,0,0,1-.44.44h-3v-17.4a2.59,2.59,0,0,1,2.6-2.6h8.56A5.82,5.82,0,0,1,385.34,373.7Z"/>
        <path d="M389.7,375.82v-2.68c0-3.24,2.24-5.28,5.48-5.28h11v2.84a.44.44,0,0,1-.44.44H395.18a1.75,1.75,0,0,0-2,2v1.16a.51.51,0,0,0,.36.44l12.36,2.92a1.33,1.33,0,0,1,1.08,1.32v3.56c0,3.48-2.48,5.36-5.72,5.36H389.94V385a.44.44,0,0,1,.44-.44h10.88a2.22,2.22,0,0,0,2.48-2.08v-1.88a.43.43,0,0,0-.36-.4l-12.56-3.08A1.37,1.37,0,0,1,389.7,375.82Z"/>
        <path d="M422.78,387.86h-4.6a3.47,3.47,0,0,1-2.72-1.28v10.6a.44.44,0,0,1-.44.44h-3V369.1a1.25,1.25,0,0,1,1.28-1.24h9.52c3.2,0,5.84,1.68,5.84,5.64v8.72A5.6,5.6,0,0,1,422.78,387.86Zm2.36-14.36a2.09,2.09,0,0,0-2.36-2.36H415.9a.44.44,0,0,0-.44.44V382.5a2.22,2.22,0,0,0,1.92,2h5.4a2.36,2.36,0,0,0,2.36-2.36Z"/>
        <path d="M439.18,388.14a5.82,5.82,0,0,1-5.84-5.84v-8.88a5.84,5.84,0,0,1,5.84-5.84h5.28a5.88,5.88,0,0,1,5.88,5.84v8.88a5.85,5.85,0,0,1-5.88,5.84Zm-2.36-14.88v9.2a2.37,2.37,0,0,0,2.36,2.4h5.28a2.41,2.41,0,0,0,2.4-2.4v-9.2a2.4,2.4,0,0,0-2.4-2.36h-5.28A2.36,2.36,0,0,0,436.82,373.26Z"/>
        <path d="M466,367.86v2.88a.44.44,0,0,1-.44.44h-5a1.93,1.93,0,0,0-1.92,1.8v14.88h-3a.44.44,0,0,1-.44-.44V367.86h3a.41.41,0,0,1,.44.4v.88a3.35,3.35,0,0,1,2.72-1.28Z"/>
        <path d="M479.58,385v2.88h-4A5.85,5.85,0,0,1,469.7,382V358.18h3a.44.44,0,0,1,.44.44v10a1.25,1.25,0,0,1,1.16-.72h4.24v2.88a.41.41,0,0,1-.44.4h-5v11a2.34,2.34,0,0,0,2.36,2.36h3.6A.44.44,0,0,1,479.58,385Z"/>
      </g>
    </g>
    <g id="Application">
      <g>
        <rect class="cls-7" x="265" y="5.67" width="262" height="315.22"/>
        <path class="cls-2" d="M526,6.67V319.89H266V6.67H526m2-2H264V321.89H528V4.67Z"/>
      </g>
      <g>
        <path d="M336.64,173.56h-2.87a.65.65,0,0,1-.63-.46l-2.35-6.76H317.43l-2.35,6.76a.69.69,0,0,1-.63.46h-2.87l8.54-24.33a3,3,0,0,1,2.77-2h4.17a.49.49,0,0,1,.42.24Zm-6.9-10.22-4.55-13.06h-1.71a.67.67,0,0,0-.63.46l-4.38,12.6Z"/>
        <path d="M348.93,173.56h-4a3,3,0,0,1-2.38-1.12v9.28a.39.39,0,0,1-.38.39h-2.66v-25a1.1,1.1,0,0,1,1.12-1.09h8.33c2.8,0,5.11,1.47,5.11,4.94v7.63A4.91,4.91,0,0,1,348.93,173.56ZM351,161a1.83,1.83,0,0,0-2.07-2.06h-6a.39.39,0,0,0-.39.38v9.56a1.94,1.94,0,0,0,1.68,1.79h4.72a2.07,2.07,0,0,0,2.07-2.07Z"/>
        <path d="M367.79,173.56h-4a3,3,0,0,1-2.38-1.12v9.28a.39.39,0,0,1-.38.39h-2.66v-25a1.1,1.1,0,0,1,1.12-1.09h8.33c2.8,0,5.11,1.47,5.11,4.94v7.63A4.9,4.9,0,0,1,367.79,173.56ZM369.86,161a1.83,1.83,0,0,0-2.06-2.06h-6a.39.39,0,0,0-.38.38v9.56a1.94,1.94,0,0,0,1.68,1.79h4.73a2.07,2.07,0,0,0,2.06-2.07Z"/>
        <path d="M380.15,147.7v25.87h-2.66a.39.39,0,0,1-.38-.39V147.31h2.66A.39.39,0,0,1,380.15,147.7Z"/>
        <path d="M387.67,148.61v2.87H385a.39.39,0,0,1-.39-.38v-2.87h2.66A.39.39,0,0,1,387.67,148.61Zm0,7.81v17.15H385a.39.39,0,0,1-.39-.39V156.06h2.66A.36.36,0,0,1,387.67,156.41Z"/>
        <path d="M394.85,161.07v7.53a2,2,0,0,0,2.06,2.07h6.2a.39.39,0,0,1,.38.38v2.52h-6.58a5.12,5.12,0,0,1-5.11-5.11v-7.25a5.12,5.12,0,0,1,5.11-5.11h6.58v2.52a.36.36,0,0,1-.38.35h-6.2A2.08,2.08,0,0,0,394.85,161.07Z"/>
        <path d="M421.2,161v11.48a1.11,1.11,0,0,1-1.12,1.12h-8.19a5.09,5.09,0,0,1-5.11-5.11v-1.09a5.09,5.09,0,0,1,5.11-5.11h5.92a.39.39,0,0,0,.38-.39V161a2,2,0,0,0-2.1-2.06h-7a.39.39,0,0,1-.38-.39v-2.49h7.35C418.93,156.06,421.2,157.78,421.2,161Zm-9.31,9.63h6a.36.36,0,0,0,.35-.39v-5.57a1.13,1.13,0,0,1-.91.52h-5.39a2,2,0,0,0-2.07,2.07v1.29A2,2,0,0,0,411.89,170.59Z"/>
        <path d="M434,171v2.52h-3.54a5.12,5.12,0,0,1-5.11-5.11V147.59h2.66a.39.39,0,0,1,.38.38v8.75a1.09,1.09,0,0,1,1-.63h3.71v2.52a.36.36,0,0,1-.39.35h-4.34v9.63a2,2,0,0,0,2.06,2.07h3.15A.39.39,0,0,1,434,171Z"/>
        <path d="M440.35,148.61v2.87h-2.66a.39.39,0,0,1-.39-.38v-2.87H440A.39.39,0,0,1,440.35,148.61Zm0,7.81v17.15h-2.66a.39.39,0,0,1-.39-.39V156.06H440A.36.36,0,0,1,440.35,156.41Z"/>
        <path d="M449.79,173.81a5.09,5.09,0,0,1-5.11-5.11v-7.77a5.12,5.12,0,0,1,5.11-5.11h4.62a5.15,5.15,0,0,1,5.15,5.11v7.77a5.12,5.12,0,0,1-5.15,5.11Zm-2.06-13v8.05a2.08,2.08,0,0,0,2.06,2.1h4.62a2.11,2.11,0,0,0,2.1-2.1v-8.05a2.1,2.1,0,0,0-2.1-2.07h-4.62A2.07,2.07,0,0,0,447.73,160.79Z"/>
        <path d="M478.67,161.17v12.39H476a.39.39,0,0,1-.38-.39V161a2.07,2.07,0,0,0-2.07-2.06h-6.34a.39.39,0,0,0-.38.38v13.86a.39.39,0,0,1-.38.39h-2.66V158.34a2.27,2.27,0,0,1,2.27-2.28h7.49A5.09,5.09,0,0,1,478.67,161.17Z"/>
      </g>
    </g>
  </g>
</svg>
