<svg xmlns="http://www.w3.org/2000/svg" xmlns:xlink="http://www.w3.org/1999/xlink" viewBox="0 0 420.67 343.33">
  <defs>
    <style>
      .cls-1, .cls-2, .cls-3, .cls-5 {
        stroke: lime;
      }

      .cls-1, .cls-10, .cls-11, .cls-12, .cls-13, .cls-14, .cls-15, .cls-2, .cls-3, .cls-4, .cls-5, .cls-6, .cls-7, .cls-8, .cls-9 {
        stroke-miterlimit: 10;
      }

      .cls-1, .cls-3 {
        stroke-width: 7px;
      }

      .cls-2 {
        stroke-width: 8px;
      }

      .cls-3, .cls-4, .cls-5 {
        stroke-linecap: round;
      }

      .cls-10, .cls-11, .cls-12, .cls-13, .cls-14, .cls-15, .cls-4, .cls-5, .cls-8, .cls-9 {
        fill: none;
      }

      .cls-4 {
        stroke: red;
        stroke-width: 10px;
      }

      .cls-10, .cls-11, .cls-12, .cls-13, .cls-14, .cls-5, .cls-9 {
        stroke-width: 5px;
      }

      .cls-6, .cls-7, .cls-8 {
        stroke: #fff;
      }

      .cls-7 {
        fill: red;
      }

      .cls-10, .cls-11, .cls-12, .cls-13, .cls-14, .cls-9 {
        stroke: #0068ff;
      }

      .cls-10 {
        stroke-dasharray: 11.86 11.86;
      }

      .cls-11 {
        stroke-dasharray: 11.03 11.03;
      }

      .cls-12 {
        stroke-dasharray: 11.4 11.4;
      }

      .cls-13 {
        stroke-dasharray: 11.13 11.13;
      }

      .cls-14 {
        stroke-dasharray: 10.7 10.7;
      }

      .cls-15 {
        stroke: aqua;
        stroke-width: 13px;
        stroke-dasharray: 12;
      }
    </style>
    <symbol id="Router" data-name="Router" viewBox="0 0 126.58 21">
      <polyline class="cls-6" points="125.7 10 125.7 9.45 113.14 0.5 13.68 0.5 0.84 9.51 0.52 20.5 125.7 20.5 125.7 18 125.7 11.46"/>
      <polygon class="cls-7" points="18.12 0.5 0.76 12.29 0.84 9.32 13.68 0.5 18.12 0.5"/>
      <polygon class="cls-7" points="108.69 0.5 126.06 12.29 125.97 9.32 113.14 0.5 108.69 0.5"/>
      <line class="cls-8" x1="56.15" y1="0.5" x2="63.14" y2="20.47"/>
      <line class="cls-8" x1="52.66" y1="0.5" x2="59.65" y2="20.47"/>
      <polygon class="cls-7" points="52.66 20.47 45.67 0.5 49.16 0.5 56.15 20.47 52.66 20.47"/>
      <line class="cls-8" x1="73.75" y1="0.5" x2="66.75" y2="20.47"/>
      <line class="cls-8" x1="77.24" y1="0.5" x2="70.25" y2="20.47"/>
      <polygon class="cls-7" points="77.24 20.47 84.23 0.5 80.74 0.5 73.75 20.47 77.24 20.47"/>
    </symbol>
    <symbol id="DarkComp" data-name="DarkComp" viewBox="0 0 415.48 327.89">
      <rect class="cls-1" x="4.91" y="3.5" width="372.75" height="222.94" rx="5" ry="5"/>
      <polygon class="cls-2" points="191.28 289.7 140.69 226.44 241.87 226.44 191.28 289.7"/>
      <polygon class="cls-3" points="367.73 324.39 20.27 324.39 4.65 270.13 353.79 270.13 367.73 324.39"/>
      <path class="cls-1" d="M406,319.7l-11-.08c-5.13,0-10.74-5.14-12.48-11.2l-6.79-23.65c-1.44-5,1-8.94,5.51-8.89l9.56.11c4.45.05,9.54,4,11.42,9.06l8.85,23.61C413.37,314.71,411.12,319.74,406,319.7Z"/>
      <line class="cls-4" x1="29.76" y1="30.92" x2="241.93" y2="30.92"/>
      <line class="cls-4" x1="29.76" y1="63.02" x2="276.7" y2="63.02"/>
      <line class="cls-4" x1="29.76" y1="95.11" x2="188.89" y2="95.11"/>
      <line class="cls-4" x1="29.76" y1="127.2" x2="236.14" y2="127.2"/>
      <line class="cls-5" x1="35.55" y1="289.9" x2="304.33" y2="289.9"/>
      <line class="cls-5" x1="41.35" y1="305.5" x2="313.25" y2="305.5"/>
    </symbol>
  </defs>
  <title>Star Topology</title>
  <g id="Wires">
    <g>
      <line class="cls-9" x1="205.82" y1="66.5" x2="205.82" y2="72.5"/>
      <line class="cls-10" x1="205.82" y1="84.36" x2="205.82" y2="149.57"/>
      <line class="cls-9" x1="205.82" y1="155.5" x2="205.82" y2="161.5"/>
    </g>
    <g>
      <line class="cls-9" x1="71.96" y1="134" x2="77.28" y2="136.77"/>
      <line class="cls-11" x1="87.07" y1="141.85" x2="140.91" y2="169.83"/>
      <line class="cls-9" x1="145.81" y1="172.37" x2="151.13" y2="175.13"/>
    </g>
    <g>
      <line class="cls-9" x1="70.59" y1="231.5" x2="75.84" y2="228.59"/>
      <line class="cls-12" x1="85.81" y1="223.07" x2="140.68" y2="192.67"/>
      <line class="cls-9" x1="145.67" y1="189.91" x2="150.92" y2="187"/>
    </g>
    <g>
      <line class="cls-9" x1="339.5" y1="131.81" x2="334.24" y2="134.7"/>
      <line class="cls-13" x1="324.49" y1="140.06" x2="270.84" y2="169.56"/>
      <line class="cls-9" x1="265.97" y1="172.24" x2="260.71" y2="175.13"/>
    </g>
    <g>
      <line class="cls-9" x1="337.5" y1="220" x2="332.01" y2="217.58"/>
      <line class="cls-14" x1="322.22" y1="213.25" x2="268.38" y2="189.47"/>
      <line class="cls-9" x1="263.49" y1="187.3" x2="258" y2="184.88"/>
    </g>
    <g>
      <line class="cls-9" x1="207" y1="187" x2="207" y2="193"/>
      <line class="cls-10" x1="207" y1="204.86" x2="207" y2="270.07"/>
      <line class="cls-9" x1="207" y1="276" x2="207" y2="282"/>
    </g>
    <line class="cls-15" x1="238.98" y1="168.11" x2="371.73" y2="-34.67"/>
  </g>
  <g id="Layer_1" data-name="Layer 1">
    <use id="Router-3" data-name="Router" width="126.58" height="21" transform="translate(150.47 160.49) scale(0.87 1.19)" xlink:href="#Router"/>
  </g>
  <g id="Layer_3" data-name="Layer 3">
    <use width="415.48" height="327.89" transform="translate(180.87 20.15) scale(0.14)" xlink:href="#DarkComp"/>
    <use width="415.48" height="327.89" transform="translate(184.78 283.49) scale(0.14)" xlink:href="#DarkComp"/>
    <use width="415.48" height="327.89" transform="translate(19.96 106.2) scale(0.14)" xlink:href="#DarkComp"/>
    <use width="415.48" height="327.89" transform="translate(17.69 202.44) scale(0.14)" xlink:href="#DarkComp"/>
    <use width="415.48" height="327.89" transform="translate(339.22 106.68) scale(0.14)" xlink:href="#DarkComp"/>
    <use width="415.48" height="327.89" transform="translate(339.22 198.18) scale(0.14)" xlink:href="#DarkComp"/>
  </g>
</svg>
