<?xml version="1.0" encoding="utf-8"?>
<!-- Generator: Adobe Illustrator 21.0.2, SVG Export Plug-In . SVG Version: 6.00 Build 0)  -->
<svg version="1.1"
	 id="svg2" inkscape:output_extension="org.inkscape.output.svg.inkscape" inkscape:version="0.48.2 r9819" sodipodi:docname="UDP_encapsulation.svg" sodipodi:version="0.32" xmlns:cc="http://creativecommons.org/ns#" xmlns:dc="http://purl.org/dc/elements/1.1/" xmlns:inkscape="http://www.inkscape.org/namespaces/inkscape" xmlns:rdf="http://www.w3.org/1999/02/22-rdf-syntax-ns#" xmlns:sodipodi="http://sodipodi.sourceforge.net/DTD/sodipodi-0.dtd" xmlns:svg="http://www.w3.org/2000/svg"
	 xmlns="http://www.w3.org/2000/svg" xmlns:xlink="http://www.w3.org/1999/xlink" x="0px" y="0px" viewBox="0 0 800 500"
	 style="enable-background:new 0 0 800 500;" xml:space="preserve">
<style type="text/css">
	.st0{fill:#FFFFFF;stroke:#FFFFFF;stroke-width:2;stroke-linecap:round;stroke-linejoin:round;}
	.st1{fill:#811E84;stroke:#FFFFFF;stroke-miterlimit:10;}
	.st2{fill:#2C6B15;stroke:#FFFFFF;stroke-miterlimit:10;}
	.st3{fill:#2C6B15;stroke:#FFFFFF;stroke-width:2;stroke-linecap:round;stroke-linejoin:round;}
	.st4{fill:#2E6864;stroke:#FFFFFF;stroke-width:2;stroke-linecap:round;}
	.st5{fill:#212166;stroke:#FFFFFF;stroke-width:2.0084;stroke-linecap:round;}
	.st6{fill:#811E84;stroke:#FFFFFF;stroke-width:2;stroke-linecap:round;}
	.st7{fill:#2C6B15;stroke:#FFFFFF;stroke-width:2;stroke-linecap:round;}
	.st8{fill:none;stroke:#FFFFFF;stroke-width:2;}
	.st9{fill:none;stroke:#FFFFFF;stroke-width:2.0165;stroke-linecap:round;stroke-linejoin:round;}
	.st10{fill:#F5F7F7;stroke:#FFFFFF;stroke-miterlimit:10;}
	.st11{font-family:'Prime-Regular';}
	.st12{font-size:28px;}
	.st13{fill:#212166;stroke:#FFFFFF;stroke-miterlimit:10;}
	.st14{font-size:25px;}
</style>
<sodipodi:namedview  bordercolor="#666666" borderopacity="1.0" gridtolerance="10000" guidetolerance="10" height="500px" id="base" inkscape:current-layer="layer1" inkscape:cx="32.271848" inkscape:cy="200.44242" inkscape:document-units="px" inkscape:grid-points="true" inkscape:pageopacity="0.0" inkscape:pageshadow="2" inkscape:window-height="838" inkscape:window-maximized="1" inkscape:window-width="1440" inkscape:window-x="-8" inkscape:window-y="-8" inkscape:zoom="1.2487506" objecttolerance="10" pagecolor="#ffffff" showgrid="true" width="800px">
	</sodipodi:namedview>
<g id="layer1" inkscape:groupmode="layer" inkscape:label="Layer 1">
	<rect id="rect2837" x="120" y="380" class="st0" width="290" height="100"/>
	<rect id="rect8030" x="220.6" y="260.6" class="st1" width="100" height="99.6"/>
	<polygon id="rect4148" class="st2" points="320.3,260.6 409.1,260.6 409.3,360.4 320.4,360.4 	"/>
	<rect id="rect2833" x="320" y="140" class="st3" width="90" height="100"/>
	<rect id="rect1872" x="20" y="380" class="st4" width="100" height="100"/>
	<rect id="rect2761" x="120" y="260" class="st5" width="99.7" height="101.1"/>
	<rect id="rect2763" x="220" y="140" class="st6" width="100" height="100"/>
	<rect id="rect2765" x="320" y="21" class="st7" width="90" height="100"/>
	<path id="path2767" sodipodi:nodetypes="cc" class="st8" d="M120,480h290"/>
	<rect id="rect2769" x="410" y="380" class="st4" width="100" height="100"/>
	<path id="path2771" class="st8" d="M120,380h290"/>
	<path id="path2773" class="st8" d="M120,360v20"/>
	<path id="path2777" class="st8" d="M410,360v20"/>
	<path id="path2779" class="st8" d="M220,240v20"/>
	<path id="path2783" class="st8" d="M410,260v100"/>
	<rect id="rect2835" x="219.7" y="259.8" class="st9" width="190.7" height="101.3"/>
	<path id="path2785" class="st8" d="M410,260v-20"/>
	<path id="path2787" class="st8" d="M410,240h-90"/>
	<path id="path2789" class="st8" d="M320,120v20"/>
	<path id="path2791" class="st8" d="M320,140h90"/>
	<path id="path2793" class="st8" d="M410,140v-20"/>
	<path id="path2795" class="st8" d="M410,140v100"/>
	<text transform="matrix(1 0 0 1 332.2728 80.982)" class="st10 st11 st12">Data</text>
	<text transform="matrix(1 0 0 1 332.1351 183.2632)" class="st10 st11 st12">UDP</text>
	<text transform="matrix(1 0 0 1 334.7122 218.2632)" class="st10 st11 st12">data</text>
	<text transform="matrix(1 0 0 1 237.2623 184.036)" class="st10 st11 st12">UDP</text>
	<text transform="matrix(1 0 0 1 224.3082 219.036)" class="st10 st11 st12">header</text>
	<text transform="matrix(1 0 0 1 153.8599 301.432)" class="st10 st11 st12">IP</text>
	<text transform="matrix(1 0 0 1 124.3082 336.432)" class="st10 st11 st12">header</text>
	<text transform="matrix(1 0 0 1 26.1129 423.4058)" class="st10 st11 st12">Frame</text>
	<text transform="matrix(1 0 0 1 24.3082 458.4058)" class="st10 st11 st12">header</text>
	<text transform="matrix(1 0 0 1 415.8586 422.6052)" class="st10 st11 st12">Frame</text>
	<text transform="matrix(1 0 0 1 421.3206 457.6052)" class="st10 st11 st12">footer</text>
	<text transform="matrix(1 0 0 1 569.8211 439.982)" class="st10 st11 st12">Link</text>
	<text transform="matrix(1 0 0 1 548.1011 318.792)" class="st10 st11 st12">Internet</text>
	<text transform="matrix(1 0 0 1 538.1011 196.93)" class="st10 st11 st12">Transport</text>
	<text transform="matrix(1 0 0 1 532.8571 77.636)" class="st10 st11 st12">Application</text>
	<rect id="rect5119" x="318" y="381" class="st2" width="90" height="97"/>
	<rect id="rect7059" x="121" y="381" class="st13" width="100" height="97"/>
	<rect id="rect9001" x="220" y="381" class="st1" width="101.1" height="97"/>
	<text transform="matrix(1 0 0 1 273.8945 318.2344)" class="st10 st11 st14">IP data</text>
	<text transform="matrix(1 0 0 1 202.2509 438.9941)" class="st10 st11 st14">Frame data</text>
</g>
</svg>
