<svg xmlns="http://www.w3.org/2000/svg" xmlns:xlink="http://www.w3.org/1999/xlink" viewBox="0 0 584 526">
  <defs>
    <style>
      .cls-1 {
        fill: #e3f2fd;
      }

      .cls-1, .cls-2 {
        stroke: #000;
      }

      .cls-1, .cls-2, .cls-4, .cls-8, .cls-9 {
        stroke-miterlimit: 10;
      }

      .cls-10, .cls-2 {
        fill: #fff;
      }

      .cls-3 {
        fill: #ccc;
      }

      .cls-4, .cls-9 {
        fill: none;
      }

      .cls-4 {
        stroke: red;
        opacity: 0.35;
      }

      .cls-5 {
        fill: lime;
      }

      .cls-6 {
        fill: #4d4d4d;
      }

      .cls-7 {
        fill: red;
      }

      .cls-8 {
        fill-opacity: 0.66;
      }

      .cls-8, .cls-9 {
        stroke: #29abe2;
        stroke-width: 8px;
      }
    </style>
    <symbol id="Computer" data-name="Computer" viewBox="0 0 44.75 35.34">
      <rect class="cls-1" x="0.69" y="0.5" width="39.89" height="23.86" rx="5" ry="5"/>
      <polygon class="cls-2" points="20.64 31.13 15.22 24.36 26.05 24.36 20.64 31.13"/>
      <polygon class="cls-2" points="39.52 34.84 2.34 34.84 0.66 29.03 38.03 29.03 39.52 34.84"/>
      <path class="cls-2" d="M43.62,34.34H42.44a1.62,1.62,0,0,1-1.34-1.2l-.73-2.53c-.15-.54.11-1,.59-1h1a1.49,1.49,0,0,1,1.22,1l.95,2.53C44.4,33.8,44.16,34.34,43.62,34.34Z"/>
    </symbol>
    <symbol id="Server" data-name="Server" viewBox="0 0 29.14 24.86">
      <path class="cls-3" d="M28.64,2.5V22.36a2,2,0,0,1-2,2H2.5a2,2,0,0,1-2-2V2.5a2,2,0,0,1,2-2H26.64a2,2,0,0,1,2,2"/>
      <line class="cls-4" x1="3" y1="0.9" x2="3" y2="3.72"/>
      <line class="cls-4" x1="7.55" y1="0.9" x2="7.55" y2="3.72"/>
      <line class="cls-4" x1="12.33" y1="0.9" x2="12.33" y2="3.72"/>
      <line class="cls-4" x1="16.64" y1="0.9" x2="16.64" y2="3.72"/>
      <line class="cls-4" x1="21.19" y1="0.9" x2="21.19" y2="3.72"/>
      <path d="M28.64,2.5h-.5V22.36a1.51,1.51,0,0,1-1.5,1.5H2.5A1.51,1.51,0,0,1,1,22.36V2.5A1.51,1.51,0,0,1,2.5,1H26.64a1.51,1.51,0,0,1,1.5,1.5h1A2.51,2.51,0,0,0,26.64,0H2.5A2.51,2.51,0,0,0,0,2.5V22.36a2.51,2.51,0,0,0,2.5,2.5H26.64a2.51,2.51,0,0,0,2.5-2.5V2.5h-.5"/>
      <polyline class="cls-5" points="8.93 16.75 8.93 8.37 6.93 8.37 6.93 16.75"/>
      <polyline class="cls-5" points="4.62 16.75 4.62 8.37 2.62 8.37 2.62 16.75"/>
      <polyline points="10.92 24.36 10.92 0.5 9.92 0.5 9.92 24.36 10.92 24.36"/>
      <polyline class="cls-6" points="13.36 16.88 13.36 8.51 11.36 8.51 11.36 16.88"/>
      <polyline points="15.35 24.49 15.35 0.63 14.35 0.63 14.35 24.49"/>
      <polyline class="cls-6" points="18.02 16.88 18.02 8.51 16.02 8.51 16.02 16.88"/>
      <polyline points="20.01 24.49 20.01 0.63 19.01 0.63 19.01 24.49 20.01 24.49"/>
      <polyline class="cls-6" points="22.41 16.88 22.41 8.51 20.41 8.51 20.41 16.88"/>
      <polyline class="cls-7" points="26.7 16.88 26.7 8.51 24.7 8.51 24.7 16.88"/>
      <polyline points="24.39 24.49 24.39 0.63 23.39 0.63 23.39 24.49"/>
      <polyline points="6.13 24.36 6.13 0.5 5.13 0.5 5.13 24.36 6.13 24.36"/>
    </symbol>
  </defs>
  <title>WanIllu</title>
  <g id="Base">
    <circle class="cls-8" cx="294" cy="260" r="240" transform="translate(29.35 549.82) rotate(-89.09)"/>
    <circle class="cls-9" cx="225.06" cy="180.66" r="56.01"/>
    <circle class="cls-9" cx="225.06" cy="180.66" r="56.01" transform="translate(-61.83 212.05) rotate(-45)"/>
    <circle class="cls-9" cx="376.05" cy="268.9" r="56.01"/>
    <circle class="cls-9" cx="226.06" cy="347.67" r="56.01" transform="translate(-143.55 159.61) rotate(-30)"/>
    <path class="cls-9" d="M325.81,293.68c-3,17.41-28,33.15-49.07,30.14"/>
    <path class="cls-9" d="M334.23,231.63c-6.48-18-31.26-34.78-56.86-30.94"/>
    <path class="cls-9" d="M215.74,292.61c-9.51-12.68-12-39.73,2.48-56.36"/>
    <g>
      <path class="cls-10" d="M354.2,275.05v-14a.33.33,0,0,1,.32-.32h2v14.55a1.93,1.93,0,0,0,1.91,1.93h7.73a.33.33,0,0,1,.32.32v1.81h-8.05A4.28,4.28,0,0,1,354.2,275.05Z"/>
      <path class="cls-10" d="M385,279.34h-2a.46.46,0,0,1-.45-.32l-1.66-4.78h-9.47L369.78,279a.49.49,0,0,1-.45.32h-2l6-17.22a2.09,2.09,0,0,1,2-1.39h2.95a.34.34,0,0,1,.3.17Zm-4.88-7.24-3.22-9.24h-1.21a.48.48,0,0,0-.45.32l-3.1,8.92Z"/>
      <path class="cls-10" d="M399.54,276c-.25-1.93-.25-3.49-.37-5.25v-9.66a.33.33,0,0,1,.32-.32h2v18.61h-2.16a.61.61,0,0,1-.47-.3l-8.48-15.79a.84.84,0,0,0-.67-.4h-.42V279a.33.33,0,0,1-.32.32h-2V261.05a.33.33,0,0,1,.32-.32h2.82a2.63,2.63,0,0,1,2.11,1.26l5.06,9.54Z"/>
    </g>
    <g>
      <path class="cls-10" d="M204.07,353.55v-14a.33.33,0,0,1,.32-.32h2v14.54a1.93,1.93,0,0,0,1.91,1.93H216a.33.33,0,0,1,.32.32v1.81h-8.05A4.28,4.28,0,0,1,204.07,353.55Z"/>
      <path class="cls-10" d="M234.92,357.84h-2a.46.46,0,0,1-.45-.32l-1.66-4.78h-9.47l-1.66,4.78a.49.49,0,0,1-.45.32h-2l6-17.22a2.09,2.09,0,0,1,2-1.39h2.95a.34.34,0,0,1,.3.17ZM230,350.6l-3.22-9.24H225.6a.48.48,0,0,0-.45.32l-3.1,8.92Z"/>
      <path class="cls-10" d="M249.42,354.47c-.25-1.93-.25-3.49-.37-5.25v-9.67a.33.33,0,0,1,.32-.32h2v18.61h-2.16a.61.61,0,0,1-.47-.3l-8.48-15.79a.84.84,0,0,0-.67-.4h-.42v16.16a.33.33,0,0,1-.32.32h-2V339.55a.33.33,0,0,1,.32-.32H240a2.63,2.63,0,0,1,2.11,1.26l5.06,9.54Z"/>
    </g>
    <g>
      <path class="cls-10" d="M201.39,184.24v-14a.33.33,0,0,1,.32-.32h2v14.55a1.93,1.93,0,0,0,1.91,1.93h7.73a.33.33,0,0,1,.32.32v1.81h-8.05A4.28,4.28,0,0,1,201.39,184.24Z"/>
      <path class="cls-10" d="M232.24,188.53h-2a.46.46,0,0,1-.45-.32l-1.66-4.78h-9.47L217,188.21a.49.49,0,0,1-.45.32h-2l6-17.22a2.09,2.09,0,0,1,2-1.39h2.95a.34.34,0,0,1,.3.17Zm-4.88-7.24-3.22-9.24h-1.21a.48.48,0,0,0-.45.32l-3.1,8.92Z"/>
      <path class="cls-10" d="M246.74,185.16c-.25-1.93-.25-3.49-.37-5.25v-9.66a.33.33,0,0,1,.32-.32h2v18.61h-2.16a.61.61,0,0,1-.47-.3l-8.48-15.79a.84.84,0,0,0-.67-.4h-.42v16.16a.33.33,0,0,1-.32.32h-2V170.24a.33.33,0,0,1,.32-.32h2.82a2.63,2.63,0,0,1,2.11,1.26l5.06,9.54Z"/>
    </g>
    <g>
      <path class="cls-10" d="M378.3,123.77V157a2.79,2.79,0,0,1-2.78,2.78H347a8,8,0,0,1-8.21-8V123.77h3.89a.64.64,0,0,1,.62.62v27.84a3.5,3.5,0,0,0,3.7,3.46h10.27a3.1,3.1,0,0,1-1-2.3V123.77h3.89a.64.64,0,0,1,.62.62v30.39a.91.91,0,0,0,.91.91h11.18a.94.94,0,0,0,.91-.91V124.39a.64.64,0,0,1,.62-.62Z"/>
      <path class="cls-10" d="M416.17,159.82h-3.94a.89.89,0,0,1-.86-.62l-3.22-9.26H389.82l-3.22,9.26a.94.94,0,0,1-.86.62H381.8l11.71-33.36a4,4,0,0,1,3.79-2.69H403a.67.67,0,0,1,.58.34Zm-9.46-14-6.24-17.91h-2.35a.92.92,0,0,0-.86.62l-6,17.28Z"/>
      <path class="cls-10" d="M444.25,153.29c-.48-3.74-.48-6.77-.72-10.18V124.39a.64.64,0,0,1,.63-.62H448v36.05h-4.18a1.18,1.18,0,0,1-.91-.58l-16.42-30.58a1.62,1.62,0,0,0-1.3-.77h-.82v31.3a.64.64,0,0,1-.62.62h-3.89V124.39a.64.64,0,0,1,.62-.62H426a5.1,5.1,0,0,1,4.08,2.45l9.79,18.48Z"/>
    </g>
  </g>
  <g id="Comps">
    <g id="TopLRing">
      <use width="44.75" height="35.34" transform="translate(182.69 246.09) rotate(-135) scale(0.73)" xlink:href="#Computer"/>
      <use width="44.75" height="35.34" transform="translate(241.36 256.88) rotate(180) scale(0.73)" xlink:href="#Computer"/>
      <use width="44.75" height="35.34" transform="translate(290.49 223.03) rotate(135) scale(0.73)" xlink:href="#Computer"/>
      <use width="44.75" height="35.34" transform="translate(267.43 115.22) rotate(45) scale(0.73)" xlink:href="#Computer"/>
      <use width="44.75" height="35.34" transform="translate(301.28 164.35) rotate(90) scale(0.73)" xlink:href="#Computer"/>
      <use width="44.75" height="35.34" transform="translate(208.75 104.43) scale(0.73)" xlink:href="#Computer"/>
      <use width="44.75" height="35.34" transform="translate(159.62 138.29) rotate(-45) scale(0.73)" xlink:href="#Computer"/>
      <use width="29.14" height="24.86" transform="translate(146.26 168.57)" xlink:href="#Server"/>
    </g>
    <g id="RightRing">
      <use width="44.75" height="35.34" transform="translate(452.71 254.41) rotate(90) scale(0.73)" xlink:href="#Computer"/>
      <use width="44.75" height="35.34" transform="translate(401.83 195.26) rotate(30) scale(0.73)" xlink:href="#Computer"/>
      <use width="44.75" height="35.34" transform="translate(325.17 209.75) rotate(-30) scale(0.73)" xlink:href="#Computer"/>
      <use width="44.75" height="35.34" transform="translate(299.38 283.38) rotate(-90) scale(0.73)" xlink:href="#Computer"/>
      <use width="44.75" height="35.34" transform="translate(350.26 342.53) rotate(-150) scale(0.73)" xlink:href="#Computer"/>
      <use width="44.75" height="35.34" transform="matrix(-0.63, 0.36, -0.36, -0.63, 426.92, 328.04)" xlink:href="#Computer"/>
    </g>
    <g id="BottomRing">
      <use width="44.75" height="35.34" transform="translate(296.14 371.58) rotate(120) scale(0.58)" xlink:href="#Computer"/>
      <use width="29.14" height="24.86" transform="translate(306.14 358.86) rotate(180)" xlink:href="#Server"/>
      <use width="29.14" height="24.86" transform="translate(301.01 317.32) rotate(150)" xlink:href="#Server"/>
      <use width="29.14" height="24.86" transform="matrix(-0.5, 0.87, -0.87, -0.5, 275.79, 283.91)" xlink:href="#Server"/>
      <use width="29.14" height="24.86" transform="translate(237.24 267.59) rotate(90)" xlink:href="#Server"/>
      <use width="29.14" height="24.86" transform="translate(195.7 272.73) rotate(60)" xlink:href="#Server"/>
      <use width="29.14" height="24.86" transform="translate(162.3 297.95) rotate(30)" xlink:href="#Server"/>
      <use id="Server-17" data-name="Server" width="29.14" height="24.86" transform="translate(145.98 336.49)" xlink:href="#Server"/>
      <use width="29.14" height="24.86" transform="translate(151.12 378.03) rotate(-30)" xlink:href="#Server"/>
      <use width="29.14" height="24.86" transform="translate(176.34 411.44) rotate(-60)" xlink:href="#Server"/>
      <use width="29.14" height="24.86" transform="translate(214.88 427.76) rotate(-90)" xlink:href="#Server"/>
      <use width="29.14" height="24.86" transform="translate(256.42 422.62) rotate(-120)" xlink:href="#Server"/>
    </g>
  </g>
</svg>
