<svg xmlns="http://www.w3.org/2000/svg" xmlns:xlink="http://www.w3.org/1999/xlink" viewBox="0 0 584 526">
  <defs>
    <style>
      .cls-1 {
        fill: #e3f2fd;
      }

      .cls-1, .cls-2 {
        stroke: #000;
      }

      .cls-1, .cls-2, .cls-4, .cls-8, .cls-9 {
        stroke-miterlimit: 10;
      }

      .cls-10, .cls-11, .cls-2 {
        fill: #fff;
      }

      .cls-3 {
        fill: #ccc;
      }

      .cls-4, .cls-9 {
        fill: none;
      }

      .cls-4 {
        stroke: red;
        opacity: 0.35;
      }

      .cls-5 {
        fill: lime;
      }

      .cls-6 {
        fill: #4d4d4d;
      }

      .cls-7 {
        fill: red;
      }

      .cls-8 {
        fill-opacity: 0.66;
      }

      .cls-8, .cls-9 {
        stroke: #29abe2;
        stroke-width: 8px;
      }

      .cls-10 {
        font-size: 24.78px;
      }

      .cls-10, .cls-11 {
        font-family: Prime-Regular, Prime;
      }

      .cls-11 {
        font-size: 48px;
      }
    </style>
    <symbol id="Computer" data-name="Computer" viewBox="0 0 44.75 35.34">
      <rect class="cls-1" x="0.69" y="0.5" width="39.89" height="23.86" rx="5" ry="5"/>
      <polygon class="cls-2" points="20.64 31.13 15.22 24.36 26.05 24.36 20.64 31.13"/>
      <polygon class="cls-2" points="39.52 34.84 2.34 34.84 0.66 29.03 38.03 29.03 39.52 34.84"/>
      <path class="cls-2" d="M43.62,34.34H42.44a1.62,1.62,0,0,1-1.34-1.2l-.73-2.53c-.15-.54.11-1,.59-1h1a1.49,1.49,0,0,1,1.22,1l.95,2.53C44.4,33.8,44.16,34.34,43.62,34.34Z"/>
    </symbol>
    <symbol id="Server" data-name="Server" viewBox="0 0 29.14 24.86">
      <path class="cls-3" d="M28.64,2.5V22.36a2,2,0,0,1-2,2H2.5a2,2,0,0,1-2-2V2.5a2,2,0,0,1,2-2H26.64a2,2,0,0,1,2,2"/>
      <line class="cls-4" x1="3" y1="0.9" x2="3" y2="3.72"/>
      <line class="cls-4" x1="7.55" y1="0.9" x2="7.55" y2="3.72"/>
      <line class="cls-4" x1="12.33" y1="0.9" x2="12.33" y2="3.72"/>
      <line class="cls-4" x1="16.64" y1="0.9" x2="16.64" y2="3.72"/>
      <line class="cls-4" x1="21.19" y1="0.9" x2="21.19" y2="3.72"/>
      <path d="M28.64,2.5h-.5V22.36a1.51,1.51,0,0,1-1.5,1.5H2.5A1.51,1.51,0,0,1,1,22.36V2.5A1.51,1.51,0,0,1,2.5,1H26.64a1.51,1.51,0,0,1,1.5,1.5h1A2.51,2.51,0,0,0,26.64,0H2.5A2.51,2.51,0,0,0,0,2.5V22.36a2.51,2.51,0,0,0,2.5,2.5H26.64a2.51,2.51,0,0,0,2.5-2.5V2.5h-.5"/>
      <polyline class="cls-5" points="8.93 16.75 8.93 8.37 6.93 8.37 6.93 16.75"/>
      <polyline class="cls-5" points="4.62 16.75 4.62 8.37 2.62 8.37 2.62 16.75"/>
      <polyline points="10.92 24.36 10.92 0.5 9.92 0.5 9.92 24.36 10.92 24.36"/>
      <polyline class="cls-6" points="13.36 16.88 13.36 8.51 11.36 8.51 11.36 16.88"/>
      <polyline points="15.35 24.49 15.35 0.63 14.35 0.63 14.35 24.49"/>
      <polyline class="cls-6" points="18.02 16.88 18.02 8.51 16.02 8.51 16.02 16.88"/>
      <polyline points="20.01 24.49 20.01 0.63 19.01 0.63 19.01 24.49 20.01 24.49"/>
      <polyline class="cls-6" points="22.41 16.88 22.41 8.51 20.41 8.51 20.41 16.88"/>
      <polyline class="cls-7" points="26.7 16.88 26.7 8.51 24.7 8.51 24.7 16.88"/>
      <polyline points="24.39 24.49 24.39 0.63 23.39 0.63 23.39 24.49"/>
      <polyline points="6.13 24.36 6.13 0.5 5.13 0.5 5.13 24.36 6.13 24.36"/>
    </symbol>
  </defs>
  <title>WanIllu</title>
  <g id="Base">
    <circle class="cls-8" cx="294" cy="260" r="240" transform="translate(29.35 549.82) rotate(-89.09)"/>
    <circle class="cls-9" cx="225.06" cy="180.66" r="56.01"/>
    <circle class="cls-9" cx="225.06" cy="180.66" r="56.01" transform="translate(-61.83 212.05) rotate(-45)"/>
    <circle class="cls-9" cx="376.05" cy="268.9" r="56.01"/>
    <circle class="cls-9" cx="226.06" cy="347.67" r="56.01" transform="translate(-143.55 159.61) rotate(-30)"/>
    <path class="cls-9" d="M325.81,293.68c-3,17.41-28,33.15-49.07,30.14"/>
    <path class="cls-9" d="M334.23,231.63c-6.48-18-31.26-34.78-56.86-30.94"/>
    <path class="cls-9" d="M215.74,292.61c-9.51-12.68-12-39.73,2.48-56.36"/>
    <text class="cls-10" transform="translate(352.71 279.34)">LAN</text>
    <text class="cls-10" transform="translate(202.58 357.84)">LAN</text>
    <text class="cls-10" transform="translate(199.91 188.53)">LAN</text>
    <text class="cls-11" transform="translate(335.82 159.82)">WAN</text>
  </g>
  <g id="Comps">
    <g id="TopLRing">
      <use width="44.75" height="35.34" transform="translate(182.69 246.09) rotate(-135) scale(0.73)" xlink:href="#Computer"/>
      <use width="44.75" height="35.34" transform="translate(241.36 256.88) rotate(180) scale(0.73)" xlink:href="#Computer"/>
      <use width="44.75" height="35.34" transform="translate(290.49 223.03) rotate(135) scale(0.73)" xlink:href="#Computer"/>
      <use width="44.75" height="35.34" transform="translate(267.43 115.22) rotate(45) scale(0.73)" xlink:href="#Computer"/>
      <use width="44.75" height="35.34" transform="translate(301.28 164.35) rotate(90) scale(0.73)" xlink:href="#Computer"/>
      <use width="44.75" height="35.34" transform="translate(208.75 104.43) scale(0.73)" xlink:href="#Computer"/>
      <use width="44.75" height="35.34" transform="translate(159.62 138.29) rotate(-45) scale(0.73)" xlink:href="#Computer"/>
      <use width="29.14" height="24.86" transform="translate(146.26 168.57)" xlink:href="#Server"/>
    </g>
    <g id="RightRing">
      <use width="44.75" height="35.34" transform="translate(452.71 254.41) rotate(90) scale(0.73)" xlink:href="#Computer"/>
      <use width="44.75" height="35.34" transform="translate(401.83 195.26) rotate(30) scale(0.73)" xlink:href="#Computer"/>
      <use width="44.75" height="35.34" transform="translate(325.17 209.75) rotate(-30) scale(0.73)" xlink:href="#Computer"/>
      <use width="44.75" height="35.34" transform="translate(299.38 283.38) rotate(-90) scale(0.73)" xlink:href="#Computer"/>
      <use width="44.75" height="35.34" transform="translate(350.26 342.53) rotate(-150) scale(0.73)" xlink:href="#Computer"/>
      <use width="44.75" height="35.34" transform="matrix(-0.63, 0.36, -0.36, -0.63, 426.92, 328.04)" xlink:href="#Computer"/>
    </g>
    <g id="BottomRing">
      <use width="44.75" height="35.34" transform="translate(296.14 371.58) rotate(120) scale(0.58)" xlink:href="#Computer"/>
      <use width="29.14" height="24.86" transform="translate(306.14 358.86) rotate(180)" xlink:href="#Server"/>
      <use width="29.14" height="24.86" transform="translate(301.01 317.32) rotate(150)" xlink:href="#Server"/>
      <use width="29.14" height="24.86" transform="matrix(-0.5, 0.87, -0.87, -0.5, 275.79, 283.91)" xlink:href="#Server"/>
      <use width="29.14" height="24.86" transform="translate(237.24 267.59) rotate(90)" xlink:href="#Server"/>
      <use width="29.14" height="24.86" transform="translate(195.7 272.73) rotate(60)" xlink:href="#Server"/>
      <use width="29.14" height="24.86" transform="translate(162.3 297.95) rotate(30)" xlink:href="#Server"/>
      <use id="Server-17" data-name="Server" width="29.14" height="24.86" transform="translate(145.98 336.49)" xlink:href="#Server"/>
      <use width="29.14" height="24.86" transform="translate(151.12 378.03) rotate(-30)" xlink:href="#Server"/>
      <use width="29.14" height="24.86" transform="translate(176.34 411.44) rotate(-60)" xlink:href="#Server"/>
      <use width="29.14" height="24.86" transform="translate(214.88 427.76) rotate(-90)" xlink:href="#Server"/>
      <use width="29.14" height="24.86" transform="translate(256.42 422.62) rotate(-120)" xlink:href="#Server"/>
    </g>
  </g>
</svg>
