<svg id="Layer_1" data-name="Layer 1" xmlns="http://www.w3.org/2000/svg" viewBox="0 0 310.2 310.2">
  <defs>
    <style>
      .cls-1 {
        fill: #fff;
      }
    </style>
  </defs>
  <title>Artboard 1</title>
  <g id="baseDot">
    <g>
      <path d="M155.2,274.4a28.3,28.3,0,1,1,28.3-28.3A28.33,28.33,0,0,1,155.2,274.4Z"/>
      <path class="cls-1" d="M155.2,215.8v4a26.3,26.3,0,1,1-26.3,26.3,26.33,26.33,0,0,1,26.3-26.3v-4m0,0a30.3,30.3,0,1,0,30.3,30.3,30.28,30.28,0,0,0-30.3-30.3Z"/>
    </g>
  </g>
  <g id="baseRing">
    <g>
      <path d="M202.08,204.21a.81.81,0,0,1-.6-.25c-11.4-12.34-28.26-19.41-46.28-19.41s-34.88,7.07-46.27,19.39a.73.73,0,0,1-.56.25.92.92,0,0,1-.59-.23L88.89,188.07a.89.89,0,0,1-.34-.62.55.55,0,0,1,.17-.43l.08-.08a88.93,88.93,0,0,1,132.81.1.8.8,0,0,1,.21.61.89.89,0,0,1-.3.62L202.67,204A1,1,0,0,1,202.08,204.21Z"/>
      <path class="cls-1" d="M155.2,159.2a87.09,87.09,0,0,1,64.13,28.29L202.2,201.8c-11.75-12.25-28.81-19.25-47-19.25s-35.18,7-46.95,19.2L91.12,187.34A87.06,87.06,0,0,1,155.2,159.2m0-4a90.76,90.76,0,0,0-67.9,30.4,2.69,2.69,0,0,0,.3,4l18.9,15.9a2.93,2.93,0,0,0,1.87.69,2.72,2.72,0,0,0,2-.89c11.55-12.5,28.17-18.75,44.8-18.75s33.25,6.25,44.8,18.75a2.8,2.8,0,0,0,2.09.91,3,3,0,0,0,1.81-.61l18.9-15.8a2.87,2.87,0,0,0,.3-4.1,90.85,90.85,0,0,0-67.9-30.5Z"/>
    </g>
  </g>
  <g id="topRing">
    <g>
      <path d="M288.26,118.78a.92.92,0,0,1-.64-.29A182.07,182.07,0,0,0,155.2,62.2,185.28,185.28,0,0,0,22.66,118.51a1,1,0,0,1-.66.27.66.66,0,0,1-.49-.19l-18-16.85a.78.78,0,0,1-.28-.58,1,1,0,0,1,.29-.7A210.75,210.75,0,0,1,154.84,35.9h.36a211.43,211.43,0,0,1,151.66,64.59.86.86,0,0,1-.07,1.2l-18,16.86A.84.84,0,0,1,288.26,118.78Z"/>
      <path class="cls-1" d="M154.84,37.9h.36A209.43,209.43,0,0,1,304.58,101l-16.29,15.3A184.06,184.06,0,0,0,155.2,60.2,187.31,187.31,0,0,0,22,116.31L5.67,101.06A208.78,208.78,0,0,1,154.84,37.9m0-4A212.53,212.53,0,0,0,2,99.1a2.87,2.87,0,0,0,.1,4.1l18,16.8a2.66,2.66,0,0,0,1.9.78,3,3,0,0,0,2.1-.88A183,183,0,0,1,155.2,64.2a179.85,179.85,0,0,1,131,55.7,2.91,2.91,0,0,0,2.06.88,2.86,2.86,0,0,0,1.94-.78l18-16.9a2.84,2.84,0,0,0,.1-4A213,213,0,0,0,155.2,33.9Z"/>
    </g>
  </g>
  <g id="midRing">
    <g>
      <path d="M65.14,161.53a1.05,1.05,0,0,1-.66-.26L46.24,144.72a.67.67,0,0,1-.28-.52.59.59,0,0,1,.23-.47l.09-.07.08-.08a149.72,149.72,0,0,1,217.89-.1.65.65,0,0,1,.22.5.93.93,0,0,1-.32.65l-18.29,16.59a.91.91,0,0,1-.54.17,1,1,0,0,1-.7-.31,123.44,123.44,0,0,0-178.87.14A.8.8,0,0,1,65.14,161.53Z"/>
      <path class="cls-1" d="M155.3,98.5a148.41,148.41,0,0,1,106.63,45.44l-16.57,15a125.45,125.45,0,0,0-180.32.1L48.58,144.14A148.13,148.13,0,0,1,155.3,98.5m0-4A151.9,151.9,0,0,0,44.9,142.2a2.6,2.6,0,0,0,0,4l18.3,16.6a3,3,0,0,0,1.94.73,2.77,2.77,0,0,0,2.06-.93,121.44,121.44,0,0,1,176-.1,3,3,0,0,0,2.12.89,2.93,2.93,0,0,0,1.88-.69l18.3-16.6a2.76,2.76,0,0,0,.2-4A152,152,0,0,0,155.3,94.5Z"/>
    </g>
  </g>
</svg>
